<svg xmlns="http://www.w3.org/2000/svg" width="18" height="18" viewBox="0 0 18 18">
    <g fill="none" fill-rule="evenodd">
        <g fill="#FF7B00">
            <g>
                <g>
                    <g>
                        <path d="M8.996 14.246c-.354 0-.641-.287-.641-.641 0-.354.287-.641.641-.641.354 0 .641.287.641.641 0 .354-.287.641-.64.641zM8.434 3.863c0-.31.252-.562.562-.562.31 0 .563.252.563.562v7.77c0 .31-.252.563-.563.563-.31 0-.562-.252-.562-.563v-7.77zM9.377.01C9.166.004 8.922 0 8.688 0h-.165C6.716.017 0 .637 0 8.97c0 8.348 6.78 9.002 8.588 9.028.274.003.549.002.824-.004 1.717-.032 8.588-.675 8.588-8.97C18 .746 11.139.05 9.377.008z" transform="translate(-443 -2052) translate(132 1585) translate(0 450) translate(311 17)"/>
                    </g>
                </g>
            </g>
        </g>
    </g>
</svg>
