<svg xmlns="http://www.w3.org/2000/svg" width="18" height="18" viewBox="0 0 18 18">
    <path fill="#777" fill-rule="evenodd" d="M17.45 3.758h-4.146v-1.61c.006-.097.048-.969-.528-1.586-.238-.257-.676-.56-1.41-.56l-4.69.005c-.081-.011-.791-.063-1.36.45-.412.374-.622.928-.622 1.644v1.657H.55c-.303 0-.55.247-.55.55 0 .305.247.55.55.55h1.333l.002 10.138c-.005.053-.077 1.277.743 2.157.526.561 1.274.846 2.22.846h8.27l.06.001c.264 0 1.332-.05 2.112-.796.55-.527.83-1.263.83-2.184V4.859h1.33c.304-.012.542-.267.53-.57-.01-.288-.24-.52-.53-.53v-.001zM7.672 13.7c-.011.304-.266.54-.57.53-.288-.011-.52-.241-.53-.53V8.066c.01-.304.267-.541.57-.53.288.01.52.242.53.53V13.7zm3.757 0c-.012.304-.267.54-.571.53-.288-.011-.52-.241-.53-.53V8.066c.012-.304.266-.541.57-.53.288.01.52.242.53.53V13.7zm.776-9.943H5.794V2.101c0-.388.086-.665.255-.823.212-.195.52-.177.573-.174l4.744-.003c.273 0 .472.068.603.207.216.228.244.63.236.801v1.65z"/>
</svg>
