<svg xmlns="http://www.w3.org/2000/svg" width="15" height="14" viewBox="0 0 15 14">
    <path fill="#ffffff" fill-rule="evenodd" d="M12.277 7.668c.05-.05.101-.076.173-.082.13-.009.26-.024.386-.049.206-.04.247-.157.112-.313-.149-.17-.3-.337-.458-.497-1.312-1.32-2.624-2.641-3.941-3.957-.46-.46-.933-.906-1.402-1.356-.05-.048-.106-.091-.167-.125-.11-.06-.187-.014-.188.108-.006.973-.007 1.947-.022 2.92-.003.227.045.42.159.618.26.455.248.935-.012 1.379-.321.546-.862.782-1.556.641-.62-.125-1.094-.802-1.038-1.455.025-.284.137-.53.29-.765.036-.054.055-.128.057-.193.006-.35.004-.698.005-1.047 0-.03-.003-.06-.005-.09l-.023-.013-1.343 1.364-.023-.014c-.002-.03-.005-.06-.005-.09 0-.702-.002-1.403.002-2.104.001-.31.016-.621.022-.932.005-.276.133-.48.339-.66C4.077.568 5 .603 5.287 1.388c.059.163.07.349.072.524.011.917.008 1.833.02 2.75.002.199-.01.377-.185.503-.01.007-.016.02-.024.03-.19.236-.207.504-.049.77.146.246.428.378.706.325.268-.051.461-.198.54-.463.086-.284.036-.544-.194-.746-.078-.069-.101-.14-.1-.238.002-.78.003-1.561-.004-2.341-.003-.342 0-.687-.042-1.026C5.882.304 4.514-.37 3.487.215c-.342.196-.599.471-.777.825-.079.157-.116.313-.117.49-.008 1.287-.023 2.575-.035 3.863 0 .068-.019.118-.068.167L.367 7.683c-.49.49-.49 1.283 0 1.772l4.178 4.178c.49.49 1.283.49 1.772 0L12.28 7.67m-.93 4.183c.005-.354.116-.682.264-.995.331-.704.727-1.372 1.171-2.01.18-.259.453-.268.63-.002.292.444.568.9.832 1.361.17.297.32.607.45.922.44 1.066-.179 2.185-1.312 2.393-.777.143-1.557-.288-1.892-1.044-.089-.2-.145-.405-.142-.625"/>
</svg>
