<svg xmlns="http://www.w3.org/2000/svg" width="46" height="42" viewBox="0 0 46 42">
    <path fill="#CCC" fill-rule="evenodd" d="M31.595 19.738L17.02 11.201c-.443-.262-.995-.262-1.438 0-.448.265-.72.744-.718 1.263v17.07c0 .519.274 1.002.718 1.262.441.265.995.265 1.438 0l14.577-8.534c.444-.264.718-.745.718-1.262s-.274-.997-.718-1.262h-.002zM17.737 27.01V14.988L28.003 21l-10.264 6.01h-.002zM37.485 0c9.175 0 8.504 8.61 8.504 8.61l.004 24.727c0 7.941-5.708 8.663-7.77 8.663-.455 0-.735-.036-.735-.036H8.462c-9.03 0-8.455-8.578-8.455-8.578L.004 8.564C.004.565 6.21 0 7.969 0c.292 0 .46.015.46.015S28.311 0 37.485 0zM2.879 18.629l.001 4.874h4.303v-4.874H2.88zm0-2.917h4.304v-4.847H2.88v4.849-.002zm.001 15.567h4.303v-4.861H2.88v4.86zm35.935-7.812h4.3v-4.861h-4.3v4.86zm0-7.776h4.3v-4.86h-4.3v4.862-.002zm0 15.553h4.303v-4.86h-4.303v4.86zm4.3-23.329c-.037-.783-.244-2.402-1.299-3.536-.684-.738-1.694-1.195-3.001-1.374v4.91h4.3zM4.869 3.744c-.462.296-1.788 1.193-1.955 4.205h4.27V2.972c-.665.077-1.533.268-2.315.772zM2.9 34.194c.063.83.318 2.338 1.326 3.417.684.725 1.677 1.178 2.96 1.35v-4.767H2.897 2.9zm35.913 4.855c3.615-.287 4.196-3.17 4.286-4.888h-4.284v4.888h-.002z"/>
</svg>
