<svg xmlns="http://www.w3.org/2000/svg" width="122" height="40" viewBox="0 0 122 40">
    <g fill="none" fill-rule="evenodd">
        <rect width="58" height="40" fill="#CCC" rx="2"/>
        <path fill="#F0EDED" d="M28.329 18.525c-.164.175-.308.301-.506.301-.21 0-.382-.123-.53-.338l-1.849-2.983c-.088-.118-.206-.295-.418-.293-.208.001-.328.163-.417.285l-4.411 6.357c-.089.123-.14.275-.14.44 0 .4.304.706.679.706H37.11c.763 0 1.144-.552.7-1.31l-5.007-8.441c-.088-.118-.206-.295-.418-.294-.208.002-.329.164-.418.286l-3.64 5.274m-6.155-5.105l-.237.007c-.885-.012-1.936-.41-1.936-2.218C20 9.403 21.04 9.007 21.906 9l.255.007c.891.025 1.954.421 1.954 2.211 0 1.783-1.057 2.18-1.942 2.192M0 32h58v6c0 1.105-.895 2-2 2H2c-1.105 0-2-.895-2-2v-6z"/>
        <path fill="#CCC" d="M3 35H55V37H3z"/>
    </g>
    <g fill="none" fill-rule="evenodd" transform="translate(64 0)">
        <rect width="58" height="40" fill="#CCC" rx="2"/>
        <path fill="#F0EDED" d="M28.329 18.525c-.164.175-.308.301-.506.301-.21 0-.382-.123-.53-.338l-1.849-2.983c-.088-.118-.206-.295-.418-.293-.208.001-.328.163-.417.285l-4.411 6.357c-.089.123-.14.275-.14.44 0 .4.304.706.679.706H37.11c.763 0 1.144-.552.7-1.31l-5.007-8.441c-.088-.118-.206-.295-.418-.294-.208.002-.329.164-.418.286l-3.64 5.274m-6.155-5.105l-.237.007c-.885-.012-1.936-.41-1.936-2.218C20 9.403 21.04 9.007 21.906 9l.255.007c.891.025 1.954.421 1.954 2.211 0 1.783-1.057 2.18-1.942 2.192M0 32h58v6c0 1.105-.895 2-2 2H2c-1.105 0-2-.895-2-2v-6z"/>
        <path fill="#CCC" d="M3 35H55V37H3z"/>
    </g>
</svg>
