<svg xmlns="http://www.w3.org/2000/svg" xmlns:xlink="http://www.w3.org/1999/xlink" width="156" height="110" viewBox="0 0 156 110">
    <defs>
        <filter id="ff2pdy5t9a" width="111%" height="116%" x="-5.5%" y="-7%" filterUnits="objectBoundingBox">
            <feOffset dy="1" in="SourceAlpha" result="shadowOffsetOuter1"/>
            <feGaussianBlur in="shadowOffsetOuter1" result="shadowBlurOuter1" stdDeviation="2.5"/>
            <feColorMatrix in="shadowBlurOuter1" values="0 0 0 0 0 0 0 0 0 0 0 0 0 0 0 0 0 0 0.15 0"/>
        </filter>
        <rect id="aruio0kmdb" width="146" height="100" x="0" y="0" rx="4"/>
    </defs>
    <g fill="none" fill-rule="evenodd" transform="translate(5 4)">
        <use fill="#000" filter="url(#ff2pdy5t9a)" xlink:href="#aruio0kmdb"/>
        <use fill="#43bee4" xlink:href="#aruio0kmdb"/>
        <path fill="#BAEFFF" d="M71.44 55.503c-.364.371-.686.64-1.127.64-.467 0-.851-.262-1.18-.719l-4.124-6.33c-.197-.249-.459-.626-.932-.622-.463.003-.732.347-.93.605L53.312 62.57c-.197.259-.313.582-.313.934 0 .848.68 1.497 1.515 1.497H91.02c1.7 0 2.549-1.172 1.56-2.782L81.417 44.306c-.196-.249-.458-.626-.93-.622-.464.003-.734.347-.932.605L71.44 55.482M57.97 44.46l-.544.014C55.404 44.447 53 43.595 53 39.717c0-3.852 2.377-4.703 4.36-4.717l.584.014c2.037.054 4.468.905 4.468 4.744 0 3.823-2.417 4.675-4.44 4.702"/>
    </g>
</svg>