<svg xmlns="http://www.w3.org/2000/svg" width="62" height="52" viewBox="0 0 62 52">
    <path fill="#0B2739" fill-rule="evenodd" d="M38.493 37.67c1.841-.467 3.526-1.436 4.872-2.792l15.544-15.665c1.995-2.007 3.091-4.68 3.091-7.52 0-2.842-1.096-5.512-3.09-7.52l-1.058-1.065c-4.11-4.141-10.805-4.147-14.926 0L27.385 18.771c-2.929 2.948-3.875 7.377-2.412 11.279.294.784 1.153 1.168 1.937.88.772-.293 1.166-1.165.875-1.949-1.049-2.79-.37-5.96 1.724-8.07l15.54-15.663c2.945-2.963 7.736-2.97 10.68 0l1.057 1.066c2.94 2.967 2.94 7.792 0 10.758L41.24 32.738c-.964.969-2.168 1.662-3.487 1.998-.805.206-1.292 1.026-1.084 1.84.168.685.78 1.142 1.453 1.142.12 0 .244-.015.37-.049M11.609 52c-2.82 0-5.47-1.105-7.464-3.115l-1.054-1.062C1.096 45.813 0 43.143 0 40.3c0-2.84 1.096-5.512 3.09-7.52l15.542-15.665c1.352-1.36 3.037-2.325 4.878-2.791.805-.212 1.622.29 1.82 1.096.208.81-.285 1.631-1.087 1.837-1.316.336-2.52 1.026-3.487 1.998L5.214 34.921c-2.943 2.966-2.943 7.792 0 10.758l1.055 1.066c2.853 2.873 7.828 2.873 10.678 0l15.544-15.663c2.094-2.11 2.77-5.28 1.724-8.07-.29-.784.1-1.656.875-1.95.78-.287 1.646.097 1.937.881 1.46 3.902.517 8.328-2.412 11.28L19.071 48.884C17.079 50.895 14.427 52 11.609 52"/>
</svg>
