<svg xmlns="http://www.w3.org/2000/svg" width="16" height="16" viewBox="0 0 16 16">
    <style type="text/css">
        @keyframes spinner {
          to {transform: rotate(360deg);}
        }
        #spinner {
            animation: spinner 0.9s linear infinite;
            transform-origin: center;
        }
    </style>
 
    <g fill="#2593B5" id="spinner">
        <path d="M.711 7.289h3.022c.393 0 .711.318.711.711 0 .393-.318.711-.71.711H.71C.318 8.711 0 8.393 0 8c0-.393.318-.711.711-.711z" opacity=".346"/>
        <path d="M12.267 7.289h3.022c.393 0 .711.318.711.711 0 .393-.318.711-.711.711h-3.022c-.393 0-.711-.318-.711-.711 0-.393.318-.711.71-.711z"/>
        <path d="M8.711.711v3.022c0 .393-.318.711-.711.711-.393 0-.711-.318-.711-.71V.71C7.289.318 7.607 0 8 0c.393 0 .711.318.711.711z" opacity=".598"/>
        <path d="M8.711 12.267v3.022c0 .393-.318.711-.711.711-.393 0-.711-.318-.711-.711v-3.022c0-.393.318-.711.711-.711.393 0 .711.318.711.71zM2.343 12.651l2.137-2.137c.278-.278.728-.278 1.006 0s.278.728 0 1.006l-2.137 2.137c-.278.278-.728.278-1.006 0s-.278-.728 0-1.006z"/>
        <path d="M10.514 4.48l2.137-2.137c.278-.278.728-.278 1.006 0s.278.728 0 1.006L11.52 5.486c-.278.278-.728.278-1.006 0s-.278-.728 0-1.006z" opacity=".752"/>
        <path d="M3.349 2.343L5.486 4.48c.278.278.278.728 0 1.006s-.728.278-1.006 0L2.343 3.349c-.278-.278-.278-.728 0-1.006s.728-.278 1.006 0z" opacity=".497"/>
        <path d="M11.52 10.514l2.137 2.137c.278.278.278.728 0 1.006s-.728.278-1.006 0l-2.137-2.137c-.278-.278-.278-.728 0-1.006s.728-.278 1.006 0z"/>
    </g>
</svg>
