<svg xmlns="http://www.w3.org/2000/svg" width="146" height="91" viewBox="0 0 146 91">
    <g fill="none" fill-rule="evenodd">
        <g>
            <g>
                <g>
                    <g>
                        <g>
                            <g>
                                <g fill="#43BEE4" transform="translate(-68 -5944) translate(-2 5433) translate(70 510) translate(0 1)">
                                    <rect width="146" height="90.776" rx="6"/>
                                </g>
                                <g transform="translate(-68 -5944) translate(-2 5433) translate(70 510) translate(0 1) translate(33 27.233)">
                                    <rect width="80" height="36.31" fill="#BAEFFF" rx="2"/>
                                    <path fill="#43BEE4" d="M39.298 21.171c-.164.158-.309.273-.507.273-.21 0-.383-.112-.531-.306l-1.856-2.696c-.089-.106-.206-.267-.42-.265-.208.001-.329.148-.418.258L31.14 24.18c-.089.11-.141.248-.141.398 0 .361.306.638.682.638h16.427c.765 0 1.147-.5.702-1.185l-5.024-7.628c-.088-.106-.206-.267-.418-.265-.21.001-.33.148-.42.258l-3.651 4.766m-6.185-5.03l-.231.006c-.86-.011-1.882-.374-1.882-2.026 0-1.64 1.01-2.003 1.853-2.009l.248.006c.866.023 1.899.386 1.899 2.02 0 1.629-1.027 1.992-1.887 2.003"/>
                                </g>
                            </g>
                        </g>
                    </g>
                </g>
            </g>
        </g>
    </g>
</svg>
