<?xml version="1.0" encoding="UTF-8"?>
<svg width="146px" height="90px" viewBox="0 0 146 90" version="1.1" xmlns="http://www.w3.org/2000/svg" xmlns:xlink="http://www.w3.org/1999/xlink">
    <title>555D6156-CDC6-4347-84BC-2C04AAAA480A</title>
    <g id="UI-kit" stroke="none" stroke-width="1" fill="none" fill-rule="evenodd">
        <g id="Response-assets" transform="translate(-68.000000, -5513.000000)">
            <g id="Option-calle" transform="translate(-2.000000, 5433.000000)">
                <g id="Opcion_Calle" transform="translate(70.000000, 80.000000)">
                    <g id="option/calle/imagen/default" transform="translate(0.000000, 0.000000)">
                        <g id="icn_xl_img_default" transform="translate(0.000000, 0.000000)">
                            <rect id="selector_area" stroke="#CCCCCC" fill="#FFFFFF" x="0.5" y="0.5" width="145" height="89" rx="6"></rect>
                            <g transform="translate(33.000000, 27.000000)">
                                <rect id="icn_area" fill="#CCCCCC" x="0" y="0" width="80" height="36" rx="2"></rect>
                                <path d="M39.2979424,20.9902011 C39.1340182,21.1468438 38.9891962,21.2604203 38.7910656,21.2604203 C38.5804962,21.2604203 38.4076872,21.1497993 38.2597556,20.9568459 L36.4041688,18.2842096 C36.315321,18.1790775 36.1975976,18.0199015 35.9848071,18.0215904 C35.7764589,18.022857 35.6551817,18.1680998 35.5658896,18.2770319 L31.1408238,23.9735894 C31.0524202,24.0829437 31,24.21932 31,24.3679405 C31,24.7259809 31.3056365,25 31.681907,25 L48.1085367,25 C48.8735165,25 49.2555621,24.5051612 48.8108788,23.8253911 L43.7874229,16.2626326 C43.6990193,16.1575004 43.5812959,15.9983245 43.3685054,16 C43.159713,16.00128 43.0384357,16.1465228 42.9491437,16.2554549 L39.2979424,20.9813345 M33.1127852,15.9940254 L32.8816186,16 C32.0215239,15.9889043 31,15.6291476 31,13.9916782 C31,12.3653046 32.0103315,12.0059746 32.8532071,12 L33.1011623,12.0059746 C33.9668532,12.0285928 35,12.3879228 35,14.0087485 C35,15.6231729 33.9728799,15.9829297 33.1127852,15.9940254" id="icn_image" fill="#F0EDED"></path>
                            </g>
                        </g>
                    </g>
                </g>
            </g>
        </g>
    </g>
</svg>