<?xml version="1.0" encoding="UTF-8"?>
<svg width="146px" height="90px" viewBox="0 0 146 90" version="1.1" xmlns="http://www.w3.org/2000/svg" xmlns:xlink="http://www.w3.org/1999/xlink">
    <title>5C072214-6204-42CA-9877-174BF2E33DF1</title>
    <g id="UI-kit" stroke="none" stroke-width="1" fill="none" fill-rule="evenodd">
        <g id="Response-assets" transform="translate(-578.000000, -5944.000000)">
            <g id="Option-calle" transform="translate(-2.000000, 5433.000000)">
                <g id="Opcion_Calle" transform="translate(70.000000, 510.000000)">
                    <g id="Group-3" transform="translate(510.000000, 1.000000)">
                        <g id="Group-16" fill="#43BEE4">
                            <rect id="selector_area" x="0" y="0" width="146" height="90" rx="6"></rect>
                        </g>
                        <g id="text" transform="translate(97.000000, 34.000000)" fill="#BAEFFF">
                            <rect id="Rectangle" x="0" y="1.8189894e-12" width="28" height="4" rx="1"></rect>
                            <rect id="Rectangle-Copy-4" x="0" y="8" width="25" height="4" rx="1"></rect>
                            <rect id="Rectangle-Copy-5" x="0" y="14" width="25" height="4" rx="1"></rect>
                            <rect id="Rectangle-Copy-6" x="0" y="20" width="25" height="4" rx="1"></rect>
                        </g>
                        <g id="icn_xl_16:9_img+text_default" transform="translate(12.000000, 26.000000)">
                            <rect id="icn_area" fill="#F0EDED" x="0" y="0" width="80" height="37" rx="2"></rect>
                            <g id="Group">
                                <rect id="img_area" fill="#BAEFFF" x="0" y="0" width="80" height="37"></rect>
                                <path d="M0,27 L80,27 L80,35 C80,36.1045695 79.1045695,37 78,37 L2,37 C0.8954305,37 1.3527075e-16,36.1045695 0,35 L0,27 L0,27 Z" id="icn_area" fill="#62C6E5"></path>
                                <rect id="Rectangle" fill="#BAEFFF" x="3" y="30" width="43" height="4" rx="1"></rect>
                                <path d="M38.8369456,16.9902011 C38.6821283,17.1468438 38.545352,17.2604203 38.3582286,17.2604203 C38.1593575,17.2604203 37.996149,17.1497993 37.8564358,16.9568459 L36.1039372,14.2842096 C36.0200254,14.1790775 35.9088422,14.0199015 35.7078734,14.0215904 C35.5111001,14.022857 35.3965605,14.1680998 35.3122291,14.2770319 L31.1330003,19.9735894 C31.049508,20.0829437 31,20.21932 31,20.3679405 C31,20.7259809 31.2886567,21 31.6440233,21 L47.1580625,21 C47.8805433,21 48.2413642,20.5051612 47.8213855,19.8253911 L43.0770105,12.2626326 C42.9935182,12.1575004 42.882335,11.9983245 42.6813662,12 C42.4841734,12.00128 42.3696337,12.1465228 42.2853023,12.2554549 L38.8369456,16.9813345 M33.1127852,11.9940254 L32.8816186,12 C32.0215239,11.9889043 31,11.6291476 31,9.99167822 C31,8.3653046 32.0103315,8.00597461 32.8532071,8 L33.1011623,8.00597461 C33.9668532,8.02859277 35,8.38792276 35,10.0087485 C35,11.6231729 33.9728799,11.9829297 33.1127852,11.9940254" id="icn_image" fill="#43BEE4"></path>
                            </g>
                        </g>
                    </g>
                </g>
            </g>
        </g>
    </g>
</svg>