<svg xmlns="http://www.w3.org/2000/svg" width="123" height="40" viewBox="0 0 123 40">
    <g fill="none" fill-rule="evenodd">
        <g>
            <g transform="translate(-259 -4219) translate(259 4219)">
                <rect width="122" height="40" fill="#EEE" rx="2"/>
                <path fill="#CCC" d="M42 30v4H6v-4h36zm0-6v4H6v-4h36zm0-6v4H6v-4h36zm0-6v4H6v-4h36zm4-6v4H6V6h40zM69 0h51.33c1.105 0 2 .895 2 2v36c0 1.105-.895 2-2 2H69V0z"/>
                <path fill="#EEE" d="M95.329 22.525c-.164.175-.308.301-.506.301-.21 0-.382-.123-.53-.338l-1.849-2.983c-.088-.118-.206-.295-.418-.293-.208.001-.328.163-.417.285l-4.411 6.357c-.089.123-.14.275-.14.44 0 .4.304.706.679.706h16.374c.763 0 1.144-.552.7-1.31l-5.007-8.441c-.088-.118-.206-.295-.418-.294-.208.002-.329.164-.418.286l-3.64 5.274m-6.155-5.105l-.237.007c-.885-.012-1.936-.41-1.936-2.218 0-1.796 1.04-2.192 1.906-2.199l.255.007c.891.025 1.954.421 1.954 2.211 0 1.783-1.057 2.18-1.942 2.192"/>
            </g>
        </g>
    </g>
</svg>
