<svg xmlns="http://www.w3.org/2000/svg" xmlns:xlink="http://www.w3.org/1999/xlink" width="80" height="56" viewBox="0 0 80 56">
    <defs>
        <rect id="z9pedtfx6a" width="80" height="56" x="0" y="0" rx="5.76"/>
    </defs>
    <g fill="none" fill-rule="evenodd">
        <g>
            <g>
                <g transform="translate(-353 -5295) translate(0 5216) translate(353 79)">
                    <mask id="0lay1cuv4b" fill="#fff">
                        <use xlink:href="#z9pedtfx6a"/>
                    </mask>
                    <use fill="#2593B5" xlink:href="#z9pedtfx6a"/>
                    <g mask="url(#0lay1cuv4b)">
                        <g transform="translate(8.419 34.191)">
                            <rect width="18.462" height="12.308" fill="#BAEFFF" rx="1.2"/>
                            <path fill="#2593B5" d="M8.9 7.918c-.085.1-.16.172-.262.172-.109 0-.198-.07-.275-.193l-.959-1.705c-.046-.067-.107-.168-.217-.167-.107 0-.17.093-.216.163L4.684 9.82c-.046.07-.073.156-.073.251 0 .228.158.403.352.403h8.49c.396 0 .594-.315.364-.749L11.22 4.903c-.045-.067-.106-.169-.216-.168-.108.001-.17.094-.217.163L8.9 7.912M5.708 4.995L5.585 5c-.459-.007-1.004-.234-1.004-1.267 0-1.026.54-1.253.989-1.257l.132.004c.462.014 1.013.241 1.013 1.264 0 1.018-.548 1.245-1.007 1.252"/>
                        </g>
                    </g>
                    <g mask="url(#0lay1cuv4b)">
                        <g transform="translate(30.419 34.191)">
                            <rect width="18.462" height="12.308" fill="#BAEFFF" rx="1.2"/>
                            <path fill="#2593B5" d="M8.9 7.918c-.085.1-.16.172-.262.172-.109 0-.198-.07-.275-.193l-.959-1.705c-.046-.067-.107-.168-.217-.167-.107 0-.17.093-.216.163L4.684 9.82c-.046.07-.073.156-.073.251 0 .228.158.403.352.403h8.49c.396 0 .594-.315.364-.749L11.22 4.903c-.045-.067-.106-.169-.216-.168-.108.001-.17.094-.217.163L8.9 7.912M5.708 4.995L5.585 5c-.459-.007-1.004-.234-1.004-1.267 0-1.026.54-1.253.989-1.257l.132.004c.462.014 1.013.241 1.013 1.264 0 1.018-.548 1.245-1.007 1.252"/>
                        </g>
                    </g>
                    <g mask="url(#0lay1cuv4b)">
                        <g transform="translate(52.419 34.191)">
                            <rect width="18.462" height="12.308" fill="#BAEFFF" rx="1.2"/>
                            <path fill="#2593B5" d="M8.9 7.918c-.085.1-.16.172-.262.172-.109 0-.198-.07-.275-.193l-.959-1.705c-.046-.067-.107-.168-.217-.167-.107 0-.17.093-.216.163L4.684 9.82c-.046.07-.073.156-.073.251 0 .228.158.403.352.403h8.49c.396 0 .594-.315.364-.749L11.22 4.903c-.045-.067-.106-.169-.216-.168-.108.001-.17.094-.217.163L8.9 7.912M5.708 4.995L5.585 5c-.459-.007-1.004-.234-1.004-1.267 0-1.026.54-1.253.989-1.257l.132.004c.462.014 1.013.241 1.013 1.264 0 1.018-.548 1.245-1.007 1.252"/>
                        </g>
                    </g>
                    <g mask="url(#0lay1cuv4b)">
                        <g transform="translate(74.419 34.191)">
                            <rect width="18.462" height="12.308" fill="#BAEFFF" rx="1.2"/>
                            <path fill="#2593B5" d="M8.9 7.918c-.085.1-.16.172-.262.172-.109 0-.198-.07-.275-.193l-.959-1.705c-.046-.067-.107-.168-.217-.167-.107 0-.17.093-.216.163L4.684 9.82c-.046.07-.073.156-.073.251 0 .228.158.403.352.403h8.49c.396 0 .594-.315.364-.749L11.22 4.903c-.045-.067-.106-.169-.216-.168-.108.001-.17.094-.217.163L8.9 7.912M5.708 4.995L5.585 5c-.459-.007-1.004-.234-1.004-1.267 0-1.026.54-1.253.989-1.257l.132.004c.462.014 1.013.241 1.013 1.264 0 1.018-.548 1.245-1.007 1.252"/>
                        </g>
                    </g>
                </g>
            </g>
        </g>
    </g>
</svg>
