<svg xmlns="http://www.w3.org/2000/svg" width="122" height="40" viewBox="0 0 122 40">
    <g fill="none" fill-rule="evenodd">
        <rect width="36" height="40" fill="#BAEFFF" rx="2"/>
        <g fill="#2593B5">
            <path d="M0 0H24V4H0zM0 6H20V10H0zM0 12H20V16H0zM0 18H20V22H0zM0 24H20V28H0z" transform="translate(6 6)"/>
        </g>
    </g>
    <g fill="none" fill-rule="evenodd" transform="translate(43 0)">
        <rect width="36" height="40" fill="#BAEFFF" rx="2"/>
        <g fill="#2593B5">
            <path d="M0 0H24V4H0zM0 6H20V10H0zM0 12H20V16H0zM0 18H20V22H0zM0 24H20V28H0z" transform="translate(6 6)"/>
        </g>
    </g>
    <g fill="none" fill-rule="evenodd" transform="translate(86 0)">
        <rect width="36" height="40" fill="#BAEFFF" rx="2"/>
        <g fill="#2593B5">
            <path d="M0 0H24V4H0zM0 6H20V10H0zM0 12H20V16H0zM0 18H20V22H0zM0 24H20V28H0z" transform="translate(6 6)"/>
        </g>
    </g>
</svg>
