<?xml version="1.0" encoding="UTF-8"?>
<svg width="82px" height="58px" viewBox="0 0 82 58" version="1.1" xmlns="http://www.w3.org/2000/svg" xmlns:xlink="http://www.w3.org/1999/xlink">
    <title>ED16B103-8EBC-4BF2-B542-AA40A7C4A038</title>
    <defs>
        <rect id="path-1" x="0" y="0" width="80" height="56" rx="5.76"></rect>
    </defs>
    <g id="UI-kit" stroke="none" stroke-width="1" fill="none" fill-rule="evenodd">
        <g id="Response-assets" transform="translate(-69.000000, -5294.000000)">
            <g id="option-position" transform="translate(0.000000, 5216.000000)">
                <g id="icn_carousel_layout_default" transform="translate(70.000000, 79.000000)">
                    <mask id="mask-2" fill="white">
                        <use xlink:href="#path-1"></use>
                    </mask>
                    <use id="Mask" stroke="#CCCCCC" stroke-width="0.96" xlink:href="#path-1"></use>
                    <g id="Group-12" mask="url(#mask-2)">
                        <g transform="translate(8.418803, 34.191453)">
                            <rect id="Rectangle-Copy-16" fill="#CCCCCC" x="2.7533531e-13" y="-2.23998597e-12" width="18.4615385" height="12.3076923" rx="1.2"></rect>
                            <path d="M8.89979884,7.91796023 C8.81507084,8.01785925 8.7402163,8.09029277 8.63780793,8.09029277 C8.52897033,8.09029277 8.43965003,8.01974414 8.36318817,7.89668793 L7.40408558,6.19221132 C7.35816254,6.12516319 7.29731452,6.02364855 7.18732885,6.02472562 C7.07963933,6.02553343 7.01695439,6.11816218 6.97080174,6.18763374 L4.68360495,9.82061926 C4.63791153,9.89036009 4.61081694,9.97733417 4.61081694,10.0721171 C4.61081694,10.3004577 4.76879218,10.4752137 4.96327624,10.4752137 L13.4537567,10.4752137 C13.849154,10.4752137 14.0466231,10.1596297 13.8167783,9.72610563 L11.2202898,4.90294844 C11.1745964,4.83590031 11.1137484,4.73438567 11.0037627,4.73545425 C10.8958436,4.73627056 10.8331586,4.8288993 10.787006,4.89837086 L8.89979884,7.91230556 M5.70814787,4.99530792 L5.58484452,4.99907769 C5.1260734,4.99207668 4.58119658,4.76508241 4.58119658,3.73189493 C4.58119658,2.70570846 5.1201034,2.47898345 5.56968992,2.47521368 L5.70194826,2.47898345 C6.16370439,2.49325474 6.71478081,2.71997975 6.71478081,3.74266571 C6.71478081,4.76131263 6.166919,4.98830691 5.70814787,4.99530792" id="icn_image" fill="#777777"></path>
                        </g>
                    </g>
                    <g id="Group-12-Copy" mask="url(#mask-2)">
                        <g transform="translate(30.418803, 34.191453)">
                            <rect id="Rectangle-Copy-16" fill="#CCCCCC" x="2.7533531e-13" y="-2.23998597e-12" width="18.4615385" height="12.3076923" rx="1.2"></rect>
                            <path d="M8.89979884,7.91796023 C8.81507084,8.01785925 8.7402163,8.09029277 8.63780793,8.09029277 C8.52897033,8.09029277 8.43965003,8.01974414 8.36318817,7.89668793 L7.40408558,6.19221132 C7.35816254,6.12516319 7.29731452,6.02364855 7.18732885,6.02472562 C7.07963933,6.02553343 7.01695439,6.11816218 6.97080174,6.18763374 L4.68360495,9.82061926 C4.63791153,9.89036009 4.61081694,9.97733417 4.61081694,10.0721171 C4.61081694,10.3004577 4.76879218,10.4752137 4.96327624,10.4752137 L13.4537567,10.4752137 C13.849154,10.4752137 14.0466231,10.1596297 13.8167783,9.72610563 L11.2202898,4.90294844 C11.1745964,4.83590031 11.1137484,4.73438567 11.0037627,4.73545425 C10.8958436,4.73627056 10.8331586,4.8288993 10.787006,4.89837086 L8.89979884,7.91230556 M5.70814787,4.99530792 L5.58484452,4.99907769 C5.1260734,4.99207668 4.58119658,4.76508241 4.58119658,3.73189493 C4.58119658,2.70570846 5.1201034,2.47898345 5.56968992,2.47521368 L5.70194826,2.47898345 C6.16370439,2.49325474 6.71478081,2.71997975 6.71478081,3.74266571 C6.71478081,4.76131263 6.166919,4.98830691 5.70814787,4.99530792" id="icn_image" fill="#777777"></path>
                        </g>
                    </g>
                    <g id="Group-12-Copy-2" mask="url(#mask-2)">
                        <g transform="translate(52.418803, 34.191453)">
                            <rect id="Rectangle-Copy-16" fill="#CCCCCC" x="2.7533531e-13" y="-2.23998597e-12" width="18.4615385" height="12.3076923" rx="1.2"></rect>
                            <path d="M8.89979884,7.91796023 C8.81507084,8.01785925 8.7402163,8.09029277 8.63780793,8.09029277 C8.52897033,8.09029277 8.43965003,8.01974414 8.36318817,7.89668793 L7.40408558,6.19221132 C7.35816254,6.12516319 7.29731452,6.02364855 7.18732885,6.02472562 C7.07963933,6.02553343 7.01695439,6.11816218 6.97080174,6.18763374 L4.68360495,9.82061926 C4.63791153,9.89036009 4.61081694,9.97733417 4.61081694,10.0721171 C4.61081694,10.3004577 4.76879218,10.4752137 4.96327624,10.4752137 L13.4537567,10.4752137 C13.849154,10.4752137 14.0466231,10.1596297 13.8167783,9.72610563 L11.2202898,4.90294844 C11.1745964,4.83590031 11.1137484,4.73438567 11.0037627,4.73545425 C10.8958436,4.73627056 10.8331586,4.8288993 10.787006,4.89837086 L8.89979884,7.91230556 M5.70814787,4.99530792 L5.58484452,4.99907769 C5.1260734,4.99207668 4.58119658,4.76508241 4.58119658,3.73189493 C4.58119658,2.70570846 5.1201034,2.47898345 5.56968992,2.47521368 L5.70194826,2.47898345 C6.16370439,2.49325474 6.71478081,2.71997975 6.71478081,3.74266571 C6.71478081,4.76131263 6.166919,4.98830691 5.70814787,4.99530792" id="icn_image" fill="#777777"></path>
                        </g>
                    </g>
                    <g id="Group-12-Copy-3" mask="url(#mask-2)">
                        <g transform="translate(74.418803, 34.191453)">
                            <rect id="Rectangle-Copy-16" fill="#CCCCCC" x="2.7533531e-13" y="-2.23998597e-12" width="18.4615385" height="12.3076923" rx="1.2"></rect>
                            <path d="M8.89979884,7.91796023 C8.81507084,8.01785925 8.7402163,8.09029277 8.63780793,8.09029277 C8.52897033,8.09029277 8.43965003,8.01974414 8.36318817,7.89668793 L7.40408558,6.19221132 C7.35816254,6.12516319 7.29731452,6.02364855 7.18732885,6.02472562 C7.07963933,6.02553343 7.01695439,6.11816218 6.97080174,6.18763374 L4.68360495,9.82061926 C4.63791153,9.89036009 4.61081694,9.97733417 4.61081694,10.0721171 C4.61081694,10.3004577 4.76879218,10.4752137 4.96327624,10.4752137 L13.4537567,10.4752137 C13.849154,10.4752137 14.0466231,10.1596297 13.8167783,9.72610563 L11.2202898,4.90294844 C11.1745964,4.83590031 11.1137484,4.73438567 11.0037627,4.73545425 C10.8958436,4.73627056 10.8331586,4.8288993 10.787006,4.89837086 L8.89979884,7.91230556 M5.70814787,4.99530792 L5.58484452,4.99907769 C5.1260734,4.99207668 4.58119658,4.76508241 4.58119658,3.73189493 C4.58119658,2.70570846 5.1201034,2.47898345 5.56968992,2.47521368 L5.70194826,2.47898345 C6.16370439,2.49325474 6.71478081,2.71997975 6.71478081,3.74266571 C6.71478081,4.76131263 6.166919,4.98830691 5.70814787,4.99530792" id="icn_image" fill="#777777"></path>
                        </g>
                    </g>
                </g>
            </g>
        </g>
    </g>
</svg>