<?xml version="1.0" encoding="UTF-8"?>
<svg width="148px" height="92px" viewBox="0 0 148 92" version="1.1" xmlns="http://www.w3.org/2000/svg" xmlns:xlink="http://www.w3.org/1999/xlink">
    <title>CE2EF179-48D9-4DF4-8C9E-13662AF9BD26</title>
    <g id="UI-kit" stroke="none" stroke-width="1" fill="none" fill-rule="evenodd">
        <g id="Response-assets" transform="translate(-577.000000, -5512.000000)">
            <g id="Option-calle" transform="translate(-2.000000, 5433.000000)">
                <g id="Opcion_Calle" transform="translate(70.000000, 80.000000)">
                    <g id="Group-3" transform="translate(510.000000, 0.000000)">
                        <g id="Group-16" fill="#FFFFFF" stroke="#CCCCCC">
                            <rect id="selector_area" x="0" y="0" width="146" height="90" rx="6"></rect>
                        </g>
                        <g id="Group-2" transform="translate(12.000000, 26.000000)">
                            <g id="icn_xl_16:9_img+text_default" transform="translate(0.000000, 0.000000)">
                                <rect id="icn_area" fill="#F0EDED" x="0" y="0" width="80" height="37" rx="2"></rect>
                                <g id="Group">
                                    <rect id="img_area" fill="#CCCCCC" x="0" y="0" width="80" height="37"></rect>
                                    <path d="M33.8369456,16.9902011 C33.6821283,17.1468438 33.545352,17.2604203 33.3582286,17.2604203 C33.1593575,17.2604203 32.996149,17.1497993 32.8564358,16.9568459 L31.1039372,14.2842096 C31.0200254,14.1790775 30.9088422,14.0199015 30.7078734,14.0215904 C30.5111001,14.022857 30.3965605,14.1680998 30.3122291,14.2770319 L26.1330003,19.9735894 C26.049508,20.0829437 26,20.21932 26,20.3679405 C26,20.7259809 26.2886567,21 26.6440233,21 L42.1580625,21 C42.8805433,21 43.2413642,20.5051612 42.8213855,19.8253911 L38.0770105,12.2626326 C37.9935182,12.1575004 37.882335,11.9983245 37.6813662,12 C37.4841734,12.00128 37.3696337,12.1465228 37.2853023,12.2554549 L33.8369456,16.9813345 M28.1127852,11.9940254 L27.8816186,12 C27.0215239,11.9889043 26,11.6291476 26,9.99167822 C26,8.3653046 27.0103315,8.00597461 27.8532071,8 L28.1011623,8.00597461 C28.9668532,8.02859277 30,8.38792276 30,10.0087485 C30,11.6231729 28.9728799,11.9829297 28.1127852,11.9940254" id="icn_image" fill="#F0EDED"></path>
                                </g>
                            </g>
                            <path d="M0,27 L80,27 L80,35 C80,36.1045695 79.1045695,37 78,37 L2,37 C0.8954305,37 1.3527075e-16,36.1045695 0,35 L0,27 L0,27 Z" id="icn_area" fill="#EEEEEE"></path>
                            <rect id="Rectangle" fill="#CCCCCC" x="3" y="30" width="43" height="4" rx="1"></rect>
                        </g>
                        <g id="text" transform="translate(97.000000, 34.000000)" fill="#CCCCCC">
                            <rect id="Rectangle" x="0" y="1.8189894e-12" width="28" height="4" rx="1"></rect>
                            <rect id="Rectangle-Copy-4" x="0" y="8" width="25" height="4" rx="1"></rect>
                            <rect id="Rectangle-Copy-5" x="0" y="14" width="25" height="4" rx="1"></rect>
                            <rect id="Rectangle-Copy-6" x="0" y="20" width="25" height="4" rx="1"></rect>
                        </g>
                    </g>
                </g>
            </g>
        </g>
    </g>
</svg>