<svg xmlns="http://www.w3.org/2000/svg" width="122" height="40" viewBox="0 0 122 40">
    <g fill="none" fill-rule="evenodd">
        <rect width="36" height="40" fill="#CCC" rx="2"/>
        <path fill="#F0EDED" d="M17.329 22.525c-.164.175-.308.301-.506.301-.21 0-.382-.123-.53-.338l-1.849-2.983c-.088-.118-.206-.295-.418-.293-.208.001-.328.163-.417.285l-4.411 6.357c-.089.123-.14.275-.14.44 0 .4.304.706.679.706H26.11c.763 0 1.144-.552.7-1.31l-5.007-8.441c-.088-.118-.206-.295-.418-.294-.208.002-.329.164-.418.286l-3.64 5.274m-6.155-5.105l-.237.007C10.05 17.405 9 17.007 9 15.199c0-1.796 1.04-2.192 1.906-2.199l.255.007c.891.025 1.954.421 1.954 2.211 0 1.783-1.057 2.18-1.942 2.192"/>
    </g>
    <g fill="none" fill-rule="evenodd" transform="translate(43 0)">
        <rect width="36" height="40" fill="#CCC" rx="2"/>
        <path fill="#F0EDED" d="M17.329 22.525c-.164.175-.308.301-.506.301-.21 0-.382-.123-.53-.338l-1.849-2.983c-.088-.118-.206-.295-.418-.293-.208.001-.328.163-.417.285l-4.411 6.357c-.089.123-.14.275-.14.44 0 .4.304.706.679.706H26.11c.763 0 1.144-.552.7-1.31l-5.007-8.441c-.088-.118-.206-.295-.418-.294-.208.002-.329.164-.418.286l-3.64 5.274m-6.155-5.105l-.237.007C10.05 17.405 9 17.007 9 15.199c0-1.796 1.04-2.192 1.906-2.199l.255.007c.891.025 1.954.421 1.954 2.211 0 1.783-1.057 2.18-1.942 2.192"/>
    </g>
    <g fill="none" fill-rule="evenodd" transform="translate(86 0)">
        <rect width="36" height="40" fill="#CCC" rx="2"/>
        <path fill="#F0EDED" d="M17.329 22.525c-.164.175-.308.301-.506.301-.21 0-.382-.123-.53-.338l-1.849-2.983c-.088-.118-.206-.295-.418-.293-.208.001-.328.163-.417.285l-4.411 6.357c-.089.123-.14.275-.14.44 0 .4.304.706.679.706H26.11c.763 0 1.144-.552.7-1.31l-5.007-8.441c-.088-.118-.206-.295-.418-.294-.208.002-.329.164-.418.286l-3.64 5.274m-6.155-5.105l-.237.007C10.05 17.405 9 17.007 9 15.199c0-1.796 1.04-2.192 1.906-2.199l.255.007c.891.025 1.954.421 1.954 2.211 0 1.783-1.057 2.18-1.942 2.192"/>
    </g>
</svg>
