<svg xmlns="http://www.w3.org/2000/svg" width="28" height="28" viewBox="0 0 28 28">
    <g fill="none" fill-rule="evenodd">
        <g fill="#003245">
            <g>
                <path d="M20.443 13.992H9.85l4.781-5.06c.206-.23.189-.58-.04-.788-.222-.2-.56-.19-.77.022l-5.67 6c-.023.026-.036.06-.057.089-.018.028-.04.053-.053.085-.026.067-.041.137-.041.209v.004c.002.07.017.139.043.205.012.033.035.06.055.087.019.028.03.061.054.087l5.567 5.893c.211.224.563.235.787.024l.001-.002c.224-.211.233-.565.023-.789l-4.68-4.952h10.593c.307 0 .557-.25.557-.559 0-.307-.25-.557-.557-.555" transform="translate(-74 -2999) translate(74 2999) rotate(90 14.5 14.5)"/>
            </g>
        </g>
    </g>
</svg>
