<svg xmlns="http://www.w3.org/2000/svg" width="148" height="102" viewBox="0 0 148 102">
    <g fill="none" fill-rule="evenodd" transform="translate(1 1)">
        <path fill="#CCC" d="M78.509 49.099L68.587 43c-.302-.186-.677-.186-.979 0-.305.19-.49.532-.49.903v12.192c0 .371.187.716.49.902.3.19.677.19.979 0L78.51 50.9c.303-.188.49-.531.49-.901s-.187-.712-.49-.901h-.001zm-9.434 5.194v-8.587L76.064 50l-6.988 4.293h-.001zM82.519 35c6.246 0 5.79 6.15 5.79 6.15l.002 17.662c0 5.673-3.886 6.188-5.29 6.188-.31 0-.5-.026-.5-.026h-19.76c-6.147 0-5.756-6.127-5.756-6.127l-.003-17.73c0-5.713 4.225-6.117 5.423-6.117.199 0 .313.01.313.01S76.274 35 82.518 35zm-23.56 13.306l.002 3.482h2.93v-3.482H58.96zm0-2.083h2.931V42.76h-2.93v3.464-.001zm.002 11.119h2.93V53.87h-2.93v3.472zm24.463-5.58h2.928V48.29h-2.928v3.472zm0-5.554h2.928v-3.472h-2.928v3.473-.001zm0 11.11h2.93v-3.473h-2.93v3.472zm2.928-16.664c-.026-.56-.167-1.716-.884-2.526-.466-.528-1.154-.853-2.044-.982v3.508h2.928zm-26.038-2.98c-.314.211-1.217.852-1.33 3.004h2.906v-3.555c-.452.055-1.044.191-1.576.551zm-1.34 21.75c.043.593.217 1.67.903 2.441.466.518 1.142.841 2.015.964v-3.405h-2.92.002zm24.449 3.468c2.46-.205 2.856-2.264 2.918-3.491h-2.917v3.49h-.001z"/>
    </g>
</svg>
