<svg xmlns="http://www.w3.org/2000/svg" width="28" height="28" viewBox="0 0 28 28">
    <g fill="none" fill-rule="evenodd">
        <g fill="#003245">
            <g>
                <path d="M15.27 10.538H7.248l3.622-3.832c.155-.174.143-.44-.031-.597-.168-.151-.425-.144-.583.017L5.961 10.67c-.018.02-.028.045-.043.067-.014.021-.031.041-.041.065-.02.05-.03.104-.03.158v.003c0 .053.012.105.031.156.01.025.027.044.042.065.014.022.023.047.041.066l4.217 4.463c.16.17.426.178.595.019 0 0 .002 0 .002-.002.17-.16.176-.427.017-.597l-3.545-3.75h8.024c.232 0 .421-.19.421-.424 0-.233-.189-.422-.421-.42" transform="translate(-74 -2956) translate(74 2956) rotate(90 10.77 10.923)"/>
                <path d="M21.578 16.538h-8.023l3.621-3.832c.156-.174.143-.44-.03-.597-.169-.151-.425-.144-.583.017l-4.294 4.544c-.018.02-.028.045-.044.067-.014.021-.03.041-.04.065-.02.05-.031.104-.031.158v.003c.001.053.012.105.032.156.01.025.027.044.042.065.014.022.023.047.04.066l4.218 4.463c.16.17.426.178.595.019 0 0 .002 0 .002-.002.169-.16.176-.427.016-.597l-3.544-3.75h8.023c.233 0 .422-.19.422-.424 0-.233-.19-.422-.422-.42" transform="translate(-74 -2956) translate(74 2956) matrix(0 -1 1 0 .154 34)"/>
            </g>
        </g>
    </g>
</svg>
