<svg xmlns="http://www.w3.org/2000/svg" width="122" height="40" viewBox="0 0 122 40">
    <g fill="none" fill-rule="evenodd">
        <rect width="27" height="40" fill="#F0EDED" rx="2"/>
        <g fill="#CCC">
            <path d="M0 0H15V4H0zM0 6H13.125V10H0zM0 12H13.125V16H0zM0 18H13.125V22H0zM0 24H13.125V28H0z" transform="translate(6 6)"/>
        </g>
    </g>
    <g fill="none" fill-rule="evenodd" transform="translate(32 0)">
        <rect width="27" height="40" fill="#F0EDED" rx="2"/>
        <g fill="#CCC">
            <path d="M0 0H15V4H0zM0 6H13.125V10H0zM0 12H13.125V16H0zM0 18H13.125V22H0zM0 24H13.125V28H0z" transform="translate(6 6)"/>
        </g>
    </g>
    <g fill="none" fill-rule="evenodd" transform="translate(64 0)">
        <rect width="27" height="40" fill="#F0EDED" rx="2"/>
        <g fill="#CCC">
            <path d="M0 0H15V4H0zM0 6H13.125V10H0zM0 12H13.125V16H0zM0 18H13.125V22H0zM0 24H13.125V28H0z" transform="translate(6 6)"/>
        </g>
    </g>
    <g fill="none" fill-rule="evenodd" transform="translate(96 0)">
        <rect width="27" height="40" fill="#F0EDED" rx="2"/>
        <g fill="#CCC">
            <path d="M0 0H15V4H0zM0 6H13.125V10H0zM0 12H13.125V16H0zM0 18H13.125V22H0zM0 24H13.125V28H0z" transform="translate(6 6)"/>
        </g>
    </g>
</svg>
