<svg xmlns="http://www.w3.org/2000/svg" width="54" height="42" viewBox="0 0 54 42">
    <path fill="#CCC" fill-rule="evenodd" d="M24.986 28.574c-.49.525-.923.905-1.516.905-.63 0-1.146-.37-1.588-1.016l-5.55-8.949c-.265-.352-.617-.885-1.254-.88-.623.005-.985.491-1.252.856L.593 38.563c-.265.367-.422.823-.422 1.32 0 1.2.914 2.117 2.04 2.117h49.123c2.288 0 3.43-1.657 2.1-3.933L38.412 12.746c-.264-.352-.617-.885-1.253-.88-.624.005-.987.49-1.254.856L24.986 28.545M6.52 13.23l-.713.02C3.153 13.214 0 12.022 0 6.598 0 1.21 3.118.02 5.72 0l.764.02c2.672.075 5.86 1.265 5.86 6.634 0 5.348-3.17 6.54-5.824 6.576"/>
</svg>
