<svg xmlns="http://www.w3.org/2000/svg" width="122" height="42" viewBox="0 0 122 42">
    <g fill="none" fill-rule="evenodd" transform="translate(0 1.215)">
        <rect width="122" height="39.339" fill="#F0EDED" rx="2"/>
        <g fill="#CCC">
            <path d="M0 0H39V3.934H0zM0 5.901H35.1V9.835H0zM0 11.802H35.1V15.736H0zM0 17.702H35.1V21.636000000000003H0zM0 23.603H35.1V27.537000000000003H0z" transform="translate(6 5.9)"/>
        </g>
        <path fill="#CCC" d="M53 0h67c1.105 0 2 .895 2 2v35.339c0 1.104-.895 2-2 2H53V0z"/>
        <path fill="#F0EDED" d="M87.064 22.152c-.158.172-.298.297-.489.297-.203 0-.37-.121-.513-.333l-1.79-2.934c-.086-.115-.2-.29-.405-.288-.202.001-.319.16-.405.28l-4.27 6.253c-.086.12-.137.27-.137.433 0 .393.295.694.658.694h15.855c.738 0 1.107-.543.678-1.29l-4.849-8.3c-.085-.116-.198-.29-.404-.289-.201.002-.318.161-.405.28l-3.524 5.188m-5.96-5.02l-.23.006c-.857-.012-1.874-.403-1.874-2.181 0-1.766 1.006-2.156 1.846-2.163l.247.007c.862.024 1.891.414 1.891 2.175 0 1.753-1.023 2.143-1.88 2.155"/>
    </g>
</svg>
