<?xml version="1.0" encoding="UTF-8"?>
<svg width="146px" height="90px" viewBox="0 0 146 90" version="1.1" xmlns="http://www.w3.org/2000/svg" xmlns:xlink="http://www.w3.org/1999/xlink">
    <title>594E64CB-E3F5-4304-B9EC-8E95E0DE0BBD</title>
    <g id="UI-kit" stroke="none" stroke-width="1" fill="none" fill-rule="evenodd">
        <g id="Response-assets" transform="translate(-408.000000, -5729.000000)">
            <g id="Option-calle" transform="translate(-2.000000, 5433.000000)">
                <g id="Opcion_Calle" transform="translate(70.000000, 295.000000)">
                    <g id="option/calle/imagen+etiqueta/selected" transform="translate(340.000000, 1.000000)">
                        <g id="Group" transform="translate(0.000000, -0.000000)">
                            <g id="icn_xl_img_default" transform="translate(0.000000, -0.000000)">
                                <rect id="selector_area" fill="#BAEFFF" x="0" y="-6.52539247e-15" width="146" height="90" rx="6"></rect>
                                <g transform="translate(33.000000, 27.000000)">
                                    <rect id="icn_area" fill="#2593B5" x="0" y="-6.55885602e-15" width="80" height="36" rx="2"></rect>
                                    <path d="M0,26 L80,26 L80,34 C80,35.1045695 79.1045695,36 78,36 L2,36 C0.8954305,36 1.3527075e-16,35.1045695 0,34 L0,26 L0,26 Z" id="icn_area" fill="#62C6E5"></path>
                                    <rect id="Rectangle" fill="#2593B5" x="4" y="29" width="62" height="4" rx="1"></rect>
                                </g>
                            </g>
                            <path d="M72.2979424,43.9902011 C72.1340182,44.1468438 71.9891962,44.2604203 71.7910656,44.2604203 C71.5804962,44.2604203 71.4076872,44.1497993 71.2597556,43.9568459 L69.4041688,41.2842096 C69.315321,41.1790775 69.1975976,41.0199015 68.9848071,41.0215904 C68.7764589,41.022857 68.6551817,41.1680998 68.5658896,41.2770319 L64.1408238,46.9735894 C64.0524202,47.0829437 64,47.21932 64,47.3679405 C64,47.7259809 64.3056365,48 64.681907,48 L81.1085367,48 C81.8735165,48 82.2555621,47.5051612 81.8108788,46.8253911 L76.7874229,39.2626326 C76.6990193,39.1575004 76.5812959,38.9983245 76.3685054,39 C76.159713,39.00128 76.0384357,39.1465228 75.9491437,39.2554549 L72.2979424,43.9813345 M66.1127852,38.9940254 L65.8816186,39 C65.0215239,38.9889043 64,38.6291476 64,36.9916782 C64,35.3653046 65.0103315,35.0059746 65.8532071,35 L66.1011623,35.0059746 C66.9668532,35.0285928 68,35.3879228 68,37.0087485 C68,38.6231729 66.9728799,38.9829297 66.1127852,38.9940254" id="icn_image" fill="#BAEFFF"></path>
                        </g>
                    </g>
                </g>
            </g>
        </g>
    </g>
</svg>