<svg xmlns="http://www.w3.org/2000/svg" width="18" height="18" viewBox="0 0 18 18">
    <path fill="#FF4848" fill-rule="evenodd" d="M9.487 12.985V6.418c0-.27-.218-.487-.486-.487-.269 0-.487.218-.487.487v6.567c0 .269.218.487.487.487.268 0 .486-.218.486-.487M9 14.445c-.268 0-.486.218-.486.486 0 .269.217.487.486.487.27 0 .487-.218.487-.487 0-.27-.218-.487-.487-.486M16.673 18l-15.346-.058C.597 17.937.008 17.35 0 16.634c-.003-.22.05-.44.152-.635L7.869.736c.149-.307.418-.545.755-.663.637-.22 1.339.072 1.632.677l7.605 15.332.01.022.034.076c.113.277.127.585.037.88-.099.332-.333.618-.642.783-.192.103-.409.157-.627.157"/>
</svg>
