<svg xmlns="http://www.w3.org/2000/svg" width="18" height="18" viewBox="0 0 18 18">
    <path fill="#019DF4" fill-rule="evenodd" d="M16.617 12.882c.61-.192.944-.827.746-1.417-.199-.591-.854-.914-1.463-.723-.61.193-.944.828-.746 1.419.199.59.854.913 1.463.721m-8.266 4.655c.377.502 1.104.613 1.623.248.518-.365.633-1.069.255-1.571-.376-.503-1.102-.614-1.621-.25-.52.366-.634 1.07-.257 1.573M.803 11.15c-.377.503-.262 1.206.257 1.571.519.366 1.245.254 1.621-.249.378-.502.263-1.206-.256-1.57-.52-.365-1.245-.254-1.622.248m4.201-9.409c-.61-.191-1.264.132-1.463.723-.198.59.136 1.225.746 1.417.61.192 1.265-.131 1.463-.722.198-.591-.136-1.226-.746-1.418m9.513 1.07c0-.621-.521-1.124-1.162-1.124-.642 0-1.161.504-1.161 1.125 0 .62.52 1.125 1.161 1.125.642 0 1.162-.504 1.162-1.126m3.082 4.473c.305-.096.472-.413.373-.709-.1-.295-.427-.457-.731-.36-.306.095-.472.413-.373.708.099.295.427.457.731.36m-4.133 9.36c.189.25.552.306.811.123.26-.182.317-.534.129-.785-.189-.251-.552-.307-.811-.124-.26.182-.318.534-.13.786m-9.87-.662c-.188.251-.131.603.129.786.259.182.622.127.81-.125.189-.251.131-.603-.128-.785-.26-.183-.623-.127-.811.124M.76 6.215c-.305-.096-.632.066-.732.361-.099.296.069.613.373.709.306.096.633-.066.732-.362.099-.295-.068-.612-.373-.708M9.29.563C9.29.25 9.03 0 8.71 0c-.321 0-.58.252-.58.563 0 .31.259.562.58.562.32 0 .58-.252.58-.562m4.604 8.916c.914-.288 1.415-1.24 1.118-2.126-.298-.886-1.28-1.37-2.195-1.082-.915.287-1.415 1.24-1.118 2.125.297.887 1.28 1.371 2.195 1.083m-3.69 3.888c.566.754 1.655.92 2.433.373.778-.548.951-1.603.385-2.357-.565-.754-1.655-.921-2.433-.373-.778.548-.95 1.603-.385 2.357m-5.226-1.984c-.565.754-.392 1.81.386 2.357.778.548 1.868.38 2.432-.373.566-.754.393-1.81-.385-2.358-.779-.547-1.868-.38-2.433.374m.205-5.113c-.915-.287-1.897.197-2.194 1.084-.297.886.204 1.838 1.119 2.125.914.288 1.897-.197 2.194-1.083.297-.886-.204-1.838-1.119-2.126m5.85-1.208c0 .932-.78 1.687-1.743 1.688-.961 0-1.741-.755-1.741-1.687s.78-1.688 1.741-1.688c.963 0 1.743.755 1.743 1.687"/>
</svg>
