<svg xmlns="http://www.w3.org/2000/svg" width="74" height="52" viewBox="0 0 74 52">
    <path fill="#0B2739" fill-rule="evenodd" d="M70.475 3c1.958 1.934 2.937 4.727 2.937 8.348v22.76c0 3.632-.98 6.449-2.937 8.413-1.985 2.022-4.983 3.058-8.861 3.058H11.832c-3.885 0-6.852-1.009-8.868-3.028-1.927-1.954-2.9-4.787-2.9-8.408V11.382c0-3.628.976-6.424 2.9-8.35C4.952 1.04 7.95.027 11.832.027L61.614 0c3.878 0 6.876 1.01 8.864 2.998L70.475 3zm-.122 31.109v-22.76c0-2.793-.7-4.932-2.047-6.271C66.9 3.686 64.642 2.97 61.614 2.97L11.832 3c-3.029 0-5.292.713-6.663 2.108-1.376 1.337-2.049 3.448-2.049 6.27v22.765c0 2.823.673 4.96 2.05 6.331C6.575 41.9 8.8 42.61 11.831 42.61h49.782c3.028 0 5.255-.743 6.659-2.165 1.38-1.37 2.08-3.512 2.08-6.332v-.003zm3.059 16.404c0 .832-.673 1.487-1.53 1.487H1.53C.697 52.01.015 51.345 0 50.513c.024-.826.7-1.483 1.53-1.483h70.352c.857 0 1.53.679 1.53 1.483z"/>
</svg>
