<svg xmlns="http://www.w3.org/2000/svg" xmlns:xlink="http://www.w3.org/1999/xlink" width="80" height="56" viewBox="0 0 80 56">
    <defs>
        <rect id="1ullppxjla" width="80" height="56" x="0" y="0" rx="5.76"/>
    </defs>
    <g fill="none" fill-rule="evenodd">
        <g>
            <g>
                <g transform="translate(-451 -5295) translate(0 5216) translate(451 79)">
                    <mask id="5ofv0ftgub" fill="#fff">
                        <use xlink:href="#1ullppxjla"/>
                    </mask>
                    <use fill="#2593B5" xlink:href="#1ullppxjla"/>
                    <g mask="url(#5ofv0ftgub)">
                        <g transform="translate(8.419 12.306)">
                            <rect width="18.462" height="12.424" fill="#BAEFFF" rx="1.2"/>
                            <path fill="#2593B5" d="M8.9 7.992c-.085.101-.16.174-.262.174-.109 0-.198-.07-.275-.195l-.959-1.72c-.046-.068-.107-.17-.217-.17-.107.001-.17.095-.216.165L4.684 9.913c-.046.07-.073.158-.073.254 0 .23.158.407.352.407h8.49c.396 0 .594-.319.364-.756L11.22 4.949c-.045-.068-.106-.17-.216-.169-.108 0-.17.094-.217.164L8.9 7.987M5.708 5.042l-.123.004C5.126 5.04 4.58 4.81 4.58 3.767c0-1.036.54-1.265.989-1.268l.132.003c.462.015 1.013.244 1.013 1.276 0 1.028-.548 1.257-1.007 1.264"/>
                        </g>
                    </g>
                    <g mask="url(#5ofv0ftgub)">
                        <g transform="translate(30.419 12.306)">
                            <rect width="18.462" height="12.424" fill="#BAEFFF" rx="1.2"/>
                            <path fill="#2593B5" d="M8.9 7.992c-.085.101-.16.174-.262.174-.109 0-.198-.07-.275-.195l-.959-1.72c-.046-.068-.107-.17-.217-.17-.107.001-.17.095-.216.165L4.684 9.913c-.046.07-.073.158-.073.254 0 .23.158.407.352.407h8.49c.396 0 .594-.319.364-.756L11.22 4.949c-.045-.068-.106-.17-.216-.169-.108 0-.17.094-.217.164L8.9 7.987M5.708 5.042l-.123.004C5.126 5.04 4.58 4.81 4.58 3.767c0-1.036.54-1.265.989-1.268l.132.003c.462.015 1.013.244 1.013 1.276 0 1.028-.548 1.257-1.007 1.264"/>
                        </g>
                    </g>
                    <g mask="url(#5ofv0ftgub)">
                        <g transform="translate(52.419 12.306)">
                            <rect width="18.462" height="12.424" fill="#BAEFFF" rx="1.2"/>
                            <path fill="#2593B5" d="M8.9 7.992c-.085.101-.16.174-.262.174-.109 0-.198-.07-.275-.195l-.959-1.72c-.046-.068-.107-.17-.217-.17-.107.001-.17.095-.216.165L4.684 9.913c-.046.07-.073.158-.073.254 0 .23.158.407.352.407h8.49c.396 0 .594-.319.364-.756L11.22 4.949c-.045-.068-.106-.17-.216-.169-.108 0-.17.094-.217.164L8.9 7.987M5.708 5.042l-.123.004C5.126 5.04 4.58 4.81 4.58 3.767c0-1.036.54-1.265.989-1.268l.132.003c.462.015 1.013.244 1.013 1.276 0 1.028-.548 1.257-1.007 1.264"/>
                        </g>
                    </g>
                    <g mask="url(#5ofv0ftgub)">
                        <g transform="translate(74.419 12.306)">
                            <rect width="18.462" height="12.424" fill="#BAEFFF" rx="1.2"/>
                            <path fill="#2593B5" d="M8.9 7.992c-.085.101-.16.174-.262.174-.109 0-.198-.07-.275-.195l-.959-1.72c-.046-.068-.107-.17-.217-.17-.107.001-.17.095-.216.165L4.684 9.913c-.046.07-.073.158-.073.254 0 .23.158.407.352.407h8.49c.396 0 .594-.319.364-.756L11.22 4.949c-.045-.068-.106-.17-.216-.169-.108 0-.17.094-.217.164L8.9 7.987M5.708 5.042l-.123.004C5.126 5.04 4.58 4.81 4.58 3.767c0-1.036.54-1.265.989-1.268l.132.003c.462.015 1.013.244 1.013 1.276 0 1.028-.548 1.257-1.007 1.264"/>
                        </g>
                    </g>
                </g>
            </g>
        </g>
    </g>
</svg>
