<?xml version="1.0" encoding="UTF-8"?>
<svg width="80px" height="56px" viewBox="0 0 80 56" version="1.1" xmlns="http://www.w3.org/2000/svg" xmlns:xlink="http://www.w3.org/1999/xlink">
    <title>867968F4-259C-4CAE-A77C-75E6D7E44413</title>
    <defs>
        <rect id="path-1" x="0" y="0" width="80" height="56" rx="5.76"></rect>
    </defs>
    <g id="UI-kit" stroke="none" stroke-width="1" fill="none" fill-rule="evenodd">
        <g id="Response-assets" transform="translate(-717.000000, -5295.000000)">
            <g id="option-position" transform="translate(0.000000, 5216.000000)">
                <g id="Group-14" transform="translate(717.000000, 79.000000)">
                    <mask id="mask-2" fill="white">
                        <use xlink:href="#path-1"></use>
                    </mask>
                    <use id="Mask" fill="#43BEE4" xlink:href="#path-1"></use>
                    <g id="Group-12" mask="url(#mask-2)">
                        <g transform="translate(8.418803, 12.306196)">
                            <rect id="Rectangle-Copy-16" fill="#BAEFFF" x="2.7533531e-13" y="-2.2610682e-12" width="18.4615385" height="12.4235294" rx="1.2"></rect>
                            <path d="M8.89979884,7.9924822 C8.81507084,8.09332145 8.7402163,8.16643671 8.63780793,8.16643671 C8.52897033,8.16643671 8.43965003,8.09522408 8.36318817,7.9710097 L7.40408558,6.25049096 C7.35816254,6.18281178 7.29731452,6.08034171 7.18732885,6.08142892 C7.07963933,6.08224434 7.01695439,6.17574488 6.97080174,6.24587029 L4.68360495,9.91304862 C4.63791153,9.98344583 4.61081694,10.0712385 4.61081694,10.1669135 C4.61081694,10.3974032 4.76879218,10.5738039 4.96327624,10.5738039 L13.4537567,10.5738039 C13.849154,10.5738039 14.0466231,10.2552497 13.8167783,9.81764545 L11.2202898,4.94909384 C11.1745964,4.88141467 11.1137484,4.7789446 11.0037627,4.78002323 C10.8958436,4.78084722 10.8331586,4.87434777 10.787006,4.94447318 L8.89979884,7.98677432 M5.70814787,5.04232258 L5.58484452,5.04612784 C5.1260734,5.03906094 4.58119658,4.80993024 4.58119658,3.76701864 C4.58119658,2.73117395 5.1201034,2.50231506 5.56968992,2.4985098 L5.70194826,2.50231506 C6.16370439,2.51672067 6.71478081,2.74557956 6.71478081,3.7778908 C6.71478081,4.80612499 6.166919,5.03525568 5.70814787,5.04232258" id="icn_image" fill="#2593B5"></path>
                        </g>
                    </g>
                    <g id="Group-12-Copy-4" mask="url(#mask-2)">
                        <g transform="translate(30.418803, 12.306196)">
                            <rect id="Rectangle-Copy-16" fill="#BAEFFF" x="2.7533531e-13" y="-2.2610682e-12" width="18.4615385" height="12.4235294" rx="1.2"></rect>
                            <path d="M8.89979884,7.9924822 C8.81507084,8.09332145 8.7402163,8.16643671 8.63780793,8.16643671 C8.52897033,8.16643671 8.43965003,8.09522408 8.36318817,7.9710097 L7.40408558,6.25049096 C7.35816254,6.18281178 7.29731452,6.08034171 7.18732885,6.08142892 C7.07963933,6.08224434 7.01695439,6.17574488 6.97080174,6.24587029 L4.68360495,9.91304862 C4.63791153,9.98344583 4.61081694,10.0712385 4.61081694,10.1669135 C4.61081694,10.3974032 4.76879218,10.5738039 4.96327624,10.5738039 L13.4537567,10.5738039 C13.849154,10.5738039 14.0466231,10.2552497 13.8167783,9.81764545 L11.2202898,4.94909384 C11.1745964,4.88141467 11.1137484,4.7789446 11.0037627,4.78002323 C10.8958436,4.78084722 10.8331586,4.87434777 10.787006,4.94447318 L8.89979884,7.98677432 M5.70814787,5.04232258 L5.58484452,5.04612784 C5.1260734,5.03906094 4.58119658,4.80993024 4.58119658,3.76701864 C4.58119658,2.73117395 5.1201034,2.50231506 5.56968992,2.4985098 L5.70194826,2.50231506 C6.16370439,2.51672067 6.71478081,2.74557956 6.71478081,3.7778908 C6.71478081,4.80612499 6.166919,5.03525568 5.70814787,5.04232258" id="icn_image" fill="#2593B5"></path>
                        </g>
                    </g>
                    <g id="Group-12-Copy-5" mask="url(#mask-2)">
                        <g transform="translate(52.418803, 12.306196)">
                            <rect id="Rectangle-Copy-16" fill="#BAEFFF" x="2.7533531e-13" y="-2.2610682e-12" width="18.4615385" height="12.4235294" rx="1.2"></rect>
                            <path d="M8.89979884,7.9924822 C8.81507084,8.09332145 8.7402163,8.16643671 8.63780793,8.16643671 C8.52897033,8.16643671 8.43965003,8.09522408 8.36318817,7.9710097 L7.40408558,6.25049096 C7.35816254,6.18281178 7.29731452,6.08034171 7.18732885,6.08142892 C7.07963933,6.08224434 7.01695439,6.17574488 6.97080174,6.24587029 L4.68360495,9.91304862 C4.63791153,9.98344583 4.61081694,10.0712385 4.61081694,10.1669135 C4.61081694,10.3974032 4.76879218,10.5738039 4.96327624,10.5738039 L13.4537567,10.5738039 C13.849154,10.5738039 14.0466231,10.2552497 13.8167783,9.81764545 L11.2202898,4.94909384 C11.1745964,4.88141467 11.1137484,4.7789446 11.0037627,4.78002323 C10.8958436,4.78084722 10.8331586,4.87434777 10.787006,4.94447318 L8.89979884,7.98677432 M5.70814787,5.04232258 L5.58484452,5.04612784 C5.1260734,5.03906094 4.58119658,4.80993024 4.58119658,3.76701864 C4.58119658,2.73117395 5.1201034,2.50231506 5.56968992,2.4985098 L5.70194826,2.50231506 C6.16370439,2.51672067 6.71478081,2.74557956 6.71478081,3.7778908 C6.71478081,4.80612499 6.166919,5.03525568 5.70814787,5.04232258" id="icn_image" fill="#2593B5"></path>
                        </g>
                    </g>
                    <g id="Group-12-Copy-6" mask="url(#mask-2)">
                        <g transform="translate(74.418803, 12.306196)">
                            <rect id="Rectangle-Copy-16" fill="#BAEFFF" x="2.7533531e-13" y="-2.2610682e-12" width="18.4615385" height="12.4235294" rx="1.2"></rect>
                            <path d="M8.89979884,7.9924822 C8.81507084,8.09332145 8.7402163,8.16643671 8.63780793,8.16643671 C8.52897033,8.16643671 8.43965003,8.09522408 8.36318817,7.9710097 L7.40408558,6.25049096 C7.35816254,6.18281178 7.29731452,6.08034171 7.18732885,6.08142892 C7.07963933,6.08224434 7.01695439,6.17574488 6.97080174,6.24587029 L4.68360495,9.91304862 C4.63791153,9.98344583 4.61081694,10.0712385 4.61081694,10.1669135 C4.61081694,10.3974032 4.76879218,10.5738039 4.96327624,10.5738039 L13.4537567,10.5738039 C13.849154,10.5738039 14.0466231,10.2552497 13.8167783,9.81764545 L11.2202898,4.94909384 C11.1745964,4.88141467 11.1137484,4.7789446 11.0037627,4.78002323 C10.8958436,4.78084722 10.8331586,4.87434777 10.787006,4.94447318 L8.89979884,7.98677432 M5.70814787,5.04232258 L5.58484452,5.04612784 C5.1260734,5.03906094 4.58119658,4.80993024 4.58119658,3.76701864 C4.58119658,2.73117395 5.1201034,2.50231506 5.56968992,2.4985098 L5.70194826,2.50231506 C6.16370439,2.51672067 6.71478081,2.74557956 6.71478081,3.7778908 C6.71478081,4.80612499 6.166919,5.03525568 5.70814787,5.04232258" id="icn_image" fill="#2593B5"></path>
                        </g>
                    </g>
                </g>
            </g>
        </g>
    </g>
</svg>