<svg xmlns="http://www.w3.org/2000/svg" width="41" height="43" viewBox="0 0 41 43" class="PlayIcon">
    <g fill="none" fill-rule="evenodd">
        <g fill="#BAEFFF" fill-rule="nonzero">
            <g>
                <g>
                    <path d="M98.431 83.2c-3.397-3.435-8.339-5.176-14.694-5.176s-11.296 1.741-14.688 5.181c-3.522 3.566-5.306 8.89-5.306 15.825 0 6.934 1.784 12.253 5.306 15.819 3.392 3.434 8.333 5.175 14.688 5.175s11.297-1.741 14.694-5.175c3.522-3.566 5.312-8.885 5.312-15.819 0-6.934-1.784-12.265-5.312-15.83zm-6.36 16.674l-13.537 8.202c-.473.287-1.078.114-1.351-.383-.086-.155-.131-.335-.131-.514V90.768c0-.575.444-1.035.991-1.035.171 0 .342.047.49.137l13.537 8.203c.473.287.633.921.36 1.418-.086.161-.206.287-.36.383z" transform="translate(-1030 -437) translate(978 374) translate(-11.583 -15)"/>
                </g>
            </g>
        </g>
    </g>
</svg>
