<svg xmlns="http://www.w3.org/2000/svg" width="5" height="16" viewBox="0 0 5 16">
    <g fill="#FFF" fill-rule="evenodd">
        <path d="M3.294 13.176c0 .912-.742 1.648-1.647 1.648-.911 0-1.647-.736-1.647-1.648 0-.91.736-1.647 1.647-1.647.905 0 1.647.736 1.647 1.647M3.294 7.412c0 .911-.742 1.647-1.647 1.647C.736 9.059 0 8.323 0 7.412 0 6.5.736 5.765 1.647 5.765c.905 0 1.647.735 1.647 1.647M3.294 1.647c0 .911-.742 1.647-1.647 1.647C.736 3.294 0 2.558 0 1.647S.736 0 1.647 0c.905 0 1.647.736 1.647 1.647" transform="translate(.353 .588)"/>
    </g>
</svg>
