<svg xmlns="http://www.w3.org/2000/svg" width="122" height="40" viewBox="0 0 122 40">
    <defs>
        <filter id="bbtcyf5lja">
            <feColorMatrix in="SourceGraphic" values="0 0 0 0 0.800000 0 0 0 0 0.800000 0 0 0 0 0.800000 0 0 0 1.000000 0"/>
        </filter>
    </defs>
    <g fill="none" fill-rule="evenodd">
        <g>
            <g>
                <g transform="translate(-107 -4219) translate(107 4219)">
                    <rect width="122" height="40" fill="#EEE" rx="2"/>
                    <path fill="#CCC" d="M0 0h51.33c1.105 0 2 .895 2 2v36c0 1.105-.895 2-2 2H0V0z" transform="matrix(-1 0 0 1 53.33 0)"/>
                    <path fill="#EEE" d="M26.329 22.525c-.164.175-.308.301-.506.301-.21 0-.382-.123-.53-.338l-1.849-2.983c-.088-.118-.206-.295-.418-.293-.208.001-.328.163-.417.285l-4.411 6.357c-.089.123-.14.275-.14.44 0 .4.304.706.679.706H35.11c.763 0 1.144-.552.7-1.31l-5.007-8.441c-.088-.118-.206-.295-.418-.294-.208.002-.329.164-.418.286l-3.64 5.274m-6.155-5.105l-.237.007c-.885-.012-1.936-.41-1.936-2.218 0-1.796 1.04-2.192 1.906-2.199l.255.007c.891.025 1.954.421 1.954 2.211 0 1.783-1.057 2.18-1.942 2.192"/>
                </g>
                <path fill="#CCC" d="M96 30v4H60v-4h36zm0-6v4H60v-4h36zm0-6v4H60v-4h36zm0-6v4H60v-4h36zm4-6v4H60V6h40z" transform="translate(-107 -4219) translate(107 4219)"/>
            </g>
        </g>
    </g>
</svg>
