<svg xmlns="http://www.w3.org/2000/svg" width="146" height="90" viewBox="0 0 146 90">
    <g fill="none" fill-rule="evenodd">
        <g>
            <g>
                <g>
                    <g>
                        <g transform="translate(-408 -5944) translate(-2 5433) translate(70 510) translate(340 1)">
                            <rect width="146" height="90" fill="#43BEE4" rx="6"/>
                            <g transform="translate(33 27)">
                                <rect width="80" height="36" fill="#BAEFFF" rx="2"/>
                                <path fill="#43BEE4" d="M39.298 16.99c-.164.157-.309.27-.507.27-.21 0-.383-.11-.531-.303l-1.856-2.673c-.089-.105-.206-.264-.42-.262-.208 0-.329.146-.418.255l-4.425 5.697c-.089.109-.141.245-.141.394 0 .358.306.632.682.632h16.427c.765 0 1.147-.495.702-1.175l-5.024-7.562c-.088-.105-.206-.265-.418-.263-.21.001-.33.147-.42.255l-3.651 4.726m-6.185-4.987l-.231.006c-.86-.011-1.882-.37-1.882-2.008C31 8.365 32.01 8.006 32.853 8l.248.006c.866.023 1.899.382 1.899 2.003 0 1.614-1.027 1.974-1.887 1.985"/>
                            </g>
                            <path fill="#62C6E5" d="M33 53h80v8c0 1.105-.895 2-2 2H35c-1.105 0-2-.895-2-2v-8z"/>
                            <rect width="62" height="4" x="37" y="56" fill="#BAEFFF" rx="1"/>
                        </g>
                    </g>
                </g>
            </g>
        </g>
    </g>
</svg>
