<svg xmlns="http://www.w3.org/2000/svg" width="8" height="13" viewBox="0 0 8 13">
    <g fill="none" fill-rule="evenodd">
        <g fill="#777">
            <g>
                <g>
                    <g>
                        <g>
                            <path d="M6.545 10.111c.804 0 1.455.647 1.455 1.445C8 12.353 7.349 13 6.545 13c-.803 0-1.454-.647-1.454-1.444 0-.798.651-1.445 1.454-1.445zm-5.09 0c.803 0 1.454.647 1.454 1.445 0 .797-.651 1.444-1.454 1.444C.65 13 0 12.353 0 11.556c0-.798.651-1.445 1.455-1.445zm5.09-5.055C7.35 5.056 8 5.702 8 6.5c0 .798-.651 1.444-1.455 1.444-.803 0-1.454-.646-1.454-1.444 0-.798.651-1.444 1.454-1.444zm-5.09 0c.803 0 1.454.646 1.454 1.444 0 .798-.651 1.444-1.454 1.444C.65 7.944 0 7.298 0 6.5c0-.798.651-1.444 1.455-1.444zM6.545 0C7.35 0 8 .647 8 1.444c0 .798-.651 1.445-1.455 1.445-.803 0-1.454-.647-1.454-1.445C5.09.647 5.742 0 6.545 0zm-5.09 0c.803 0 1.454.647 1.454 1.444 0 .798-.651 1.445-1.454 1.445C.65 2.889 0 2.242 0 1.444 0 .647.651 0 1.455 0z" transform="translate(-223 -2059) translate(132 656) translate(1 1373) translate(24 25) translate(66 5)"/>
                        </g>
                    </g>
                </g>
            </g>
        </g>
    </g>
</svg>
