<svg xmlns="http://www.w3.org/2000/svg" width="148" height="102" viewBox="0 0 148 102">
    <g fill="none" fill-rule="evenodd" transform="translate(1 1)">
        <rect width="146" height="100" fill="#FFF" stroke="#CCC" rx="6"/>
        <g transform="translate(12 30)">
            <rect width="27" height="40" fill="#CCC" rx="2"/>
            <path fill="#F0EDED" d="M13.329 22.525c-.164.175-.308.301-.506.301-.21 0-.382-.123-.53-.338l-1.849-2.983c-.088-.118-.206-.295-.418-.293-.208.001-.328.163-.417.285l-4.411 6.357c-.089.123-.14.275-.14.44 0 .4.304.706.679.706H22.11c.763 0 1.144-.552.7-1.31l-5.007-8.441c-.088-.118-.206-.295-.418-.294-.208.002-.329.164-.418.286l-3.64 5.274M7.174 17.41l-.237.007C6.05 17.405 5 17.007 5 15.199 5 13.403 6.04 13.007 6.906 13l.255.007c.891.025 1.954.421 1.954 2.211 0 1.783-1.057 2.18-1.942 2.192"/>
        </g>
        <g transform="translate(44 30)">
            <rect width="27" height="40" fill="#CCC" rx="2"/>
            <path fill="#F0EDED" d="M13.329 22.525c-.164.175-.308.301-.506.301-.21 0-.382-.123-.53-.338l-1.849-2.983c-.088-.118-.206-.295-.418-.293-.208.001-.328.163-.417.285l-4.411 6.357c-.089.123-.14.275-.14.44 0 .4.304.706.679.706H22.11c.763 0 1.144-.552.7-1.31l-5.007-8.441c-.088-.118-.206-.295-.418-.294-.208.002-.329.164-.418.286l-3.64 5.274M7.174 17.41l-.237.007C6.05 17.405 5 17.007 5 15.199 5 13.403 6.04 13.007 6.906 13l.255.007c.891.025 1.954.421 1.954 2.211 0 1.783-1.057 2.18-1.942 2.192"/>
        </g>
        <g transform="translate(75 30)">
            <rect width="27" height="40" fill="#CCC" rx="2"/>
            <path fill="#F0EDED" d="M13.329 22.525c-.164.175-.308.301-.506.301-.21 0-.382-.123-.53-.338l-1.849-2.983c-.088-.118-.206-.295-.418-.293-.208.001-.328.163-.417.285l-4.411 6.357c-.089.123-.14.275-.14.44 0 .4.304.706.679.706H22.11c.763 0 1.144-.552.7-1.31l-5.007-8.441c-.088-.118-.206-.295-.418-.294-.208.002-.329.164-.418.286l-3.64 5.274M7.174 17.41l-.237.007C6.05 17.405 5 17.007 5 15.199 5 13.403 6.04 13.007 6.906 13l.255.007c.891.025 1.954.421 1.954 2.211 0 1.783-1.057 2.18-1.942 2.192"/>
        </g>
        <g transform="translate(107 30)">
            <rect width="27" height="40" fill="#CCC" rx="2"/>
            <path fill="#F0EDED" d="M13.329 22.525c-.164.175-.308.301-.506.301-.21 0-.382-.123-.53-.338l-1.849-2.983c-.088-.118-.206-.295-.418-.293-.208.001-.328.163-.417.285l-4.411 6.357c-.089.123-.14.275-.14.44 0 .4.304.706.679.706H22.11c.763 0 1.144-.552.7-1.31l-5.007-8.441c-.088-.118-.206-.295-.418-.294-.208.002-.329.164-.418.286l-3.64 5.274M7.174 17.41l-.237.007C6.05 17.405 5 17.007 5 15.199 5 13.403 6.04 13.007 6.906 13l.255.007c.891.025 1.954.421 1.954 2.211 0 1.783-1.057 2.18-1.942 2.192"/>
        </g>
    </g>
</svg>
