<svg xmlns="http://www.w3.org/2000/svg" width="122" height="41" viewBox="0 0 122 41">
    <g fill="none" fill-rule="evenodd" transform="translate(0 .754)">
        <rect width="122" height="38.724" fill="#F0EDED" rx="2"/>
        <g fill="#CCC">
            <path d="M0 0H38.73V3.872H0zM0 5.809H34.857V9.681000000000001H0zM0 11.617H34.857V15.489H0zM0 17.426H34.857V21.298H0zM0 23.235H34.857V27.107H0z" transform="translate(6 5.809)"/>
        </g>
        <g>
            <path fill="#CCC" d="M0 0h49c1.105 0 2 .895 2 2v34.724c0 1.105-.895 2-2 2H0V0z" transform="translate(71)"/>
            <path fill="#F0EDED" d="M25.064 21.806c-.158.17-.298.292-.489.292-.203 0-.37-.12-.513-.328l-1.79-2.887c-.086-.114-.2-.286-.405-.284-.202.001-.319.158-.405.276l-4.27 6.155c-.086.118-.137.265-.137.426 0 .387.295.683.658.683h15.855c.738 0 1.107-.535.678-1.27l-4.849-8.17c-.085-.114-.198-.286-.404-.284-.201.001-.318.158-.405.276l-3.524 5.106m-5.96-4.942l-.23.006C18.017 16.85 17 16.465 17 14.714c0-1.738 1.006-2.122 1.846-2.129l.247.007c.862.024 1.891.408 1.891 2.14 0 1.726-1.023 2.111-1.88 2.123" transform="translate(71)"/>
        </g>
    </g>
</svg>
