<svg xmlns="http://www.w3.org/2000/svg" width="122" height="42" viewBox="0 0 122 42">
    <g fill="none" fill-rule="evenodd" transform="translate(0 1.231)">
        <rect width="122" height="39.339" fill="#CCC" rx="2"/>
        <path fill="#F0EDED" d="M60.329 22.152c-.164.172-.308.297-.506.297-.21 0-.382-.121-.53-.333l-1.849-2.934c-.088-.115-.206-.29-.418-.288-.208.001-.328.16-.417.28l-4.411 6.253c-.089.12-.14.27-.14.433 0 .393.304.694.679.694H69.11c.763 0 1.144-.543.7-1.29l-5.007-8.3c-.088-.116-.206-.29-.418-.289-.208.002-.329.161-.418.28l-3.64 5.188m-6.155-5.02l-.237.006C53.05 17.117 52 16.726 52 14.948c0-1.766 1.04-2.156 1.906-2.163l.255.007c.891.024 1.954.414 1.954 2.175 0 1.753-1.057 2.143-1.942 2.155"/>
    </g>
</svg>
