<svg xmlns="http://www.w3.org/2000/svg" width="16" height="14" viewBox="0 0 16 14">
    <path fill="#BAEFFF" fill-rule="evenodd" d="M10.49 6.58L5.65 3.733c-.146-.088-.33-.088-.476 0-.15.088-.24.248-.24.42v5.69c0 .174.092.335.24.421.146.089.33.089.477 0l4.84-2.844c.147-.088.238-.249.238-.421s-.091-.332-.239-.42zM5.889 9.002V4.996L9.297 7 5.89 9.003zM12.445 0c3.047 0 2.824 2.87 2.824 2.87l.001 8.242c0 2.647-1.895 2.888-2.58 2.888-.15 0-.243-.012-.243-.012H2.809c-2.997 0-2.807-2.86-2.807-2.86V2.856C.001.188 2.061 0 2.645 0c.097 0 .153.005.153.005S9.399 0 12.445 0zM.955 6.21l.001 1.624h1.429V6.21H.955zm0-.973h1.43V3.622H.955v1.616zm.001 5.19h1.429V8.805H.956v1.62zm11.93-2.605h1.429v-1.62h-1.428v1.62zm0-2.592h1.429V3.61h-1.428v1.62zm0 5.185h1.43v-1.62h-1.43v1.62zm1.429-7.777c-.013-.26-.082-.8-.432-1.178-.227-.246-.562-.399-.996-.458v1.636h1.428zM1.616 1.248c-.153.099-.593.398-.649 1.402h1.418V.99c-.22.026-.51.09-.769.258zm-.653 10.15c.02.277.105.78.44 1.139.227.242.557.393.983.45v-1.59H.962zm11.923 1.618c1.2-.095 1.393-1.056 1.423-1.629h-1.422v1.63z"/>
</svg>
