<svg xmlns="http://www.w3.org/2000/svg" width="122" height="40" viewBox="0 0 122 40">
    <g fill="none" fill-rule="evenodd">
        <rect width="58" height="40" fill="#F0EDED" rx="2"/>
        <g fill="#CCC">
            <path d="M0 0H40V4H0zM0 6H36V10H0zM0 12H36V16H0zM0 18H36V22H0zM0 24H36V28H0z" transform="translate(6 6)"/>
        </g>
        <rect width="58" height="40" fill="#F0EDED" x="64" rx="2"/>
        <g fill="#CCC">
            <path d="M0 0H40V4H0zM0 6H36V10H0zM0 12H36V16H0zM0 18H36V22H0zM0 24H36V28H0z" transform="translate(70 6)"/>
        </g>
    </g>
</svg>
