<?xml version="1.0" standalone="no"?>
<!DOCTYPE svg PUBLIC "-//W3C//DTD SVG 1.1//EN" "http://www.w3.org/Graphics/SVG/1.1/DTD/svg11.dtd" >
<svg xmlns="http://www.w3.org/2000/svg">
<metadata>Generated by IcoMoon</metadata>
<defs>
<font id="icomoon" horiz-adv-x="1024">
<font-face units-per-em="1024" ascent="960" descent="-64" />
<missing-glyph horiz-adv-x="1024" />
<glyph unicode="&#x20;" horiz-adv-x="512" d="" />
<glyph unicode="&#xe900;" glyph-name="btn_nuevo" d="M910.202 476.465h-369.737v369.737c0 15.721-12.744 28.465-28.465 28.465s-28.465-12.744-28.465-28.465v-369.737h-369.737c-15.721 0-28.465-12.744-28.465-28.465s12.744-28.465 28.465-28.465h369.737v-369.737c0-15.721 12.744-28.465 28.465-28.465s28.465 12.744 28.465 28.465v369.737h369.737c15.721 0 28.465 12.744 28.465 28.465s-12.744 28.465-28.465 28.465v0z" />
<glyph unicode="&#xe901;" glyph-name="ic_boton_sdk" d="M691.2 557.909h-392.533c-14.257 0.094-25.744 11.718-25.669 25.975 0 14.336 11.503 25.975 25.669 25.975h392.533c14.165 0 25.668-11.605 25.668-25.941 0-14.37-11.503-26.010-25.668-26.010zM522.991 404.48h-224.324c-14.244 0.094-25.725 11.697-25.668 25.941 0 14.336 11.503 26.010 25.668 26.010h224.324c14.165 0 25.668-11.639 25.668-25.975s-11.503-25.975-25.668-25.975zM773.973 832h-558.012c-72.021 0-130.628-59.051-130.628-131.618v-389.666c0-58.573 35.26-108.271 87.313-125.372v-80.93c0-31.164 26.624-57.481 58.129-57.481 19.627 0 35.942 8.533 48.128 25.054l82.807 107.076h412.262c72.021 0 130.56 59.051 130.56 131.652v389.666c0 72.567-58.573 131.618-130.56 131.618z" />
<glyph unicode="&#xe902;" glyph-name="ic_cerrar" d="M803.308 192.020c4.71-4.671 7.359-11.030 7.359-17.664s-2.649-12.992-7.359-17.664c-4.671-4.71-11.029-7.359-17.663-7.359s-12.992 2.649-17.663 7.359l-255.983 256.001-255.983-256.001c-4.671-4.71-11.029-7.359-17.663-7.359s-12.992 2.649-17.663 7.359c-4.71 4.671-7.359 11.030-7.359 17.664s2.649 12.992 7.359 17.664l255.983 256.001-255.983 256.001c-9.755 9.755-9.755 25.572 0 35.328s25.57 9.755 35.325 0l255.983-256.001 255.983 256.001c9.755 9.755 25.57 9.755 35.325 0s9.755-25.572 0-35.328l-255.983-256.001 255.983-256.001z" />
<glyph unicode="&#xe903;" glyph-name="ic_contenido" d="M832.341 959.957c31.445 0 60.288-31.403 63.403-67.413l0.256-6.4v-876.373c0-37.12-26.496-69.931-58.027-73.472l-5.632-0.299-640.683 0.085c-32 0-60.331 30.72-63.403 67.243l-0.256 6.485v876.373c0 36.437 27.051 69.888 58.155 73.472l5.547 0.341 640.64-0.043zM832.683 917.291l-641.365 0.043c-6.357 0-18.219-11.691-20.309-26.624l-0.341-4.608v-876.203c0-16.171 10.325-28.672 18.347-30.805l2.304-0.341 641.365-0.085c7.424 0 18.432 11.051 20.352 26.453l0.299 4.693v876.288c0 17.067-13.653 31.232-20.651 31.232v-0.043zM290.432 277.333c23.564 0 42.667-19.103 42.667-42.667s-19.103-42.667-42.667-42.667c-23.564 0-42.667 19.103-42.667 42.667s19.103 42.667 42.667 42.667zM738.176 234.667c11.947 0 21.589-9.557 21.589-21.333s-9.685-21.333-21.589-21.333h-298.155c-5.692-0.034-11.164 2.194-15.213 6.195s-6.342 9.446-6.376 15.138c0 11.776 9.643 21.333 21.589 21.333h298.155zM290.432 490.667c23.564 0 42.667-19.103 42.667-42.667s-19.103-42.667-42.667-42.667c-23.564 0-42.667 19.103-42.667 42.667s19.103 42.667 42.667 42.667zM738.176 448c11.947 0 21.589-9.557 21.589-21.333 0-10.453-7.637-19.2-17.707-20.992l-3.84-0.341h-298.24c-11.836-0.047-21.476 9.497-21.547 21.333 0 10.453 7.637 19.2 17.707 20.992l3.84 0.341h298.197zM290.432 704c15.682 0.717 30.492-7.235 38.556-20.704s8.081-30.278 0.044-43.763c-8.038-13.485-22.831-21.467-38.515-20.781-22.801 0.997-40.779 19.761-40.802 42.583s17.918 41.622 40.717 42.665v0zM738.176 661.333c11.947 0 21.589-9.557 21.589-21.333 0-10.453-7.637-19.2-17.707-20.992l-3.84-0.341h-298.24c-11.836-0.047-21.476 9.497-21.547 21.333 0 10.453 7.637 19.2 17.707 20.992l3.84 0.341h298.197z" />
<glyph unicode="&#xe904;" glyph-name="ic_copiar" d="M810.667 348.444c0-15.709-12.735-28.444-28.444-28.444v0l-184.889 0.043v-184.932c0-14.281-10.525-26.104-24.241-28.136l-4.203-0.308h-369.778c-15.709 0-28.444 12.735-28.444 28.444v0 369.778c0 15.709 12.735 28.444 28.444 28.444v0h184.889v184.889c0 14.281 10.525 26.104 24.241 28.136l4.203 0.308h369.778c15.709 0 28.444-12.735 28.444-28.444v0zM540.444 476.444h-312.889v-312.889h312.889v312.889zM753.778 689.778h-312.889l-0.014-156.444h128.014c14.281 0 26.104-10.525 28.136-24.241l0.308-4.203v-127.972l156.444-0.028v312.889z" />
<glyph unicode="&#xe905;" d="M56.889 960h910.222c31.419 0 56.889-25.47 56.889-56.889v-910.222c0-31.419-25.47-56.889-56.889-56.889h-910.222c-31.419 0-56.889 25.47-56.889 56.889v910.222c0 31.419 25.47 56.889 56.889 56.889z" />
<glyph unicode="&#xe906;" d="M338.432 300.999c19.115 0 44.715 3.072 58.709 7.168l-5.461 38.912c-13.653-2.731-31.744-4.779-43.008-4.779-26.283 0-40.96 5.12-51.2 16.725-11.605 12.971-16.725 36.181-16.725 63.829 0 46.421 11.605 79.531 61.781 79.531 14.677 0 32.085-3.072 50.176-8.192l6.827 38.912c-15.019 6.144-40.96 10.581-61.099 10.581-79.872 0-112.981-49.152-112.981-122.197 0-40.619 8.533-70.997 28.331-92.16 17.408-18.432 43.349-28.331 84.651-28.331zM505.344 300.999c33.451 0 55.637 6.827 72.021 22.187 12.288 11.605 19.456 28.331 19.456 49.152 0 91.136-119.125 59.733-119.125 105.472 0 14.677 9.216 24.917 37.888 24.917 16.384 0 36.864-3.072 55.979-8.192l8.192 39.595c-18.091 6.144-42.667 9.557-65.195 9.557-49.835 0-87.040-20.821-87.040-68.267 0-91.819 119.125-60.075 119.125-103.765 0-21.504-14.677-29.696-46.080-29.696-17.067 0-44.032 4.437-64.512 11.605l-8.192-40.619c23.552-8.192 47.787-11.947 77.483-11.947zM706.731 300.999c-29.696 0-53.931 3.755-77.483 11.947l8.192 40.619c20.48-7.168 47.445-11.605 64.512-11.605 31.403 0 46.080 8.192 46.080 29.696 0 43.691-119.125 11.947-119.125 103.765 0 47.445 37.205 68.267 87.040 68.267 22.528 0 47.104-3.413 65.195-9.557l-8.192-39.595c-19.115 5.12-39.595 8.192-55.979 8.192-28.672 0-37.888-10.24-37.888-24.917 0-45.739 119.125-14.336 119.125-105.472 0-20.821-7.168-37.547-19.456-49.152-16.384-15.36-38.571-22.187-72.021-22.187z" />
<glyph unicode="&#xe907;" d="M56.889 960h910.222c31.419 0 56.889-25.47 56.889-56.889v-910.222c0-31.419-25.47-56.889-56.889-56.889h-910.222c-31.419 0-56.889 25.47-56.889 56.889v910.222c0 31.419 25.47 56.889 56.889 56.889z" />
<glyph unicode="&#xe908;" d="M338.432 300.999c19.115 0 44.715 3.072 58.709 7.168l-5.461 38.912c-13.653-2.731-31.744-4.779-43.008-4.779-26.283 0-40.96 5.12-51.2 16.725-11.605 12.971-16.725 36.181-16.725 63.829 0 46.421 11.605 79.531 61.781 79.531 14.677 0 32.085-3.072 50.176-8.192l6.827 38.912c-15.019 6.144-40.96 10.581-61.099 10.581-79.872 0-112.981-49.152-112.981-122.197 0-40.619 8.533-70.997 28.331-92.16 17.408-18.432 43.349-28.331 84.651-28.331zM505.344 300.999c33.451 0 55.637 6.827 72.021 22.187 12.288 11.605 19.456 28.331 19.456 49.152 0 91.136-119.125 59.733-119.125 105.472 0 14.677 9.216 24.917 37.888 24.917 16.384 0 36.864-3.072 55.979-8.192l8.192 39.595c-18.091 6.144-42.667 9.557-65.195 9.557-49.835 0-87.040-20.821-87.040-68.267 0-91.819 119.125-60.075 119.125-103.765 0-21.504-14.677-29.696-46.080-29.696-17.067 0-44.032 4.437-64.512 11.605l-8.192-40.619c23.552-8.192 47.787-11.947 77.483-11.947zM706.731 300.999c-29.696 0-53.931 3.755-77.483 11.947l8.192 40.619c20.48-7.168 47.445-11.605 64.512-11.605 31.403 0 46.080 8.192 46.080 29.696 0 43.691-119.125 11.947-119.125 103.765 0 47.445 37.205 68.267 87.040 68.267 22.528 0 47.104-3.413 65.195-9.557l-8.192-39.595c-19.115 5.12-39.595 8.192-55.979 8.192-28.672 0-37.888-10.24-37.888-24.917 0-45.739 119.125-14.336 119.125-105.472 0-20.821-7.168-37.547-19.456-49.152-16.384-15.36-38.571-22.187-72.021-22.187z" />
<glyph unicode="&#xe909;" glyph-name="ic_cuenta" d="M347.462 743.899c32.633 31.58 80.692 47.614 142.922 47.614 62.27 0 110.491-16.033 143.245-47.573 33.969-32.836 51.217-82.19 51.217-146.889 0-64.659-17.248-113.973-51.217-146.565-32.714-31.378-80.935-47.33-143.245-47.33-62.27 0-110.329 15.952-142.922 47.33-33.807 32.593-50.974 81.866-50.974 146.565 0 64.78 17.167 114.135 50.974 146.849zM490.383 362.667c73.121 0 130.735 19.677 171.263 58.586 42.269 40.528 63.687 99.681 63.687 175.798 0 76.076-21.378 135.31-63.606 176.040-40.569 39.111-98.223 58.91-171.344 58.91-73.080 0-130.654-19.839-171.061-58.991-41.986-40.609-63.323-99.802-63.323-175.96 0-76.117 21.337-135.229 63.404-175.757 40.326-38.909 97.899-58.626 170.98-58.626zM534.152-22.691c-13.209-0.205-29.372-0.41-44.345-0.205-65.226 0.944-221.808 16.368-331.584 130.573 9.517 32.9 24.49 60.671 45.084 82.167 40.366 42.171 101.202 64.445 176.027 64.445h264.758c74.784 0 135.784-22.275 176.355-64.445 20.634-21.537 35.648-49.308 45.207-82.044-109.776-113.426-266.317-129.342-331.502-130.491zM55.831 593.704c9.517 42.376 23.219 79.213 39.997 111.292 8.451 16.081 17.599 30.931 27.362 44.673 107.684 151.207 291.177 168.641 363.007 169.256 3.323 0.041 6.687 0.041 10.091 0.041 12.225 0 24.901-0.205 35.771-0.451 105.756-2.543 450.918-44.099 450.918-471.834 0-23.998-1.436-46.314-3.487-67.932-0.369-4.184-0.697-8.451-1.19-12.594-2.297-19.855-5.456-38.643-9.312-56.528-1.108-5.005-2.379-9.886-3.569-14.768-3.569-14.235-7.589-27.854-12.061-40.899-1.395-4.020-2.584-8.286-4.102-12.266-5.415-14.317-11.527-27.649-17.968-40.448-3.159-6.276-6.564-12.43-10.009-18.46-3.979-6.933-8.163-13.496-12.389-20.019-4.020-6.071-7.876-12.266-12.184-18.091-11.322 28.428-26.952 53.082-46.683 73.593-48.488 50.416-119.744 77.039-205.932 77.039h-264.758c-86.27 0-157.362-26.623-205.686-77.121-19.65-20.47-35.156-45.083-46.437-73.511-0.492 0.656-1.026 1.108-1.477 1.805-2.133 2.872-3.979 6.030-6.030 9.025-6.851 10.009-13.373 20.552-19.486 31.71-2.092 3.815-4.225 7.63-6.194 11.486-7.22 14.276-14.030 29.249-20.019 45.452-0.697 1.969-1.272 4.061-2.010 6.071-5.333 15.096-9.927 31.136-13.989 47.955-0.944 3.938-1.969 7.794-2.831 11.773-4.020 18.542-7.261 38.027-9.558 58.62-0.451 3.938-0.738 7.958-1.149 11.937-2.051 21.906-3.446 44.673-3.446 69.081 0 53.985 5.292 101.775 14.809 144.11zM908.768 95.001c6.564 7.425 12.881 15.178 19.116 23.341 3.364 4.471 6.564 9.148 9.804 13.783 4.471 6.481 8.861 13.209 13.045 20.101 2.461 3.938 4.964 7.835 7.302 11.896 5.989 10.502 11.568 21.537 16.86 32.982 1.723 3.733 3.282 7.548 4.882 11.322 4.020 9.312 7.794 18.993 11.322 28.961 1.272 3.651 2.625 7.22 3.815 10.912 4.389 13.25 8.369 26.951 11.814 41.268 0.41 1.805 0.697 3.733 1.149 5.538 2.831 12.512 5.333 25.475 7.425 38.848 0.738 4.553 1.395 9.148 1.969 13.742 1.559 11.322 2.831 23.013 3.815 34.951 0.41 4.635 0.902 9.189 1.149 13.906 1.067 16.163 1.764 32.777 1.764 50.129 0 476.839-408.952 510.887-490.956 512.856-14.44 0.328-31.669 0.574-47.217 0.41-462.404-3.938-485.828-425.848-485.828-510.354 0-8.656 0.246-20.921 1.19-35.73 5.948-135.085 45.576-244.655 118.801-325.427 1.436-1.6 3.282-2.625 5.128-3.733 72.158-82.29 185.544-145.997 364.114-148.622 4.882-0.082 9.927-0.082 14.973-0.082 10.707 0 21.373 0.123 30.685 0.287 52.55 0.944 240.063 14.604 367.068 151.412 0.533 0.533 1.313 0.656 1.846 1.231 1.764 1.928 3.241 4.061 4.964 6.071z" />
<glyph unicode="&#xe90a;" glyph-name="ic_descargar" d="M824.889 305.778c15.709 0 28.444-12.735 28.444-28.444v0-142.222c0-15.709-12.735-28.444-28.444-28.444v0h-625.778c-15.709 0-28.444 12.735-28.444 28.444v0 142.222c0 15.709 12.735 28.444 28.444 28.444s28.444-12.735 28.444-28.444v0-113.778h568.889v113.778c0 15.709 12.735 28.444 28.444 28.444zM514.56 789.333c15.709 0 28.444-12.735 28.444-28.444v0-384.284l147.911 148.196c5.341 5.385 12.611 8.414 20.196 8.414s14.855-3.029 20.196-8.414c11.029-11.094 11.029-29.012 0-40.107v0l-195.413-195.413c-5.392-6.138-13.163-9.661-21.333-9.671-2.351-0.433-4.761-0.433-7.111 0-1.312-0.285-2.67-0.285-3.982 0-3.39 1.386-6.481 3.415-9.102 5.973v0l-199.111 199.111c-5.385 5.341-8.414 12.611-8.414 20.196s3.029 14.855 8.414 20.196c11.094 11.029 29.012 11.029 40.107 0v0l150.756-150.756v386.56c0 15.709 12.735 28.444 28.444 28.444z" />
<glyph unicode="&#xe90b;" d="M56.889 960h910.222c31.419 0 56.889-25.47 56.889-56.889v-910.222c0-31.419-25.47-56.889-56.889-56.889h-910.222c-31.419 0-56.889 25.47-56.889 56.889v910.222c0 31.419 25.47 56.889 56.889 56.889z" />
<glyph unicode="&#xe90c;" d="M790.291 261.894l-150.482 186.143c-4.961 5.896-12.402 10.107-21.497 10.107-8.268 0-16.537-4.211-21.497-10.107l-19.844-24.426c-0.827-0.842-1.654-2.527-2.48-3.369-4.961-5.054-11.576-8.423-19.017-8.423s-13.229 2.527-18.19 7.58c-1.654 1.685-3.307 3.369-4.134 5.054l-73.587 90.966c-6.615 8.423-16.537 13.476-28.112 13.476s-21.497-5.054-28.112-13.476l-200.092-247.629c-2.48-4.211-4.134-8.423-4.134-13.476 0-13.476 10.749-24.426 23.978-24.426v0h555.627c9.922 0 18.19 8.423 18.19 18.53 0 4.211-0.827 7.58-3.307 10.95l-3.307 2.527z" />
<glyph unicode="&#xe90d;" d="M751.241 636.871c-34.121 0-62.27-28.16-62.27-62.293s28.15-62.293 62.27-62.293c34.121 0 62.27 28.16 62.27 62.293s-28.15 62.293-62.27 62.293v0z" />
<glyph unicode="&#xe90e;" glyph-name="ic_mis_bots" d="M930.389 53.919c0-18.347-13.141-32.128-21.675-32.128h-357.717v382.698h379.392v-350.57zM129.749 399.668c0 1.707-0.597 3.243-0.981 4.821h377.899v-382.698h-355.243c-8.533 0-21.76 13.867-21.76 32.213l0.085 345.664zM86.357 448l-1.024-393.995c0-40.107 30.933-75.307 66.133-75.307h757.248c35.157 0 66.048 35.115 66.048 75.221l2.859 394.081c35.157 0-926.421 0-891.264 0zM133.507 799.445c0 18.347 13.141 32.128 21.675 32.128h357.717v-382.698h-379.392v350.57zM934.147 453.696c0-1.707 0.597-3.243 0.981-4.821h-377.899v382.698h355.243c8.533 0 21.76-13.867 21.76-32.213l-0.085-345.664zM977.539 405.365l1.024 393.995c0 40.107-30.933 75.307-66.133 75.307h-757.248c-35.157 0-66.048-35.115-66.048-75.221l-2.859-394.081c-35.157 0 926.421 0 891.264 0z" />
<glyph unicode="&#xe90f;" glyph-name="ic_personalizar" d="M924.288 624.939v-0.043l-43.093-42.795-237.483 234.923 43.947 43.477c105.941 104.619 196.181 39.467 230.101 6.613 4.053-4.011 8.491-8.491 12.117-12.245 33.28-34.56 99.413-126.123-5.547-229.973l-0.043 0.043zM57.813 51.072l55.808-55.211-66.219-12.117 10.411 67.328zM206.72 177.493l-104.789 103.68 511.317 505.728 104.789-103.637-511.317-505.771zM164.992 5.291l-99.115 98.133 20.48 132.864 209.323-206.933-130.688-24.064zM340.779 44.928l-103.552 102.443 511.275 505.771 102.357-101.248-510.080-506.965zM961.067 884.309c-4.293 4.424-8.631 8.805-13.013 13.141-69.205 67.243-181.931 100.821-290.773-6.827l-601.045-594.432c-2.854-2.918-4.745-6.641-5.419-10.667-0.128-0.427-0.555-0.725-0.64-1.195l-49.92-323.84c-1.067-6.827 1.28-13.696 6.272-18.475 5.042-4.815 12.091-6.91 18.944-5.632l313.173 57.472c0.725 0 1.408-0.384 2.133-0.384 5.712-0.009 11.198 2.229 15.275 6.229 0.299 0.341 0.427 0.768 0.683 1.109 0.213 0.128 0.555 0.128 0.768 0.341l597.333 593.707c138.923 137.472 29.568 265.216 6.187 289.451h0.043z" />
<glyph unicode="&#xe910;" glyph-name="ic_pressets" d="M958.806 11.691c0.034-2.734-1.032-5.367-2.957-7.309s-4.55-3.028-7.284-3.017h-873.088c-5.657 0.092-10.214 4.668-10.283 10.325v370.901c0 5.205 4.907 9.899 10.283 9.899h95.915c0.512 0 0.939-0.299 1.451-0.299s0.981 0.299 1.493 0.299h189.611v-12.416c0.118-78.924 64.094-142.863 143.019-142.933h9.984c78.925 0.070 142.901 64.009 143.019 142.933v12.416h189.867c0.512 0 0.981-0.299 1.451-0.299 0.512 0 0.939 0.299 1.493 0.299h95.744c5.675 0 9.216-4.224 9.813-6.869l0.256-1.451c0.085-0.512 0.171-1.024 0.171-1.579v-370.901h0.043zM777.045 689.536h-529.92v91.435c0 5.639 4.559 10.217 10.197 10.24h509.568c5.622-0.047 10.155-4.618 10.155-10.24v-91.435zM627.413 457.856c-8.657-0.011-16.954-3.461-23.067-9.59s-9.541-14.436-9.53-23.092v-45.099c-0.118-42.891-34.933-77.592-77.824-77.568h-9.984c-42.891-0.024-77.706 34.677-77.824 77.568v45.099c0.011 8.657-3.417 16.963-9.53 23.092s-14.411 9.579-23.067 9.59h-191.147v156.032c0 5.655 4.585 10.24 10.24 10.24h592.811c5.655 0 10.24-4.585 10.24-10.24v-156.032h-191.317zM148.267 878.933c0.274 1.808 0.417 3.633 0.427 5.461 0 5.589 4.608 10.24 10.24 10.24l706.347-0.811c6.912 0 13.525-7.68 15.232-17.152l66.432-418.816h-63.019v156.032c0 29.44-17.067 54.784-41.685 67.243v99.84c0 41.643-33.835 75.605-75.349 75.605h-509.611c-41.6 0-75.435-33.963-75.435-75.605v-99.84c-25.461-12.757-41.567-38.765-41.643-67.243v-156.032h-62.805l70.827 421.077h0.043zM1023.36 388.267c0 0.896 0.299 1.707 0.171 2.603l-1.024 6.485v0.384c0 0-0.085 0-0.085 0.128l-77.611 489.813c-7.68 42.069-40.363 71.509-79.531 71.509l-706.347 0.811c-40.533 0-73.728-32.213-75.392-72.491l-82.901-493.056c-0.256-1.451 0.171-2.773 0.128-4.224-0.256-2.56-0.768-5.035-0.768-7.637v-370.901c0-41.728 33.92-75.691 75.52-75.691h873.045c41.557 0 75.435 33.963 75.435 75.691v370.901c0 1.792-0.427 3.84-0.597 5.675h-0.043z" />
<glyph unicode="&#xe911;" glyph-name="ic_publicar" d="M246.741 184.192c47.189-47.488 47.189-101.973 0-149.504-29.483-29.696-110.592-98.688-225.536-98.688-5.646 0-11.059 2.252-15.040 6.256s-6.2 9.431-6.166 15.077c0 111.36 61.526 189.909 98.219 226.816 47.189 47.445 101.333 47.488 148.523 0v0.043zM401.365 762.027c172.245 173.227 451.115 207.403 551.936 195.968 36.011-4.693 64.085-32.896 68.736-68.736 6.187-50.645-0.811-172.885-44.117-301.269l1.28-1.323-2.688-2.645c-29.995-87.381-76.672-177.237-148.224-249.173-8.704-8.789-16.512-16.469-25.131-24.192 27.387-37.924 40.091-84.494 35.755-131.072-6.656-71.723-52.267-140.8-135.424-205.355-7.813-7.201-18.005-11.272-28.629-11.435-3.119 0-6.226 0.381-9.259 1.109-31.573 7.509-49.493 50.347-74.325 109.653-8.725 21.221-18.044 42.193-27.947 62.891l-1.707-0.981-38.187-18.645c-35.883-16.725-63.829-25.003-84.992-25.003-15.36 0-27.307 4.352-35.968 13.141l-229.76 231.040c-20.437 18.901-16.939 57.6 11.691 121.131l18.475 37.333 1.963 3.413c-18.665 8.989-37.604 17.398-56.789 25.216-58.965 25.216-101.333 43.093-108.971 75.093-2.133 8.96-1.707 23.467 11.008 38.827 63.573 82.688 132.309 128.427 203.52 135.253 44.608 4.136 89.25-7.538 126.123-32.981 7.083 7.851 14.72 15.787 21.632 22.784v-0.043zM172.501 177.067c-14.507 0-29.013-7.68-44.331-23.040-29.44-29.696-77.355-90.027-84.779-174.379 87.467 8.021 149.547 61.269 173.397 85.205 30.635 30.891 30.635 58.325 0 89.173-15.275 15.36-29.781 23.040-44.288 23.040zM771.029 282.581l-2.987-2.56c-52.393-45.445-108.544-86.367-167.851-122.325 11.008-22.187 20.821-45.227 30.165-67.584 13.397-32 33.621-80.427 45.184-84.736 75.52 59.648 115.627 118.699 121.173 178.219 3.289 34.985-5.801 70.015-25.685 98.987zM643.541 864.128c-75.349-28.587-151.168-70.869-212.181-132.267-7.637-7.68-16.427-16.469-24.021-25.259l-28.587-32.213c-52.48-61.269-104.192-135.936-138.24-199.509l-17.877-36.096c-26.112-58.155-19.797-72.875-19.755-73.003l229.632-230.699c0.341 0 16.256-6.059 72.747 20.267l36.907 18.005c62.208 33.024 134.4 83.712 198.187 139.008l32.939 28.544c8.661 7.595 16.299 15.317 25.003 24.107 60.459 60.8 102.144 136.533 130.389 211.925l-285.141 287.189zM646.229 688.341c60.8 0 95.659-35.072 95.659-96.213 0-61.099-34.859-96.213-95.659-96.213-60.757 0-95.573 35.115-95.573 96.213 0 61.141 34.816 96.213 95.573 96.213v0zM266.24 730.539l-9.173-0.555c-58.965-5.931-117.504-46.464-173.867-119.851l-2.56-3.84c4.267-9.728 52.181-30.293 84.011-43.861 20.565-8.576 41.344-17.707 61.525-27.648 35.576 59.141 75.961 115.253 120.747 167.765l3.968 4.523c-27.959 17.622-60.888 25.678-93.824 22.955l9.173 0.512zM646.272 645.675c-37.291 0-53.205-16.043-53.205-53.547 0-37.547 15.915-53.547 53.205-53.547 37.333 0 53.248 16 53.248 53.547s-15.915 53.547-53.248 53.547zM948.267 915.669c-44.544 5.077-148.565-1.28-260.437-36.309l256.384-257.536c35.115 113.621 41.045 219.136 35.755 262.059-2.153 16.55-15.157 29.589-31.701 31.787v0z" />
<glyph unicode="&#xe912;" glyph-name="ic_puntos" d="M512 277.333c46.905 0 85.333-38.116 85.333-85.333s-38.428-85.333-85.333-85.333c-47.218 0-85.333 38.116-85.333 85.333s38.116 85.333 85.333 85.333zM512 533.333c46.905 0 85.333-38.116 85.333-85.333s-38.428-85.333-85.333-85.333c-47.218 0-85.333 38.116-85.333 85.333s38.116 85.333 85.333 85.333zM512 789.333c46.905 0 85.333-38.116 85.333-85.333s-38.428-85.333-85.333-85.333c-47.218 0-85.333 38.116-85.333 85.333s38.116 85.333 85.333 85.333z" />
<glyph unicode="&#xe913;" d="M56.889 960h910.222c31.419 0 56.889-25.47 56.889-56.889v-910.222c0-31.419-25.47-56.889-56.889-56.889h-910.222c-31.419 0-56.889 25.47-56.889 56.889v910.222c0 31.419 25.47 56.889 56.889 56.889z" />
<glyph unicode="&#xe914;" d="M263.68 305.778h179.541v39.253h-112.299l111.616 161.451v32.768h-175.445v-39.253h109.909l-113.323-162.816v-31.403zM481.451 305.778h53.248v233.472h-53.248v-233.472zM585.899 305.778h53.248v80.555h37.547c30.72 0 51.883 7.168 65.536 22.528 11.605 12.971 17.408 31.744 17.408 56.661s-6.144 43.008-18.773 54.613c-15.019 13.995-38.229 19.115-74.752 19.115h-80.213v-233.472zM639.147 426.268v74.411h24.917c16.384 0 26.283-2.389 32.768-8.192 6.144-5.803 8.875-15.019 8.875-27.648 0-13.653-3.072-23.552-9.216-29.696-6.827-6.485-13.995-8.875-31.061-8.875h-26.283z" />
<glyph unicode="&#xe915;" d="M491.52 960h40.96c271.459 0 491.52-220.061 491.52-491.52v-40.96c0-271.459-220.061-491.52-491.52-491.52h-40.96c-271.459 0-491.52 220.061-491.52 491.52v40.96c0 271.459 220.061 491.52 491.52 491.52z" />
<glyph unicode="&#xe916;" d="M511.115 746.667c25.554 0 46.27-19.271 46.27-43.043 0-18.739-12.872-34.681-30.84-40.592l-0.009-80.708 157.269-0.003c36.655 0 66.37-29.715 66.37-66.37l-0.004-30.464c26.795-8.354 46.273-33.667 46.273-63.598s-19.479-55.245-46.273-63.598l0.004-38.29c0-36.655-29.715-66.37-66.37-66.37h-353.090c-36.655 0-66.37 29.715-66.37 66.37l-0.006 38.293c-26.79 8.357-46.264 33.668-46.264 63.595s19.474 55.239 46.264 63.595l0.006 30.467c0 36.655 29.715 66.37 66.37 66.37l164.968 0.003 0.003 80.708c-17.335 5.702-29.927 20.742-30.793 38.621l-0.048 1.97c0 23.772 20.716 43.043 46.27 43.043zM700.365 551.017h-386.212c-10.473 0-18.963-8.49-18.963-18.963v0-228.158c0-10.473 8.49-18.963 18.963-18.963v0h386.212c10.473 0 18.963 8.49 18.963 18.963v0 228.158c0 10.473-8.49 18.963-18.963 18.963v0z" />
<glyph unicode="&#xe917;" d="M465.778 443.259c0-20.946-17.245-37.926-38.519-37.926s-38.519 16.98-38.519 37.926c0 20.946 17.245 37.926 38.519 37.926s38.519-16.98 38.519-37.926z" />
<glyph unicode="&#xe918;" d="M635.259 443.259c0-20.946-17.245-37.926-38.519-37.926s-38.519 16.98-38.519 37.926c0 20.946 17.245 37.926 38.519 37.926s38.519-16.98 38.519-37.926z" />
<glyph unicode="&#xe919;" d="M559.408 357.926c-10.41-17.004-29.866-28.445-52.148-28.445s-41.738 11.44-52.148 28.445z" />
<glyph unicode="&#xe91a;" d="M491.52 960h40.96c271.459 0 491.52-220.061 491.52-491.52v-40.96c0-271.459-220.061-491.52-491.52-491.52h-40.96c-271.459 0-491.52 220.061-491.52 491.52v40.96c0 271.459 220.061 491.52 491.52 491.52z" />
<glyph unicode="&#xe91b;" d="M511.115 746.667c25.554 0 46.27-19.271 46.27-43.043 0-18.739-12.872-34.681-30.84-40.592l-0.009-80.708 157.269-0.003c36.655 0 66.37-29.715 66.37-66.37l-0.004-30.464c26.795-8.354 46.273-33.667 46.273-63.598s-19.479-55.245-46.273-63.598l0.004-38.29c0-36.655-29.715-66.37-66.37-66.37h-353.090c-36.655 0-66.37 29.715-66.37 66.37l-0.006 38.293c-26.79 8.357-46.264 33.668-46.264 63.595s19.474 55.239 46.264 63.595l0.006 30.467c0 36.655 29.715 66.37 66.37 66.37l164.968 0.003 0.003 80.708c-17.335 5.702-29.927 20.742-30.793 38.621l-0.048 1.97c0 23.772 20.716 43.043 46.27 43.043zM700.365 551.017h-386.212c-10.473 0-18.963-8.49-18.963-18.963v0-228.158c0-10.473 8.49-18.963 18.963-18.963v0h386.212c10.473 0 18.963 8.49 18.963 18.963v0 228.158c0 10.473-8.49 18.963-18.963 18.963v0z" />
<glyph unicode="&#xe91c;" d="M465.778 443.259c0-20.946-17.245-37.926-38.519-37.926s-38.519 16.98-38.519 37.926c0 20.946 17.245 37.926 38.519 37.926s38.519-16.98 38.519-37.926z" />
<glyph unicode="&#xe91d;" d="M635.259 443.259c0-20.946-17.245-37.926-38.519-37.926s-38.519 16.98-38.519 37.926c0 20.946 17.245 37.926 38.519 37.926s38.519-16.98 38.519-37.926z" />
<glyph unicode="&#xe91e;" d="M559.408 357.926c-10.41-17.004-29.866-28.445-52.148-28.445s-41.738 11.44-52.148 28.445z" />
<glyph unicode="&#xe91f;" d="M491.52 960h40.96c271.459 0 491.52-220.061 491.52-491.52v-40.96c0-271.459-220.061-491.52-491.52-491.52h-40.96c-271.459 0-491.52 220.061-491.52 491.52v40.96c0 271.459 220.061 491.52 491.52 491.52z" />
<glyph unicode="&#xe920;" d="M520.597 746.667c25.554 0 46.27-19.271 46.27-43.043 0-18.739-12.872-34.681-30.84-40.592l-0.009-80.708 157.269-0.003c36.655 0 66.37-29.715 66.37-66.37l-0.004-30.464c26.795-8.354 46.273-33.667 46.273-63.598s-19.479-55.245-46.273-63.598l0.004-38.29c0-36.655-29.715-66.37-66.37-66.37h-353.090c-36.655 0-66.37 29.715-66.37 66.37l-0.006 38.293c-26.79 8.357-46.264 33.668-46.264 63.595s19.474 55.239 46.264 63.595l0.006 30.467c0 36.655 29.715 66.37 66.37 66.37l164.968 0.003 0.003 80.708c-17.335 5.702-29.927 20.742-30.793 38.621l-0.048 1.97c0 23.772 20.716 43.043 46.27 43.043zM709.847 551.017h-386.212c-10.473 0-18.963-8.49-18.963-18.963v0-228.158c0-10.473 8.49-18.963 18.963-18.963v0h386.212c10.473 0 18.963 8.49 18.963 18.963v0 228.158c0 10.473-8.49 18.963-18.963 18.963v0z" />
<glyph unicode="&#xe921;" d="M475.259 443.259c0-20.946-17.245-37.926-38.519-37.926s-38.519 16.98-38.519 37.926c0 20.946 17.245 37.926 38.519 37.926s38.519-16.98 38.519-37.926z" />
<glyph unicode="&#xe922;" d="M644.741 443.259c0-20.946-17.245-37.926-38.519-37.926s-38.519 16.98-38.519 37.926c0 20.946 17.245 37.926 38.519 37.926s38.519-16.98 38.519-37.926z" />
<glyph unicode="&#xe923;" d="M568.889 357.926c-10.41-17.004-29.866-28.445-52.148-28.445s-41.738 11.44-52.148 28.445z" />
<glyph unicode="&#xe924;" d="M491.52 960h40.96c271.459 0 491.52-220.061 491.52-491.52v-40.96c0-271.459-220.061-491.52-491.52-491.52h-40.96c-271.459 0-491.52 220.061-491.52 491.52v40.96c0 271.459 220.061 491.52 491.52 491.52z" />
<glyph unicode="&#xe925;" d="M501.634 746.667c25.554 0 46.27-19.271 46.27-43.043 0-18.739-12.872-34.681-30.84-40.592l-0.009-80.708 157.269-0.003c36.655 0 66.37-29.715 66.37-66.37l-0.004-30.464c26.795-8.354 46.273-33.667 46.273-63.598s-19.479-55.245-46.273-63.598l0.004-38.29c0-36.655-29.715-66.37-66.37-66.37h-353.090c-36.655 0-66.37 29.715-66.37 66.37l-0.006 38.293c-26.79 8.357-46.264 33.668-46.264 63.595s19.474 55.239 46.264 63.595l0.006 30.467c0 36.655 29.715 66.37 66.37 66.37l164.968 0.003 0.003 80.708c-17.335 5.702-29.927 20.742-30.793 38.621l-0.048 1.97c0 23.772 20.716 43.043 46.27 43.043zM690.884 551.017h-386.212c-10.473 0-18.963-8.49-18.963-18.963v0-228.158c0-10.473 8.49-18.963 18.963-18.963v0h386.212c10.473 0 18.963 8.49 18.963 18.963v0 228.158c0 10.473-8.49 18.963-18.963 18.963v0z" />
<glyph unicode="&#xe926;" d="M456.296 443.259c0-20.946-17.245-37.926-38.519-37.926s-38.519 16.98-38.519 37.926c0 20.946 17.245 37.926 38.519 37.926s38.519-16.98 38.519-37.926z" />
<glyph unicode="&#xe927;" d="M625.778 443.259c0-20.946-17.245-37.926-38.519-37.926s-38.519 16.98-38.519 37.926c0 20.946 17.245 37.926 38.519 37.926s38.519-16.98 38.519-37.926z" />
<glyph unicode="&#xe928;" d="M549.926 357.926c-10.41-17.004-29.866-28.445-52.148-28.445s-41.738 11.44-52.148 28.445z" />
<glyph unicode="&#xe929;" d="M491.52 960h40.96c271.459 0 491.52-220.061 491.52-491.52v-40.96c0-271.459-220.061-491.52-491.52-491.52h-40.96c-271.459 0-491.52 220.061-491.52 491.52v40.96c0 271.459 220.061 491.52 491.52 491.52z" />
<glyph unicode="&#xe92a;" d="M511.115 746.667c25.554 0 46.27-19.271 46.27-43.043 0-18.739-12.872-34.681-30.84-40.592l-0.009-80.708 157.269-0.003c36.655 0 66.37-29.715 66.37-66.37l-0.004-30.464c26.795-8.354 46.273-33.667 46.273-63.598s-19.479-55.245-46.273-63.598l0.004-38.29c0-36.655-29.715-66.37-66.37-66.37h-353.090c-36.655 0-66.37 29.715-66.37 66.37l-0.006 38.293c-26.79 8.357-46.264 33.668-46.264 63.595s19.474 55.239 46.264 63.595l0.006 30.467c0 36.655 29.715 66.37 66.37 66.37l164.968 0.003 0.003 80.708c-17.335 5.702-29.927 20.742-30.793 38.621l-0.048 1.97c0 23.772 20.716 43.043 46.27 43.043zM700.365 551.017h-386.212c-10.473 0-18.963-8.49-18.963-18.963v0-228.158c0-10.473 8.49-18.963 18.963-18.963v0h386.212c10.473 0 18.963 8.49 18.963 18.963v0 228.158c0 10.473-8.49 18.963-18.963 18.963v0z" />
<glyph unicode="&#xe92b;" d="M465.778 443.259c0-20.946-17.245-37.926-38.519-37.926s-38.519 16.98-38.519 37.926c0 20.946 17.245 37.926 38.519 37.926s38.519-16.98 38.519-37.926z" />
<glyph unicode="&#xe92c;" d="M635.259 443.259c0-20.946-17.245-37.926-38.519-37.926s-38.519 16.98-38.519 37.926c0 20.946 17.245 37.926 38.519 37.926s38.519-16.98 38.519-37.926z" />
<glyph unicode="&#xe92d;" d="M559.408 357.926c-10.41-17.004-29.866-28.445-52.148-28.445s-41.738 11.44-52.148 28.445z" />
<glyph unicode="&#xe92e;" d="M491.52 960h40.96c271.459 0 491.52-220.061 491.52-491.52v-40.96c0-271.459-220.061-491.52-491.52-491.52h-40.96c-271.459 0-491.52 220.061-491.52 491.52v40.96c0 271.459 220.061 491.52 491.52 491.52z" />
<glyph unicode="&#xe92f;" d="M501.634 746.667c25.554 0 46.27-19.271 46.27-43.043 0-18.739-12.872-34.681-30.84-40.592l-0.009-80.708 157.269-0.003c36.655 0 66.37-29.715 66.37-66.37l-0.004-30.464c26.795-8.354 46.273-33.667 46.273-63.598s-19.479-55.245-46.273-63.598l0.004-38.29c0-36.655-29.715-66.37-66.37-66.37h-353.090c-36.655 0-66.37 29.715-66.37 66.37l-0.006 38.293c-26.79 8.357-46.264 33.668-46.264 63.595s19.474 55.239 46.264 63.595l0.006 30.467c0 36.655 29.715 66.37 66.37 66.37l164.968 0.003 0.003 80.708c-17.335 5.702-29.927 20.742-30.793 38.621l-0.048 1.97c0 23.772 20.716 43.043 46.27 43.043zM690.884 551.017h-386.212c-10.473 0-18.963-8.49-18.963-18.963v0-228.158c0-10.473 8.49-18.963 18.963-18.963v0h386.212c10.473 0 18.963 8.49 18.963 18.963v0 228.158c0 10.473-8.49 18.963-18.963 18.963v0z" />
<glyph unicode="&#xe930;" d="M456.296 443.259c0-20.946-17.245-37.926-38.519-37.926s-38.519 16.98-38.519 37.926c0 20.946 17.245 37.926 38.519 37.926s38.519-16.98 38.519-37.926z" />
<glyph unicode="&#xe931;" d="M625.778 443.259c0-20.946-17.245-37.926-38.519-37.926s-38.519 16.98-38.519 37.926c0 20.946 17.245 37.926 38.519 37.926s38.519-16.98 38.519-37.926z" />
<glyph unicode="&#xe932;" d="M549.926 357.926c-10.41-17.004-29.866-28.445-52.148-28.445s-41.738 11.44-52.148 28.445z" />
<glyph unicode="&#xe933;" d="M491.52 960h40.96c271.459 0 491.52-220.061 491.52-491.52v-40.96c0-271.459-220.061-491.52-491.52-491.52h-40.96c-271.459 0-491.52 220.061-491.52 491.52v40.96c0 271.459 220.061 491.52 491.52 491.52z" />
<glyph unicode="&#xe934;" d="M520.597 746.667c25.554 0 46.27-19.271 46.27-43.043 0-18.739-12.872-34.681-30.84-40.592l-0.009-80.708 157.269-0.003c36.655 0 66.37-29.715 66.37-66.37l-0.004-30.464c26.795-8.354 46.273-33.667 46.273-63.598s-19.479-55.245-46.273-63.598l0.004-38.29c0-36.655-29.715-66.37-66.37-66.37h-353.090c-36.655 0-66.37 29.715-66.37 66.37l-0.006 38.293c-26.79 8.357-46.264 33.668-46.264 63.595s19.474 55.239 46.264 63.595l0.006 30.467c0 36.655 29.715 66.37 66.37 66.37l164.968 0.003 0.003 80.708c-17.335 5.702-29.927 20.742-30.793 38.621l-0.048 1.97c0 23.772 20.716 43.043 46.27 43.043zM709.847 551.017h-386.212c-10.473 0-18.963-8.49-18.963-18.963v0-228.158c0-10.473 8.49-18.963 18.963-18.963v0h386.212c10.473 0 18.963 8.49 18.963 18.963v0 228.158c0 10.473-8.49 18.963-18.963 18.963v0z" />
<glyph unicode="&#xe935;" d="M475.259 443.259c0-20.946-17.245-37.926-38.519-37.926s-38.519 16.98-38.519 37.926c0 20.946 17.245 37.926 38.519 37.926s38.519-16.98 38.519-37.926z" />
<glyph unicode="&#xe936;" d="M644.741 443.259c0-20.946-17.245-37.926-38.519-37.926s-38.519 16.98-38.519 37.926c0 20.946 17.245 37.926 38.519 37.926s38.519-16.98 38.519-37.926z" />
<glyph unicode="&#xe937;" d="M568.889 357.926c-10.41-17.004-29.866-28.445-52.148-28.445s-41.738 11.44-52.148 28.445z" />
<glyph unicode="&#xe938;" d="M491.52 960h40.96c271.459 0 491.52-220.061 491.52-491.52v-40.96c0-271.459-220.061-491.52-491.52-491.52h-40.96c-271.459 0-491.52 220.061-491.52 491.52v40.96c0 271.459 220.061 491.52 491.52 491.52z" />
<glyph unicode="&#xe939;" d="M501.634 746.667c25.554 0 46.27-19.271 46.27-43.043 0-18.739-12.872-34.681-30.84-40.592l-0.009-80.708 157.269-0.003c36.655 0 66.37-29.715 66.37-66.37l-0.004-30.464c26.795-8.354 46.273-33.667 46.273-63.598s-19.479-55.245-46.273-63.598l0.004-38.29c0-36.655-29.715-66.37-66.37-66.37h-353.090c-36.655 0-66.37 29.715-66.37 66.37l-0.006 38.293c-26.79 8.357-46.264 33.668-46.264 63.595s19.474 55.239 46.264 63.595l0.006 30.467c0 36.655 29.715 66.37 66.37 66.37l164.968 0.003 0.003 80.708c-17.335 5.702-29.927 20.742-30.793 38.621l-0.048 1.97c0 23.772 20.716 43.043 46.27 43.043zM690.884 551.017h-386.212c-10.473 0-18.963-8.49-18.963-18.963v0-228.158c0-10.473 8.49-18.963 18.963-18.963v0h386.212c10.473 0 18.963 8.49 18.963 18.963v0 228.158c0 10.473-8.49 18.963-18.963 18.963v0z" />
<glyph unicode="&#xe93a;" d="M456.296 443.259c0-20.946-17.245-37.926-38.519-37.926s-38.519 16.98-38.519 37.926c0 20.946 17.245 37.926 38.519 37.926s38.519-16.98 38.519-37.926z" />
<glyph unicode="&#xe93b;" d="M625.778 443.259c0-20.946-17.245-37.926-38.519-37.926s-38.519 16.98-38.519 37.926c0 20.946 17.245 37.926 38.519 37.926s38.519-16.98 38.519-37.926z" />
<glyph unicode="&#xe93c;" d="M549.926 357.926c-10.41-17.004-29.866-28.445-52.148-28.445s-41.738 11.44-52.148 28.445z" />
<glyph unicode="&#xe93d;" d="M491.52 960h40.96c271.459 0 491.52-220.061 491.52-491.52v-40.96c0-271.459-220.061-491.52-491.52-491.52h-40.96c-271.459 0-491.52 220.061-491.52 491.52v40.96c0 271.459 220.061 491.52 491.52 491.52z" />
<glyph unicode="&#xe93e;" d="M520.597 746.667c25.554 0 46.27-19.271 46.27-43.043 0-18.739-12.872-34.681-30.84-40.592l-0.009-80.708 157.269-0.003c36.655 0 66.37-29.715 66.37-66.37l-0.004-30.464c26.795-8.354 46.273-33.667 46.273-63.598s-19.479-55.245-46.273-63.598l0.004-38.29c0-36.655-29.715-66.37-66.37-66.37h-353.090c-36.655 0-66.37 29.715-66.37 66.37l-0.006 38.293c-26.79 8.357-46.264 33.668-46.264 63.595s19.474 55.239 46.264 63.595l0.006 30.467c0 36.655 29.715 66.37 66.37 66.37l164.968 0.003 0.003 80.708c-17.335 5.702-29.927 20.742-30.793 38.621l-0.048 1.97c0 23.772 20.716 43.043 46.27 43.043zM709.847 551.017h-386.212c-10.473 0-18.963-8.49-18.963-18.963v0-228.158c0-10.473 8.49-18.963 18.963-18.963v0h386.212c10.473 0 18.963 8.49 18.963 18.963v0 228.158c0 10.473-8.49 18.963-18.963 18.963v0z" />
<glyph unicode="&#xe93f;" d="M475.259 443.259c0-20.946-17.245-37.926-38.519-37.926s-38.519 16.98-38.519 37.926c0 20.946 17.245 37.926 38.519 37.926s38.519-16.98 38.519-37.926z" />
<glyph unicode="&#xe940;" d="M644.741 443.259c0-20.946-17.245-37.926-38.519-37.926s-38.519 16.98-38.519 37.926c0 20.946 17.245 37.926 38.519 37.926s38.519-16.98 38.519-37.926z" />
<glyph unicode="&#xe941;" d="M568.889 357.926c-10.41-17.004-29.866-28.445-52.148-28.445s-41.738 11.44-52.148 28.445z" />
<glyph unicode="&#xe942;" d="M491.52 960h40.96c271.459 0 491.52-220.061 491.52-491.52v-40.96c0-271.459-220.061-491.52-491.52-491.52h-40.96c-271.459 0-491.52 220.061-491.52 491.52v40.96c0 271.459 220.061 491.52 491.52 491.52z" />
<glyph unicode="&#xe943;" d="M501.634 746.667c25.554 0 46.27-19.271 46.27-43.043 0-18.739-12.872-34.681-30.84-40.592l-0.009-80.708 157.269-0.003c36.655 0 66.37-29.715 66.37-66.37l-0.004-30.464c26.795-8.354 46.273-33.667 46.273-63.598s-19.479-55.245-46.273-63.598l0.004-38.29c0-36.655-29.715-66.37-66.37-66.37h-353.090c-36.655 0-66.37 29.715-66.37 66.37l-0.006 38.293c-26.79 8.357-46.264 33.668-46.264 63.595s19.474 55.239 46.264 63.595l0.006 30.467c0 36.655 29.715 66.37 66.37 66.37l164.968 0.003 0.003 80.708c-17.335 5.702-29.927 20.742-30.793 38.621l-0.048 1.97c0 23.772 20.716 43.043 46.27 43.043zM690.884 551.017h-386.212c-10.473 0-18.963-8.49-18.963-18.963v0-228.158c0-10.473 8.49-18.963 18.963-18.963v0h386.212c10.473 0 18.963 8.49 18.963 18.963v0 228.158c0 10.473-8.49 18.963-18.963 18.963v0z" />
<glyph unicode="&#xe944;" d="M456.296 443.259c0-20.946-17.245-37.926-38.519-37.926s-38.519 16.98-38.519 37.926c0 20.946 17.245 37.926 38.519 37.926s38.519-16.98 38.519-37.926z" />
<glyph unicode="&#xe945;" d="M625.778 443.259c0-20.946-17.245-37.926-38.519-37.926s-38.519 16.98-38.519 37.926c0 20.946 17.245 37.926 38.519 37.926s38.519-16.98 38.519-37.926z" />
<glyph unicode="&#xe946;" d="M549.926 357.926c-10.41-17.004-29.866-28.445-52.148-28.445s-41.738 11.44-52.148 28.445z" />
<glyph unicode="&#xe947;" horiz-adv-x="1166" d="M606.011 409.335c0 0 8.615-85.158 79.917-106.288 71.308-21.133 109.851-7.687 152.25 36.497 0 0-11.565-86.445-59.746-119.1 0 0 113.706 13.782 150.322 131.751 0 0 109.849 7.839 115.631 109.004 0 0 105.994 35.859 119.483 131.905 13.492 96.046-32.759 124.859-94.429 161.356 0 0 24.714 55.109-45.244 109.851-49.036 28.674-107.003-2.278-107.003-2.278s-26.982 94.125-158.030 97.967c-40.471 0-105.209-40.34-111.384-84.522 0 0-76.904 46.103-147.534-3.84-70.63-49.945-50.281-142.149-26.731-184.41 0 0-75.623-72.994-34.707-176.723 40.913-103.731 167.204-101.171 167.204-101.171z" />
<glyph unicode="&#xe948;" horiz-adv-x="1166" d="M773.063 489.625h12.358c25.518 0 46.206-19.932 46.206-44.517s-20.688-44.515-46.206-44.515h-12.358c-25.521 0-46.206 19.929-46.206 44.515s20.685 44.517 46.206 44.517zM828.021 514.673h-97.819v9.426c0 16.033 1.886 29.055 5.663 39.059 3.777 10.002 9.397 19.135 16.863 27.405 7.466 8.267 24.238 22.818 50.325 43.651 13.902 10.912 20.851 20.913 20.851 30.008 0 9.092-2.793 16.162-8.365 21.204-5.58 5.042-14.030 7.566-25.356 7.566-12.19 0-22.267-3.886-30.248-11.657-7.981-7.774-13.086-21.33-15.316-40.673l-99.878 11.904c3.433 35.382 16.775 63.861 40.029 85.44 23.251 21.574 58.903 32.365 106.955 32.365 37.412 0 67.617-7.525 90.615-22.568 31.232-20.338 46.846-47.455 46.846-81.346 0-14.057-4.036-27.616-12.096-40.676-8.069-13.063-24.545-29.016-49.423-47.863-17.338-13.23-28.276-23.853-32.824-31.871-4.548-8.020-6.82-18.475-6.82-31.373v0z" />
<glyph unicode="&#xe949;" horiz-adv-x="1166" d="M356.325 59.253c-58.318-0.014-66.271-31.205-34.461-35.446s98.080-24.761 66.271-34.338c-31.81-9.576-38.437-41.041 13.254-42.409s312.797-2.736 355.21 0c42.413 2.736 20.65 39.673-30.763 38.305s-27.675 16.225 53.236 17.005c80.908 0.78 139.226 48.083 43.797 51.11-95.43 3.023-334.3 5.773-334.3 5.773s-73.926 0.014-132.244 0z" />
<glyph unicode="&#xe94a;" horiz-adv-x="1166" d="M503.468 28.003c0 0-24.57 6.328-34.981 0s-2.266-33.055 52.994-23.646l-18.013 23.646z" />
<glyph unicode="&#xe94b;" horiz-adv-x="1166" d="M624.83 28.003c0 0 24.572 6.328 34.979 0 10.41-6.328 2.266-33.055-52.994-23.646l18.015 23.646z" />
<glyph unicode="&#xe94c;" horiz-adv-x="1166" d="M466.473 68.371c0 0-24.568 5.031-20.358-22.024 4.212-17.618 75.367-43.977 75.367-43.977v53.093l-55.008 12.908z" />
<glyph unicode="&#xe94d;" horiz-adv-x="1166" d="M559.407 185.21v-15.036c0 0 12.981-14.892 28.444 0v15.036c0 0-19.011 15.277-28.444 0" />
<glyph unicode="&#xe94e;" horiz-adv-x="1166" d="M661.826 68.371c0 0 24.568 5.031 20.355-22.024-4.209-17.618-75.366-43.977-75.366-43.977v53.093l55.011 12.908z" />
<glyph unicode="&#xe94f;" horiz-adv-x="1166" d="M594.203 178.038c-10.819 3.957-22.354 5.293-33.656 4.007-5.76-0.655-11.459-1.991-16.972-4.007l-23.739-8.682c0 0-34.338-18.634-6.308-114.568 0 0 16.818-14.492 55.361-14.492 38.54 0 55.361 14.492 55.361 14.492 28.030 95.934-6.308 114.568-6.308 114.568l-23.739 8.682z" />
<glyph unicode="&#xe950;" horiz-adv-x="1166" d="M551.801 294.002c0 0-17.029 4.908-25.042-5.883-8.012-10.793 0-25.017 0-25.017s-12.522-2.455-14.525-17.663c-2.003-15.205 9.515-20.112 9.515-20.112s-7.011-10.791 1.004-22.565c5.008-6.867 21.536 0 21.536 0s0.501-6.376 7.512-8.829c7.011-2.455 13.524 5.395 13.524 5.395s8.513-11.251 25.542-5.872c17.029 5.382 14.523 19.118 14.523 19.118s12.525-2.452 18.532 7.357c6.012 9.81-4.504 21.584-4.504 21.584s7.011 13.246 0 27.96c-7.014 14.717-18.031 9.322-18.031 9.322s1.502 14.227-7.514 19.132c-9.014 4.905-19.533-6.376-19.533-6.376s0.501 14.376-10.516 14.224c-11.653-0.16-12.021-11.774-12.021-11.774z" />
<glyph unicode="&#xe951;" horiz-adv-x="1166" d="M513.499 68.741c0 0-3.373-28.404 0-46.929s53.82-20.375 78.009-19.14c24.184 1.234 41.626 9.879 31.178 66.069 0 0-53.797-24.399-109.186 0z" />
<glyph unicode="&#xe952;" horiz-adv-x="1166" d="M512.025 116.148c1.184-6.307 2.136-12.623 3.075-18.932l2.601-18.943 2.174-18.968c0.63-6.326 1.286-12.655 1.607-19.008-1.632 6.269-2.897 12.563-4.039 18.867-1.155 6.304-1.971 12.628-2.901 18.946-0.664 6.329-1.434 12.655-1.865 18.998-0.431 6.34-0.774 12.685-0.651 19.041z" />
<glyph unicode="&#xe953;" horiz-adv-x="1166" d="M606.791 116.148c0.118-6.356-0.22-12.702-0.659-19.039-0.427-6.343-1.196-12.672-1.859-19.001-0.93-6.318-1.741-12.642-2.903-18.944-1.137-6.302-2.4-12.601-4.036-18.868 0.321 6.354 0.98 12.683 1.61 19.009l2.176 18.966 2.595 18.947c0.938 6.313 1.889 12.623 3.076 18.93z" />
<glyph unicode="&#xe954;" horiz-adv-x="1166" d="M322.37-7.111c0-5.238-12.734-9.481-28.443-9.481s-28.446 4.244-28.446 9.481c0 5.238 12.736 9.481 28.446 9.481s28.443-4.244 28.443-9.481z" />
<glyph unicode="&#xe955;" horiz-adv-x="1166" d="M948.148 2.37c0-5.236-16.982-9.481-37.926-9.481-20.946 0-37.926 4.245-37.926 9.481 0 5.239 16.98 9.481 37.926 9.481 20.944 0 37.926-4.242 37.926-9.481z" />
<glyph unicode="&#xe956;" horiz-adv-x="1166" d="M834.37-40.296c0-2.617-6.367-4.741-14.221-4.741-7.857 0-14.224 2.124-14.224 4.741 0 2.622 6.367 4.741 14.224 4.741 7.854 0 14.221-2.119 14.221-4.741z" />
<glyph unicode="&#xe957;" horiz-adv-x="1166" d="M406.622 842.685l-329.552-88.244c-55.362-14.826-88.292-71.977-73.553-127.651l60.265-227.627c14.208-53.667 67.528-86.357 120.941-75.367 29.096-41.682 81.118-61.896 75.77-54.411-17.529 24.55-23.581 49.512-25.386 67.699l285.157 76.355c55.362 14.826 88.292 71.977 73.55 127.654l-60.262 227.621c-14.739 55.677-71.568 88.794-126.93 73.971z" />
<glyph unicode="&#xe958;" horiz-adv-x="1166" d="M309.663 500.509l9.385 2.824c19.374 5.831 39.827-5.089 45.68-24.392h0.003c5.853-19.303-5.109-39.676-24.485-45.51l-9.382-2.824c-19.376-5.831-39.829 5.089-45.683 24.392s5.109 39.679 24.482 45.51zM345.429 532.733l-74.271-22.352-2.245 7.4c-3.819 12.587-5.486 23.243-5 31.959 0.484 8.716 2.577 17.17 6.276 25.37 3.702 8.194 12.97 23.452 27.817 45.77 7.957 11.745 10.853 21.184 8.688 28.327-2.165 7.137-5.968 12.049-11.403 14.736-5.436 2.681-12.451 2.731-21.052 0.143-9.255-2.784-15.98-8.139-20.19-16.063-4.207-7.927-4.859-19.738-1.944-35.435l-78.67-13.477c-5.819 28.56-2.471 53.97 10.050 76.227 12.515 22.252 37.018 38.868 73.502 49.85 28.405 8.549 53.129 9.546 74.173 2.991 28.556-8.83 46.869-26.552 54.94-53.159 3.345-11.037 3.51-22.601 0.497-34.698-3.013-12.1-11.725-28.39-26.128-48.875-10.013-14.349-15.789-25.187-17.331-32.521-1.545-7.336-0.782-16.066 2.29-26.191v0z" />
<glyph unicode="&#xe959;" horiz-adv-x="951" d="M502.755 145.251v120.927c3.846 9.505 4.333 20.417 0.564 30.836l-0.564 1.555v114.799c8.338 10.3 15.96 20.736 21.827 30.599 0 0 0 0 0.002 0 0.26 0.077 13.502 4.112 20.597 14.499h0.022c1.318 1.97 2.453 4.147 3.214 6.577l47.54 20.407c0.304 0.147 11.485 5.602 15.995 6.102 0.504 0.057 1.203 0.080 2.051 0.080 1.57 0 3.649-0.077 5.952-0.152 2.306-0.075 4.834-0.15 7.3-0.15 2.601 0 5.134 0.082 7.257 0.34 2.63 0.31 4.63 0.897 5.376 1.907 0.165 0.227 0.319 0.455 0.462 0.677 0.002 0.002 0.002 0.002 0.002 0.005 0.002 0.005 0.005 0.007 0.007 0.012 0.449 0.705 0.786 1.395 1.038 2.045 1.016 2.63 0.664 4.65 0.664 4.65s1.17 0.647 2.488 1.662c1.238 0.95 2.601 2.22 3.239 3.58 0.097 0.202 0.177 0.41 0.237 0.617 0.404 1.402-0.207 3.072-0.986 4.465-0.886 1.587-1.987 2.82-2.064 2.902 0.125 0.080 3 1.987 4.213 5.005 0.666-0.030 1.335-0.048 2.002-0.048 4.862 0 9.803 0.832 14.635 2.587l60.296 21.896c0.841-0.462 1.844-0.712 2.863-0.712 2.059 0 4.18 1.025 5.146 3.392 0.037 0.090 0.075 0.18 0.11 0.27l153.859 55.875c4.832 1.755 9.776 2.587 14.637 2.587 17.58 0 34.091-10.887 40.425-28.394l4.53-12.507c8.086-22.346-3.457-47.055-25.763-55.157l-185.899-67.509c-22.306-8.102-33.849-32.813-25.76-55.157l4.525-12.512c6.347-17.529 22.841-28.394 40.408-28.394 4.869 0 9.818 0.835 14.66 2.592l62.639 22.749c4.832 1.755 9.776 2.587 14.637 2.587 17.58 0 34.091-10.887 40.428-28.394l4.525-12.509c8.106-22.389-3.449-47.055-25.76-55.155l-363.577-132.036zM47.519 405.681c-17.585 0-34.069 10.894-40.403 28.399l-4.53 12.509c-8.086 22.341 3.414 47.040 25.763 55.157l74.736 27.139v-105.755l-40.904-14.857c-4.844-1.757-9.796-2.592-14.662-2.592zM547.687 502.104c-1.562 2.352-5.348 8.072-9.511 14.449 25.356 14.422 46.622 33.091 64.379 53.507 0.706-0.902 1.278-1.457 1.58-1.727 0.419-2.772 1.113-5.545 2.104-8.282l0.252-0.692v-11.699c0 0-7.999-7.635-9.396-12.849-1.398-5.217 0.382-11.069-1.27-13.487s-13.082-7.125-13.082-7.125c0 0 0-0.002 0-0.007h-0.010l-0.302-0.117c-0.821-0.272-3.145-1.050-6.681-2.245-4.462-1.53-10.821-3.727-18.451-6.345-3.002-1.065-6.237-2.2-9.611-3.38zM538.176 516.554c-1.492 2.28-3.040 4.652-4.54 6.98 1.505-2.325 3.045-4.695 4.54-6.98zM527.524 533.1c-1.72 2.73-3.117 5.020-3.961 6.545 0.849-1.515 2.249-3.812 3.961-6.545zM546.005 570.503c2.798 4.2 5.496 8.667 8.086 13.427 19.973 12.522 30.048 33.693 34.538 56.532 0.591 3.010 1.083 6.047 1.487 9.1 0.407 3.032 0.726 6.077 0.968 9.12 2.044 25.316-1.175 50.433-4.028 66.289 0 0 0.596 1.625 1.375 4.4 7.841-7.052 18.109-11.052 28.765-11.052 4.864 0 9.806 0.832 14.637 2.587l17.355 6.302c-32.726-97.013-72.792-138.821-103.184-156.705zM641.108 625.281c30.18 53.64 41.82 104.752 43.942 114.952l104.392 37.911c4.832 1.752 9.778 2.587 14.637 2.587 17.582 0 34.091-10.887 40.428-28.394l4.53-12.509c8.089-22.346-3.449-47.053-25.763-55.157l-88.15-32.013c-0.319 1.007-0.651 2.007-0.991 3-0.834 2.457-2.883 3.52-4.919 3.52-3.090 0-6.149-2.452-4.882-6.207 0.132-0.397 0.267-0.795 0.399-1.195l-83.623-26.494zM574.037 792.79c-7.495 5.125-17.897 8.645-32.184 9.452 0 0-13.412 18.834-39.097 29.471v53.825l144.95 52.64c4.834 1.755 9.778 2.587 14.637 2.587 17.582 0 34.094-10.884 40.428-28.391l4.527-12.507c8.106-22.389-3.452-47.055-25.76-55.157l-83.533-30.336c-10.909-3.962-19.244-11.894-23.966-21.584z" />
<glyph unicode="&#xe95a;" horiz-adv-x="951" d="M458.182-55.569c-147.3 0-273.65 25.234-327.424 61.172 0.297-0.015 0.596-0.027 0.893-0.032 2.843-0.067 29.649-1.88 41.663-1.88 2.83 0 4.839 0.1 5.52 0.347l0.167 0.072c0.746-0.047 1.495-0.070 2.246-0.070 4.123 0 8.346 0.71 12.526 2.23l284.903 103.632c14.183 5.16 23.714 18.502 24.068 33.553 175.080-6.167 310.536-48.195 310.536-99.123 0-55.172-158.983-99.903-355.099-99.903z" />
<glyph unicode="&#xe95b;" horiz-adv-x="951" d="M461.104 919.499v-770.543c0-15.404-9.623-29.161-24.081-34.421l-258.189-110.497c-3.574-1.297-43.672 1.447-47.183 1.532-15.239 0.352-28.566 12.804-28.566 29.336v782.725c0 15.479 9.713 29.286 24.268 34.491l284.903 101.865c11.904 4.257 53.38 1.965 62.619-4.555 9.237-6.522-13.771-17.274-13.771-29.934z" />
<glyph unicode="&#xe95c;" horiz-adv-x="951" d="M502.755 914.867v-770.543c0-15.404-9.623-29.164-24.078-34.421l-284.903-103.632c-23.841-8.672-49.038 9.015-49.038 34.421v772.308c0 15.479 9.713 29.286 24.268 34.491l284.903 101.865c23.806 8.512 48.848-9.167 48.848-34.488z" />
<glyph unicode="&#xe95d;" horiz-adv-x="951" d="M486.221 867.184v-654.661c0-8.43-5.755-15.959-14.403-18.832l-277.857-92.481c-14.265-4.747-29.339 4.935-29.339 18.832v656.236c0 2.872 0.669 5.652 1.919 8.152 2.358 4.91 6.843 8.847 12.601 10.724l277.855 90.906c14.243 4.655 29.225-5.027 29.225-18.877z" />
<glyph unicode="&#xe95e;" horiz-adv-x="951" d="M486.221 308.756c-26.891 5.14-51.913 14.792-75.15 27.984 13.285 1.642 22.571 4.44 22.571 4.44s26.507 23.816 52.579 52.86v-85.283zM326.874 406.781c-12.701 14.344-24.602 29.741-35.713 45.848 11.692 3.072 23.118 9.907 33.812 17.724 20.467 14.954 38.281 33.513 50.338 36.211 2.493 0.56 5.932 0.735 10.15 0.735 3.604 0 7.774-0.127 12.411-0.257 3.669-0.1 7.637-0.202 11.84-0.24-0.057-11.682 0.557-21.354 0.557-21.354s-42.684-58.272-79.772-59.797l-0.022-0.095c-0.255-0.865-2.416-8.437-3.599-18.774zM251.294 519.303c-11.622 22.349-22.014 45.213-31.199 67.889 18.83-4.88 36.522-8.27 42.16-20.409 5.011-10.794-3.399-28.759-10.961-47.48zM176.441 727.286c-4.744 21.556-8.021 40.933-9.9 57.145 2.358 4.91 6.843 8.847 12.601 10.724l277.855 90.906c2.463 0.805 4.949 1.18 7.375 1.18 11.602 0 21.85-8.602 21.85-20.057v-30.361c-6.002 1.257-12.473 1.99-19.406 1.99-7.033 0-14.54-0.755-22.511-2.48-1.185-0.255-2.343-0.522-3.481-0.792-0.619-0.145-1.228-0.292-1.834-0.44-0.087-0.022-0.172-0.042-0.257-0.062-57.875-14.302-57.498-43.708-92.48-50.618-7.931-1.567-17.615-1.78-28.441-1.78-2.029 0-4.098 0.007-6.207 0.015-2.106 0.007-4.255 0.015-6.431 0.015-36.814 0-82.864-2.152-118.782-42.865-3.689-4.18-6.993-8.357-9.948-12.519z" />
<glyph unicode="&#xe95f;" horiz-adv-x="951" d="M290.072 105.903v-24.579c0-7.462 7.412-12.649 14.41-10.082l82.081 30.121c4.225 1.55 7.033 5.575 7.033 10.082v22.041c0 7.34-7.185 12.514-14.131 10.182l-82.081-27.584c-4.37-1.467-7.312-5.567-7.312-10.182z" />
<glyph unicode="&#xe960;" horiz-adv-x="951" d="M273.813 844.815l108.051 37.283c3.020 1.040 5.026 3.912 4.966 7.112-0.095 4.975-4.976 8.43-9.688 6.86l-108.076-36.026c-3.057-1.020-5.099-3.912-5.039-7.14l0.025-1.255c0.095-5.007 5.036-8.465 9.761-6.835z" />
<glyph unicode="&#xe961;" horiz-adv-x="951" d="M909.534 694.115c-8.076-5.527-13.791-3.715-21.762 0.575-5.326 2.867-11.253 5.602-17.465 4.567-14.28-2.382-16.549-14.849-22.733-25.706-2.046-3.597-5.276-6.602-8.805-8.687-5.216-3.075-11.587 1.885-16.167 4.167-6.843 3.415-13.664 4.652-21.201 3.162-6.519-1.29-11.867-5.982-15.139-11.574-3.898-6.66-2.428-15.419-11.732-17.344-4.078-0.842-2.348-7.075 1.715-6.235 5.917 1.222 10.070 4.76 12.249 10.434 3.259 8.495 4.712 15.682 14.627 18.484 9.798 2.767 17.173-4.157 25.721-7.222 7.125-2.555 12.83-0.445 18.381 4.352 10 8.65 9.98 28.949 25.593 29.921 7.010 0.437 13.187-5.402 19.459-7.692 7.567-2.767 13.961-1.275 20.517 3.212 3.414 2.337 0.19 7.942-3.257 5.585z" />
<glyph unicode="&#xe962;" horiz-adv-x="951" d="M776.202 550.644c9.706 1.175 13.951-3.070 19.050-10.559 3.412-5.002 7.41-10.162 13.402-12.112 13.766-4.475 21.518 5.542 31.997 12.324 3.472 2.247 7.722 3.427 11.815 3.645 6.042 0.322 9.419-7.020 12.429-11.159 4.505-6.187 9.985-10.432 17.363-12.589 6.381-1.865 13.285-0.167 18.763 3.285 6.524 4.112 9.247 12.567 18.391 9.98 4.003-1.132 5.336 5.197 1.343 6.325-5.812 1.647-11.123 0.422-15.668-3.61-6.801-6.032-11.398-11.742-21.485-9.65-9.968 2.062-13.329 11.612-19.504 18.277-5.151 5.557-11.186 6.32-18.316 4.62-12.858-3.062-22.174-21.086-36.479-14.744-6.424 2.85-9.219 10.882-13.729 15.809-5.448 5.947-11.807 7.575-19.693 6.62-4.105-0.5-3.821-6.965 0.324-6.46z" />
<glyph unicode="&#xe963;" horiz-adv-x="951" d="M925.931 598.587c-9.524-2.225-14.2 1.537-20.083 8.425-3.928 4.605-8.465 9.302-14.63 10.587-14.173 2.955-20.792-7.845-30.475-15.727-3.209-2.61-7.31-4.242-11.35-4.905-5.975-0.977-10.125 5.957-13.567 9.745-5.146 5.66-11.053 9.287-18.62 10.629-6.544 1.162-13.222-1.275-18.296-5.302-6.040-4.797-7.829-13.497-17.2-11.917-4.108 0.692-4.747-5.745-0.654-6.435 5.96-1.005 11.103 0.79 15.186 5.29 6.109 6.737 10.058 12.912 20.315 11.929 10.132-0.972 14.507-10.1 21.366-16.054 5.72-4.967 11.805-5.067 18.708-2.605 12.451 4.44 19.763 23.369 34.668 18.617 6.696-2.132 10.342-9.815 15.361-14.224 6.060-5.32 12.556-6.247 20.292-4.44 4.026 0.94 3.045 7.337-1.021 6.387z" />
<glyph unicode="&#xe964;" horiz-adv-x="951" d="M373.688 306.266c9.341 0.805 18.129 1.902 26.599 3.662 8.438 1.775 16.504 4.192 23.881 7.815 3.696 1.785 7.23 3.852 10.607 6.187 3.339 2.387 6.506 5.045 9.563 7.957 6.025 5.915 11.286 12.949 16.696 20.687-0.484-9.42-3.704-18.744-9.122-26.934-2.758-4.062-6.107-7.762-9.848-11.047-3.796-3.225-8.029-5.92-12.478-8.107-8.94-4.365-18.785-6.27-28.351-6.307-9.566 0.062-19.095 1.785-27.547 6.087z" />
<glyph unicode="&#xe965;" horiz-adv-x="951" d="M294.697 394.762c0.292-9.367 1.457-18.272 3.621-26.774 2.146-8.487 5.391-16.489 9.855-23.741 2.191-3.65 4.697-7.117 7.502-10.362 1.318-1.705 2.902-3.172 4.33-4.807 1.6-1.455 3.055-3.1 4.747-4.492 6.529-5.88 13.906-11.049 21.707-16.304-9.306 1.37-18.301 4.862-26.439 10.032-2.084 1.222-3.953 2.772-5.907 4.217-1.839 1.585-3.724 3.142-5.403 4.927-1.764 1.702-3.297 3.62-4.882 5.5-1.447 1.985-2.922 3.96-4.175 6.085-5.164 8.4-8.213 18.027-9.052 27.659-0.424 4.82-0.324 9.652 0.337 14.379 0.711 4.712 1.752 9.385 3.759 13.682z" />
<glyph unicode="&#xe966;" horiz-adv-x="951" d="M606.491 554.104v-32.103h22.229v49.533h-22.229v-17.429" />
<glyph unicode="&#xe967;" horiz-adv-x="951" d="M628.72 541.197h0.002v26.936h-0.002z" />
<glyph unicode="&#xe968;" horiz-adv-x="951" d="M587.057 724.971c0 0 26.931 73.189-45.212 77.261 0 0-34.039 47.835-97.541 34.093-63.508-13.739-61.983-44.78-98.053-51.905-9.419-1.86-21.306-1.812-34.648-1.765-37.762 0.135-87.174 0.27-125.214-42.85-53.091-60.177-27.285-120.134-1.375-138.453 25.908-18.319 67.95-14.559 77.242-34.568 11.176-24.074-44.393-83.801-8.468-108.055 46.739-31.548 96.526 42.24 121.523 47.835 4.622 1.037 12.496 0.757 22.561 0.477 55.674-1.542 178.424-3.085 189.186 217.929" />
<glyph unicode="&#xe969;" horiz-adv-x="951" d="M278.442 450.907c-8.216 0-16.484 2.292-24.665 7.815-3.644 2.47-6.347 5.3-8.271 8.42 1.927-3.12 4.632-5.95 8.281-8.412 8.176-5.52 16.452-7.815 24.665-7.815 4.255 0 8.5 0.617 12.706 1.72l0.002-0.005c-4.21-1.105-8.455-1.722-12.718-1.722z" />
<glyph unicode="&#xe96a;" horiz-adv-x="951" d="M291.16 452.629l-0.002 0.005c11.697 3.065 23.115 9.9 33.814 17.719-10.694-7.817-22.119-14.652-33.812-17.724z" />
<glyph unicode="&#xe96b;" horiz-adv-x="951" d="M245.507 467.141c-0.002 0.005-0.002 0.007-0.005 0.010 0.002-0.005 0.002-0.005 0.005-0.010z" />
<glyph unicode="&#xe96c;" horiz-adv-x="951" d="M546.003 570.503c2.8 4.2 5.498 8.665 8.089 13.427-2.591-4.76-5.288-9.227-8.086-13.427-0.005 0 0.002 0.003-0.002 0z" />
<glyph unicode="&#xe96d;" horiz-adv-x="951" d="M590.528 738.525c2.8 15.532 3.484 40.598-16.496 54.257 0.002 0.002 0.002 0.005 0.005 0.007 19.98-13.662 19.292-38.733 16.492-54.265z" />
<glyph unicode="&#xe96e;" horiz-adv-x="951" d="M574.032 792.783c-7.495 5.122-17.897 8.642-32.187 9.45 0 0-13.407 18.839-39.090 29.476v0.005c25.686-10.637 39.097-29.471 39.097-29.471 14.288-0.807 24.69-4.327 32.184-9.452-0.002-0.002-0.002-0.005-0.005-0.007z" />
<glyph unicode="&#xe96f;" horiz-adv-x="951" d="M502.755 831.708c-5.039 2.087-10.557 3.86-16.534 5.112v0.002c5.977-1.25 11.495-3.022 16.534-5.11v-0.005z" />
<glyph unicode="&#xe970;" horiz-adv-x="951" d="M438.73 834.963c0.085 0.020 0.17 0.041 0.257 0.064-0.085-0.023-0.17-0.043-0.255-0.064-0.002 0-0.002 0-0.002 0zM440.822 835.476c1.138 0.275 2.296 0.548 3.481 0.808 7.971 1.759 15.478 2.529 22.511 2.529 6.933 0 13.404-0.747 19.406-2.029v-0.003c-6 1.28-12.468 2.027-19.396 2.027-7.038 0-14.545-0.77-22.521-2.532-1.183-0.26-2.343-0.528-3.481-0.801z" />
<glyph unicode="&#xe971;" horiz-adv-x="951" d="M278.452 450.914c-8.213 0-16.489 2.295-24.665 7.815-3.649 2.462-6.354 5.292-8.281 8.412-0.002 0.005-0.002 0.005-0.005 0.010-2.491 4.045-3.676 8.575-3.911 13.434 0.207-0.162 0.439-0.325 0.671-0.487 7.637-5.152 15.363-7.297 23.035-7.297 36.182 0 71.197 47.655 90.449 51.975 8.772 1.965 30.857 5.395 57.056 14.222-2.376-8.142-3.040-21.076-3.092-32.191-4.208 0.037-8.171 0.14-11.845 0.24-4.639 0.13-8.815 0.257-12.419 0.257-4.215 0-7.649-0.175-10.14-0.732-12.054-2.702-29.873-21.261-50.336-36.218-10.699-7.82-22.117-14.654-33.814-17.719-4.205-1.102-8.45-1.72-12.706-1.72zM452.561 555.982c7.46 3.977 14.894 8.472 22.134 13.559l-2.104-12.062c-0.005 0-0.010 0-0.012-0.002 0 0-9.049-0.285-20.018-1.495zM503.726 557.377c-1.897 0-3.145 0.115-3.654 0.172l-0.275 0.045 2.054 13.337h0.002c1.235-0.052 2.486-0.077 3.746-0.077 4.6 0 9.371 0.35 14.305 1.112 7.15 1.102 14.645 3.070 22.456 6.102 4.245 1.65 8.146 3.617 11.73 5.862-2.591-4.762-5.288-9.227-8.089-13.427-19.693-11.584-35.331-13.127-42.277-13.127zM587.057 724.971c-1.854 10.307-3.554 16.702-3.554 16.702-0.002 0-0.005 0-0.007 0 0 0.002 0 0.005 0 0.005-0.437-0.045-0.876-0.062-1.313-0.062-0.257 0-0.514 0.005-0.769 0.015 0-0.005 0.002-0.010 0.002-0.015-10.295 0.335-20.51 9.487-26.776 16.387-0.339 20.074-9.107 40.966-43.355 42.895 0 0-24.315 34.173-70.109 34.173-0.811 0-1.622-0.012-2.446-0.032 0.087 0.020 0.172 0.040 0.257 0.062 0.606 0.147 1.218 0.295 1.834 0.44 1.138 0.267 2.299 0.53 3.481 0.785 7.976 1.727 15.483 2.482 22.521 2.482 6.928 0 13.397-0.732 19.396-1.987 5.977-1.252 11.495-3.025 16.534-5.112 25.683-10.637 39.090-29.476 39.090-29.476 14.29-0.807 24.692-4.327 32.187-9.45 19.98-13.659 19.297-38.726 16.496-54.257-1.452-8.057-3.472-13.549-3.472-13.549z" />
<glyph unicode="&#xe972;" horiz-adv-x="951" d="M591.085 658.682c-0.487-6.105-1.283-12.212-2.461-18.217-5.301-26.931-18.348-51.56-46.27-62.389-14.672-5.7-28.229-7.655-40.5-7.145-9.471 0.387-18.171 2.22-26.052 4.925-31.6 10.849-49.789 35.541-49.789 35.541s-34.303-8.895-34.283 30.026c0 15.144 11.585 24.201 20.322 24.934 15.241 1.282 22.089-6.615 22.089-6.615s19.307 1.017 23.879 20.357c4.572 19.337 9.144 52.922 29.467 64.119 20.32 11.197 54.868 4.072 60.965 21.374 0 0 17.779-25.446 35.052-23.919 0 0 10.954-41.221 7.582-82.991" />
<glyph unicode="&#xe973;" horiz-adv-x="951" d="M481.067 574.213c-1.797 0.5-3.554 1.045-5.273 1.632-12.067 4.15-22.179 10.317-30.071 16.357 7.891-6.037 18.004-12.202 30.078-16.347 1.717-0.59 3.474-1.137 5.268-1.64-0.005-0.002 0.002 0.002-0.002-0.002z" />
<glyph unicode="&#xe974;" horiz-adv-x="951" d="M499.525 571.056c-6.541 0.427-12.698 1.555-18.458 3.157 0.005 0.005-0.002 0 0.002 0.002 5.763-1.607 11.919-2.725 18.456-3.16z" />
<glyph unicode="&#xe975;" horiz-adv-x="951" d="M554.091 583.93c0.005 0.007 0.002 0.002 0.005 0.010 19.973 12.517 30.033 33.693 34.528 56.525 0.591 3.010 1.086 6.047 1.492 9.097-0.404-3.052-0.896-6.090-1.487-9.1-4.49-22.839-14.565-44.010-34.538-56.532z" />
<glyph unicode="&#xe976;" horiz-adv-x="951" d="M554.091 583.93c0.002 0.007 0 0.002 0.005 0.010-0.002-0.007 0-0.002-0.005-0.010z" />
<glyph unicode="&#xe977;" horiz-adv-x="951" d="M519.905 571.966c7.15 1.105 14.64 3.077 22.449 6.11 4.25 1.647 8.156 3.615 11.742 5.865-0.005-0.007-0.002-0.002-0.005-0.010-3.584-2.245-7.485-4.212-11.73-5.862-7.812-3.032-15.306-5-22.456-6.102z" />
<glyph unicode="&#xe978;" horiz-adv-x="951" d="M581.993 741.608c-0.192 0-0.384 0.002-0.577 0.007 0 0.005-0.002 0.010-0.002 0.015 0.255-0.010 0.512-0.015 0.769-0.015 0.437 0 0.876 0.017 1.313 0.062 0 0 0-0.002 0-0.005-0.502-0.045-1.001-0.065-1.502-0.065z" />
<glyph unicode="&#xe979;" horiz-adv-x="951" d="M582.742 514.199c0 0-4.572-21.371 13.21-28.754 0 0 11.43 5.6 16.002 6.107 1.438 0.16 4.455 0.045 8.004-0.072 7.744-0.255 18.021-0.507 19.941 2.11 2.793 3.817 2.159 7.38 2.159 7.38s5.079 2.797 5.967 5.85c0.888 3.052-3.047 7.38-3.047 7.38s5.333 3.435 4.699 8.525c-0.634 5.087-6.861 6.487-6.861 6.487s1.525 4.962-1.143 8.907c-2.665 3.942-13.334 3.052-13.334 3.052v-10.559c0 0-11.812-7.887-21.847 0v17.049c0 0-7.999-7.635-9.396-12.849-1.398-5.217 0.382-11.069-1.27-13.487s-13.082-7.125-13.082-7.125" />
<glyph unicode="&#xe97a;" horiz-adv-x="951" d="M634.515 491.67c2.63 0.32 4.637 0.902 5.383 1.92 0.162 0.222 0.314 0.445 0.454 0.665-0.142-0.222-0.297-0.45-0.462-0.677-0.746-1.010-2.745-1.597-5.376-1.907zM641.4 496.317c1.016 2.63 0.656 4.652 0.656 4.652s1.175 0.647 2.496 1.66c-1.318-1.015-2.488-1.662-2.488-1.662s0.352-2.020-0.664-4.65zM647.792 506.209c0.095 0.2 0.172 0.405 0.232 0.61 0.409 1.402-0.202 3.075-0.981 4.472 0.779-1.392 1.39-3.062 0.986-4.465-0.060-0.207-0.14-0.415-0.237-0.617z" />
<glyph unicode="&#xe97b;" horiz-adv-x="951" d="M649.192 519.198v0c0.247 0.62 0.427 1.285 0.499 1.99-0.070-0.705-0.25-1.37-0.499-1.99z" />
<glyph unicode="&#xe97c;" horiz-adv-x="951" d="M644.979 514.194c-0.002 0.002-0.002 0.005-0.002 0.005s2.97 1.915 4.215 5c-1.213-3.017-4.088-4.925-4.213-5.005z" />
<glyph unicode="&#xe97d;" horiz-adv-x="951" d="M648.308 525.916c-2.022 2.515-5.493 3.295-5.493 3.295s0.377 1.227 0.429 2.942c-0.047-1.71-0.419-2.93-0.419-2.93s3.467-0.787 5.483-3.307zM628.722 541.197v0c0.429 0.025 1.18 0.060 2.116 0.060 0.090 0 0.18 0 0.272-0.003-0.080 0.003-0.16 0.003-0.237 0.003-0.956 0-1.72-0.035-2.151-0.060z" />
<glyph unicode="&#xe97e;" horiz-adv-x="951" d="M628.72 541.195l0.002 0.003c0-0.003-0.002-0.003-0.002-0.003z" />
<glyph unicode="&#xe97f;" horiz-adv-x="951" d="M628.338 538.532c-0.005 0-0.007 0-0.010 0v2.64c0 0 0.14 0.012 0.392 0.025v-0.003c-0.247-0.012-0.382-0.025-0.382-0.025v-2.637z" />
<glyph unicode="&#xe980;" horiz-adv-x="951" d="M706.248 782.576c-1.203-11.092-19.559-38.306-21.64-41.363l-0.187-0.277c-15.675-6.185-29.062 3.172-29.062 3.172s2.591 10.377-3.307 15.494c-5.248 4.517-21.825 17.047-15.955 20.707 2.883 1.79 7.148-0.115 11.103-2.020 4.133-1.99 7.929-3.98 9.451-1.757 1.804 2.617 2.361 15.034 4.070 24.506 1.111 6.162 2.705 11.094 5.458 11.302 2.149 0.162 3.097-7.48 3.514-15.542 0.462-8.847 0.255-18.182 0.255-18.182s1.318 7.32 3.352 15.519c2.66 10.747 6.544 22.999 10.267 22.326 4.879-0.902-0.14-36.108-0.417-38.168 0.601 1.715 10.427 30.109 13.736 28.581 6.287-2.897-3.329-32.263-3.793-33.653 0.671 0.972 14.405 20.866 13.155 9.355" />
<glyph unicode="&#xe981;" horiz-adv-x="951" d="M560.487 470.233l-12.069-5.19c-0.761-2.43-1.897-4.607-3.214-6.577h-0.022c-7.168-10.492-20.599-14.499-20.599-14.499-26.936-45.28-90.94-102.788-90.94-102.788s-52.347-15.772-86.383 5.605c-33.295 20.891-17.502 76.339-16.786 78.771l0.022 0.095c37.088 1.525 79.772 59.797 79.772 59.797s-3.052 48.083 5.084 59.292c8.118 11.187 57.229 12.737 57.229 12.737 11.722 1.437 20.507 1.277 27.215 0.117l0.277-0.045c16.671-2.942 20.233-12.114 23.492-17.904 1.038-1.875 2.912-4.91 5.201-8.5l0.047-0.023c0.876-1.437 1.874-2.965 2.868-4.54 2.081-3.267 4.345-6.742 6.496-10.030 5.456-8.36 10.267-15.587 10.267-15.587l1.156 0.44 33.155 12.784 13.205-28.744-35.471-15.214z" />
<glyph unicode="&#xe982;" horiz-adv-x="951" d="M507.309 524.381c-15.471-6.277-35.561 28.256-35.561 28.256l4.046 23.209c7.886-2.687 16.579-4.54 26.057-4.912l-2.428-15.772c0 0 18.545-26.449 7.886-30.781" />
<glyph unicode="&#xe983;" horiz-adv-x="951" d="M685.419 742.070c0 0-29.484-158.537-147.243-225.517-5.783 8.847-12.276 18.922-14.612 23.091-3.259 5.79-6.821 14.962-23.492 17.904 5.433-0.602 95.887-7.9 155.796 190.591 0 0 14.011 3.912 25.364-2.92 1.41-0.832 2.753-1.83 4.046-3.035l0.142-0.115" />
<glyph unicode="&#xe984;" horiz-adv-x="951" d="M685.669 741.967c-0.989 0.855-1.998 1.636-3.030 2.348 1.036-0.708 2.040-1.49 3.030-2.348z" />
<glyph unicode="&#xe985;" horiz-adv-x="951" d="M547.308 674.563c7.045 0 7.175-18.192 0-18.192-7.178 0-6.479 18.192 0 18.192z" />
<glyph unicode="&#xe986;" horiz-adv-x="951" d="M507.806 663.471c0-5.057-4.095-9.157-9.144-9.157-5.051 0-9.147 4.1-9.147 9.157 0 5.060 4.095 9.162 9.147 9.162 5.049 0 9.144-4.102 9.144-9.162z" />
<glyph unicode="&#xe987;" horiz-adv-x="951" d="M503.336 671.341c-2.256 0.767-4.54 0.47-6.658-0.092-2.131-0.607-4.15-1.597-6.087-2.752l-1.455-0.88c-0.581-0.305-1.108-0.697-1.762-0.88-1.23-0.465-2.618-0.655-3.911-0.395-2.605 0.467-4.689 2.137-5.947 4.15 1.907-1.395 4.046-2.385 6.127-2.455 1.033-0.025 2.041 0.162 2.957 0.62 0.474 0.175 0.901 0.495 1.35 0.742l1.522 0.985c2.099 1.21 4.39 2.225 6.863 2.547 2.413 0.327 5.159 0.032 7-1.59z" />
<glyph unicode="&#xe988;" horiz-adv-x="951" d="M588.392 669.756c0-4.31-3.489-7.802-7.789-7.802-4.303 0-7.789 3.492-7.789 7.802s3.486 7.802 7.789 7.802c4.3 0 7.789-3.492 7.789-7.802z" />
<glyph unicode="&#xe989;" horiz-adv-x="951" d="M576.545 676.218c1.57 1.35 3.881 1.64 5.932 1.35 2.099-0.275 4.041-1.135 5.817-2.162l1.29-0.832c0.382-0.21 0.744-0.482 1.143-0.63 0.779-0.387 1.632-0.547 2.508-0.527 1.754 0.072 3.594 0.88 5.194 2.082-1.081-1.685-2.823-3.132-5.039-3.517-1.098-0.22-2.274-0.060-3.317 0.335-0.554 0.155-1.001 0.49-1.495 0.745l-1.233 0.747c-1.64 0.977-3.354 1.817-5.156 2.332-1.794 0.462-3.741 0.755-5.645 0.077z" />
<glyph unicode="&#xe98a;" horiz-adv-x="951" d="M476.625 698.247c-2.461-2.695-0.277-9.67 4.804-9.16s11.118 8.64 22.272 9.72c4.572 0.442 4.657 13.094-4.525 12.079-8.625-0.957-17.278-6.872-22.551-12.639z" />
<glyph unicode="&#xe98b;" horiz-adv-x="951" d="M597.835 701.837c2.066-2.262 0.235-8.12-4.033-7.692s-9.331 7.255-18.7 8.162c-3.838 0.372-3.911 10.994 3.798 10.142 7.242-0.805 14.51-5.77 18.935-10.612z" />
<glyph unicode="&#xe98c;" horiz-adv-x="951" d="M552.434 613.839c-4.472-4.905-11.36-8.752-21.623-8.957-17.253-0.345-25.281 10.382-27.859 18.769-1.428 4.6-1.203 8.51 0.037 9.505 0.205 0.165 0.427 0.327 0.671 0.49 11.238 7.595 53.363 5.455 55.576 1.242 0.245-0.467 0.407-1.2 0.492-2.097 0.364-4.212-1.36-12.497-7.295-18.952z" />
<glyph unicode="&#xe98d;" horiz-adv-x="951" d="M491.719 642.947c0-6.275-8.947-11.364-19.983-11.364-11.038 0-19.985 5.090-19.985 11.364 0 6.277 8.947 11.367 19.985 11.367 11.036 0 19.983-5.090 19.983-11.367z" />
<glyph unicode="&#xe98e;" horiz-adv-x="951" d="M586.756 658.682c-0.308-6.107-0.813-12.212-1.559-18.217-3.721 2.177-6.153 6.045-5.911 10.057 0.247 4.192 3.337 7.307 7.471 8.16z" />
<glyph unicode="&#xe98f;" horiz-adv-x="951" d="M415.343 623.611c0.127 1.747 0.557 3.47 1.175 5.137 0.616 1.665 1.51 3.28 2.82 4.622 1.31 1.34 3.157 2.227 5.064 2.44 1.944 0.297 3.791-0.267 5.548-0.82l-1.348-1.275c-1.066 2.665-2.591 5.305-4.465 7.5-1.879 2.197-4.235 3.972-6.958 4.712-2.69 0.85-5.588 0.177-7.966-1.52-2.366-1.72-4.3-4.142-5.81-6.802 1.006 2.895 2.635 5.657 5.019 7.805 2.343 2.145 5.982 3.3 9.227 2.4 3.264-0.7 6.037-2.762 8.136-5.17 2.091-2.46 3.651-5.215 4.747-8.267l0.731-2.027-2.079 0.75c-1.507 0.545-3.075 1.075-4.622 0.927-1.545-0.057-3.030-0.657-4.278-1.682-2.456-2.145-3.996-5.405-4.941-8.73l-479.953 7.972z" />
<glyph unicode="&#xe990;" horiz-adv-x="951" d="M732.747 547.66l-102.638 20.984v53.152l102.638 32.518c0 0 2.403-6.857 4.694-17.927 4.3-20.662 8.208-56.002-4.694-88.728" />
<glyph unicode="&#xe991;" horiz-adv-x="951" d="M630.11 621.796v-53.662h-25.738c0 0-8.413 6.37-8.413 26.819 0 0.555 0 1.087 0.047 1.645v0.045c0.577 14.337 8.366 25.154 8.366 25.154h25.738z" />
<glyph unicode="&#xe992;" horiz-adv-x="951" d="M734.132 546.315c-2.448-5.997-12.296-3.38-9.801 2.687l0.137 0.347c9.411 23.254 10.914 49.98 6.843 75.319-1.547 9.727-3.931 19.269-6.98 28.301-2.104 6.23 7.702 8.872 9.801 2.687 1.205-3.52 2.291-7.135 3.262-10.794 8.6-31.868 9.109-68.299-3.262-98.548z" />
<glyph unicode="&#xe993;" horiz-adv-x="951" d="M533.636 523.533c-1.707 2.637-3.364 5.22-4.854 7.572-0.002 0.005-0.002 0.010-0.005 0.015 1.148-1.812 2.396-3.762 3.691-5.77 0.384-0.602 0.774-1.207 1.168-1.817z" />
<glyph unicode="&#xe994;" horiz-adv-x="951" d="M532.468 525.351c-1.295 2.007-2.543 3.957-3.691 5.77-0.005 0.010-0.010 0.018-0.012 0.025l0.047-0.023c0.876-1.437 1.874-2.965 2.868-4.54 0.26-0.41 0.524-0.82 0.789-1.232z" />
<glyph unicode="&#xe995;" horiz-adv-x="951" d="M724.469 549.349l0.002 0.002c-0.002-0.002-0.002-0.002-0.002-0.002z" />
<glyph unicode="&#xe996;" horiz-adv-x="951" d="M307.407 619.804c-1.36 0-2.81 1.14-2.416 2.882 4.422 19.614 11.31 40.168 28.646 52.13 23.267 16.054 52.572 14.652 77.356 26.849 25.224 12.412 25.623 37.916 42.007 57.585 12.958 15.557 32.591 27.041 53.061 27.836 0.035 0 0.072 0 0.107 0 2.863 0 2.813-4.5-0.107-4.615-26.038-1.010-48.346-19.357-58.961-42.31-8.079-17.474-15.089-34.301-33.782-42.48-21.885-9.575-47.525-9.985-68.529-21.434-21.695-11.827-30.148-31.688-35.356-54.785-0.262-1.157-1.123-1.657-2.026-1.657z" />
<glyph unicode="&#xe997;" horiz-adv-x="951" d="M209.294 683.555c-1.148 0-2.221 0.735-2.076 2.21 4.113 41.548 35.613 67.907 74.294 78.249 24.62 6.582 49.437 4.45 74.264 8.707 29.487 5.052 47.316 25.731 71.664 40.683 0.402 0.247 0.799 0.355 1.173 0.355 1.979 0 3.277-3.032 1.151-4.337-20.587-12.644-37.44-32.693-61.641-38.806-23.113-5.837-47.121-3.102-70.421-7.615-41.73-8.082-81.31-31.091-85.877-77.236-0.147-1.47-1.375-2.21-2.531-2.21z" />
<glyph unicode="&#xe998;" horiz-adv-x="951" d="M272.565 493.54c-0.010 0-0.025 0-0.037 0-2.967 0.002-2.97 4.615-0.002 4.615 0.002 0 0.002 0 0.002 0 0.015 0 0.025 0 0.040 0 35.114 0.005 49.138 41.765 81.631 48.953 16.467 3.64 32.017 4.937 47.348 12.537 11.845 5.87 28.598 13.867 33.505 27.144 0.404 1.095 1.345 1.567 2.271 1.567 1.415 0 2.795-1.105 2.171-2.792-4.397-11.899-16.928-19.897-27.56-25.704-14.687-8.027-28.603-12.387-45.085-15.047-13.532-2.182-25.104-5.837-35.549-15.199-6.379-5.72-12.361-11.877-18.803-17.529-11.605-10.182-23.989-18.544-39.934-18.544z" />
<glyph unicode="&#xe999;" horiz-adv-x="951" d="M324.675 683.935c-1.65 0-3.182 2.312-1.749 4.040 11.812 14.267 27.682 19.842 44.73 25.496 10.976 3.642 22.514 7.405 31.84 14.497 9.296 7.067 13.946 16.607 20.18 26.129 0.492 0.75 1.2 1.060 1.904 1.060 1.62 0 3.214-1.65 2.074-3.39-5.011-7.655-8.91-16.952-15.967-23.049-6.639-5.732-14.031-10.33-22.164-13.652-21.014-8.587-44.094-11.939-59.342-30.354-0.454-0.547-0.983-0.777-1.505-0.777z" />
<glyph unicode="&#xe99a;" horiz-adv-x="951" d="M333.045 449.697c-5.106-17.339-7.759-34.971-6.077-51.653 0.846-8.317 2.922-16.297 6.294-23.576 1.759-3.6 3.601-7.16 6.015-10.369 1.118-1.645 2.408-3.225 3.644-4.752 1.318-1.42 2.558-2.915 4.038-4.167 11.261-10.677 27.597-15.557 44.526-17.017 17.043-1.467 34.752-0.17 52.669 2.282-8.001-4.395-16.661-7.392-25.498-9.877-8.872-2.372-18.064-3.852-27.458-4.195-9.381-0.34-19.022 0.53-28.453 3.29-9.389 2.727-18.613 7.54-26.013 14.567-1.904 1.695-3.539 3.645-5.221 5.55-1.547 1.97-3.095 3.875-4.427 5.977-2.778 4.105-5.019 8.577-6.861 13.164-3.619 9.225-5.223 19.097-4.979 28.684 0.232 9.605 2.059 18.954 5.114 27.724 3.165 8.722 7.145 17.099 12.688 24.369z" />
<glyph unicode="&#xe99b;" horiz-adv-x="951" d="M235.848 520.638c0-24.609-19.916-44.558-44.483-44.558-24.565 0-44.481 19.949-44.481 44.558 0 24.606 19.916 44.555 44.481 44.555 24.568 0 44.483-19.949 44.483-44.555z" />
<glyph unicode="&#xe99c;" horiz-adv-x="951" d="M106.741 383.85c8.85-22.956-2.553-48.753-25.468-57.617-22.918-8.867-48.668 2.555-57.521 25.511s2.551 48.753 25.468 57.617c22.913 8.867 48.668-2.557 57.521-25.511z" />
<glyph unicode="&#xe99d;" horiz-adv-x="951" d="M170.060 651.165c-3.906-15.234-19.396-24.416-34.603-20.507-15.211 3.91-24.375 19.432-20.472 34.666 3.903 15.232 19.396 24.414 34.605 20.504s24.37-19.429 20.47-34.663z" />
<glyph unicode="&#xe99e;" horiz-adv-x="951" d="M348.569 915.954c-3.906-15.234-19.396-24.416-34.605-20.507s-24.373 19.432-20.47 34.666c3.903 15.232 19.394 24.414 34.605 20.504 15.206-3.91 24.37-19.429 20.47-34.663z" />
<glyph unicode="&#xe99f;" horiz-adv-x="951" d="M80.282 775.529c3.090-14.419-6.072-28.616-20.465-31.713-14.398-3.097-28.571 6.085-31.663 20.502-3.090 14.417 6.072 28.616 20.467 31.713 14.393 3.097 28.568-6.082 31.66-20.502z" />
<glyph unicode="&#xe9a0;" horiz-adv-x="951" d="M649.224 880.813c3.090-14.419-6.072-28.616-20.465-31.713-14.395-3.097-28.571 6.082-31.663 20.502-3.090 14.419 6.075 28.616 20.465 31.716 14.398 3.095 28.573-6.085 31.663-20.504z" />
<glyph unicode="&#xe9a1;" horiz-adv-x="951" d="M282.081 414.106c0-25.574-20.699-46.31-46.233-46.31s-46.233 20.737-46.233 46.31c0 25.576 20.699 46.308 46.233 46.308s46.233-20.731 46.233-46.308z" />
<glyph unicode="&#xe9a2;" horiz-adv-x="951" d="M141.307 572.323c-4.909-16.807-22.486-26.446-39.265-21.529-16.779 4.915-26.399 22.521-21.493 39.328s22.484 26.446 39.262 21.531c16.779-4.917 26.402-22.524 21.495-39.331z" />
<glyph unicode="&#xe9a3;" horiz-adv-x="951" d="M423.132 868.712c2.189-17.372-10.093-33.233-27.438-35.426-17.343-2.195-33.175 10.11-35.366 27.481-2.189 17.374 10.093 33.233 27.435 35.428 17.343 2.192 33.178-10.112 35.369-27.484z" />
<glyph unicode="&#xe9a4;" horiz-adv-x="951" d="M222.871 714.901c1.814-11.904-6.349-23.026-18.233-24.844-11.882-1.817-22.985 6.36-24.8 18.262-1.814 11.904 6.347 23.026 18.231 24.844 11.884 1.815 22.988-6.36 24.802-18.262z" />
<glyph unicode="&#xe9a5;" horiz-adv-x="1455" d="M1182.572-53.221c-35.326 0-70.442 1.192-103.317 1.442-90.179 0.663-617.991 1.327-708.173 1.99-4.559 0.029-9.134 0.048-13.724 0.048-20.807 0-41.906-0.317-63.157-0.625-21.255-0.308-42.658-0.625-64.079-0.625-68.293 0-136.734 3.163-200.824 19.567-27.815 7.115-40.29 27.316-17.376 46.691 20.267 17.124 56.442 10.644 71.638 33.095-67.175 19.999 22.957 60.458 49.039 69.24 29.307 9.868 60.553 15.71 92.436 19.232 1.987-44.656 3.219-108.596 6.063-131.393l26.021 1.231 15.263 133.88c9.394 0.483 18.787 0.839 28.146 1.112l4.978-131.675h24.080l24.123 132.618c5.593 0.066 11.159 0.132 16.673 0.206 84.037 1.128 167.855 8.767 251.918 8.767 1.59 0 3.179-0.003 4.769-0.009 44.394-0.155 525.365-6.898 569.405-8.712 1.475-0.062 3.007-0.087 4.577-0.087 4.616 0 9.605 0.226 14.757 0.451 5.162 0.226 10.486 0.452 15.782 0.452 19.248 0 38.161-2.977 47.44-19.73 4.798-8.654 5.458-20.221 14.249-25.435 3.4-2.014 7.508-2.668 11.511-3.014 3.4-0.279 6.809-0.375 10.237-0.375 2.978 0 5.966 0.067 8.944 0.135 2.988 0.077 5.966 0.144 8.935 0.144 6.636 0 13.215-0.346 19.66-1.798 14.048-3.183 27.694-14.749 27.12-27.653-0.057-1.356-0.278-2.721-0.661-4.096-7.757-27.451-53.847-15.788-75.106-21.749-7.68-2.154-16.806-6.817-15.983-14.298 0.852-7.74 11.204-10.298 19.296-12 9.71-2.048 19.076-5.538 27.637-10.307 9.72-5.413 19.296-14.596 17.342-25.047-2.040-10.942-15.169-16.326-26.66-19.009-44.491-10.355-93.942-12.663-142.982-12.663z" />
<glyph unicode="&#xe9a6;" horiz-adv-x="1455" d="M161.685 172.926l-21.558 0.211 8.624-75.453h25.869l8.623 75.453-21.557-0.211z" />
<glyph unicode="&#xe9a7;" horiz-adv-x="1455" d="M1228.8 172.926l-21.558 0.211 8.627-75.453h25.871l8.617 75.453-21.558-0.211z" />
<glyph unicode="&#xe9a8;" horiz-adv-x="1455" d="M1293.474 237.811h-1185.684v202.064c0 31.276 25.747 56.631 57.509 56.631h1070.666c31.764 0 57.509-25.355 57.509-56.631v-202.064z" />
<glyph unicode="&#xe9a9;" horiz-adv-x="1455" d="M1255.134 151.579h-1109.005c-21.175 0-38.339 17.401-38.339 38.865v36.588h1185.684v-36.588c0-21.464-17.166-38.865-38.339-38.865z" />
<glyph unicode="&#xe9aa;" horiz-adv-x="1455" d="M107.789 227.032h1185.684l-37.542 43.116h-1112.347l-35.795-43.116z" />
<glyph unicode="&#xe9ab;" horiz-adv-x="1455" d="M84.303 151.579h36.194c10.841 0 19.629 8.372 19.629 18.699v188.96c0 10.326-8.788 18.699-19.629 18.699h-36.194c-10.841 0-19.629-8.372-19.629-18.699v-188.96c0-10.327 8.788-18.699 19.629-18.699z" />
<glyph unicode="&#xe9ac;" horiz-adv-x="1455" d="M1269.987 151.579h36.195c10.835 0 19.629 8.372 19.629 18.699v188.96c0 10.326-8.794 18.699-19.629 18.699h-36.195c-10.845 0-19.629-8.372-19.629-18.699v-188.96c0-10.327 8.784-18.699 19.629-18.699z" />
<glyph unicode="&#xe9ad;" horiz-adv-x="1455" d="M215.579 550.4l-31.444-11.913-97.903-114.994 27.825-23.998 81.804 70.389 19.718 80.516z" />
<glyph unicode="&#xe9ae;" horiz-adv-x="1455" d="M476.159 373.522l12.33-3.42 9.269 7.835 2.302-1.656-1.487-3.69 9.157 3.702 7.229-3.717 2.43-12.835-4.426-12.421-10.273-1.72-11.38 6.007-17.037 3.753 1.885 18.161z" />
<glyph unicode="&#xe9af;" horiz-adv-x="1455" d="M474.274 379.23l-98.733 59.346-47.639 101.045-36.87-44.206 50.79-116.464 127.809-22.572 4.643 22.851z" />
<glyph unicode="&#xe9b0;" horiz-adv-x="1455" d="M234.318 550.4c8.127 1.718 16.253 3.437 24.38 5.155-0.695 6.366-1.917 12.677-3.653 18.854 6.57 3.101 14.065 7.485 14.417 14.534 0.112 2.22-0.55 4.4-1.205 6.532-2.706 8.809-5.412 17.617-8.118 26.427-0.936 3.047-1.918 6.181-3.996 8.647-3.647 4.327-9.866 5.695-15.637 6.001-14.729 0.781-30.089-4.019-40.17-14.407-2.683-2.764-5.021-5.988-5.902-9.678-1.359-5.69 0.888-11.541 3.098-16.977 2.040-5.017 4.080-10.035 6.12-15.052 2.346-5.771 5.511-12.275 11.73-13.834 3.303-0.826 6.989-0.058 10.062-1.488 5.419-2.523 5.62-9.832 8.874-14.713z" />
<glyph unicode="&#xe9b1;" horiz-adv-x="1455" d="M150.995 630.582c-1.649 2.078-3.397 4.067-5.306 5.9-4.134 3.97-9.030 7.216-12.516 11.751s-5.295 11.020-2.343 15.91c1.905 3.155 5.383 5.026 8.808 6.466 11.287 4.748 23.879 6.439 36.043 4.844 11.586-1.52 22.211-5.029 33.039 0.453 10.173 5.152 18.049 4.446 29.636 1.822 12.538-2.839 28.813-1.966 40.419-6.682 4.845-1.969 8.94-5.448 12.283-9.429 11.581-13.793 14.089-34.369 6.15-50.472-1.781-3.614-4.026-6.988-6.419-10.239-4.954-6.729-10.851-15.014-18.393-18.169-1.006 6.867 2.769 29.327-3.27 34.352-9.583 7.973-28.464 2.617-38.764-0.813-11.235-3.742-20.547-12.977-31.765-16.020-8.072-2.189-19.036 0.571-26.527 3.95-9.242 4.174-15.055 18.79-21.075 26.377z" />
<glyph unicode="&#xe9b2;" horiz-adv-x="1455" d="M366.484 267.907l-44.876-245.675h-24l-8.462 222.913-62.788 41.709 82.664 58.747 40.4-43.366 17.063-34.327z" />
<glyph unicode="&#xe9b3;" horiz-adv-x="1455" d="M301.811 43.789l0.209-0.51 12.328-29.785 19.052-2.042 11.527 10.347-13.928 21.99h-29.188z" />
<glyph unicode="&#xe9b4;" horiz-adv-x="1455" d="M148.958 312.627c-7.324-2.514-9.081-7.244-8.805-16.997 0.445-15.671 6.182-31.179 16.21-43.817 0.758-0.955 1.587-1.93 2.75-2.424 1.014-0.43 2.167-0.447 3.282-0.456 13.93-0.111 35.95-0.512 42.079-14.224 5.804-12.986 3.735-32.113 5.619-46.026 4.129-30.501 5.071-135.948 9.201-166.451l27.752 1.209 31.339 253.216 1.866 46.267-30.062 11.897c-19.009-6.035-40.739-16.643-60.584-19.233-5.441-0.71-10.933-0.674-16.423-0.638-5.975 0.041-11.946 0.080-17.846-0.844-2.49-0.389-4.6-0.87-6.38-1.48z" />
<glyph unicode="&#xe9b5;" horiz-adv-x="1455" d="M226.358 20.642l13.494-29.747 18.743-1 10.879 11.001-14.523 21.336-28.592-1.59z" />
<glyph unicode="&#xe9b6;" horiz-adv-x="1455" d="M344.926 324.040l-1.080 0.832c0.137 0.008 0.273 0.015 0.408 0.023 0.221-0.287 0.444-0.571 0.672-0.855zM287.152 327.13l-17.678 6.385c6.132 0.719 12.306 1.306 18.446 1.306 3.637 0 7.263-0.206 10.862-0.714l-11.63-6.978z" />
<glyph unicode="&#xe9b7;" horiz-adv-x="1455" d="M322.515 302.484c-8.865 0-17.827 1.141-27.044 3.245-4.095 0.936-8.159 2.034-12.242 3.027l0.685 16.588-3.662 1.415 12.553 8.061c0.517-0.078 1.035-0.162 1.551-0.254 14.91-2.62 30.115-10.458 44.549-10.457 0.823 0 1.646 0.026 2.464 0.079l0.757-0.733c3.58-5.606 8.52-10.582 13.578-15.253-11.122-3.927-22.081-5.719-33.19-5.719z" />
<glyph unicode="&#xe9b8;" horiz-adv-x="1455" d="M290.361 302.484c-3.977 1.259-7.972 2.382-12.034 3.029-3.653 0.583-7.358 0.785-11.087 0.785-4.242 0-8.516-0.261-12.777-0.524-4.263-0.263-8.511-0.524-12.707-0.524-9.127 0-18 1.242-26.178 6.422 6.973 6.724 12.432 12.685 20.814 15.463 8.943 2.965 17.709 5.175 26.878 6.755 1.829 0.315 3.661 0.63 5.498 0.929l22.263-11.201-0.671-21.136z" />
<glyph unicode="&#xe9b9;" horiz-adv-x="1455" d="M161.761 306.408c-0.319-15.118 0.139-35.493 5.729-36.239 1.048-0.139 2.052 0.399 2.968 0.918 9.666 5.483 16.504 13.201 26.033 18.499 9.987 5.552 21.411 8.502 32.615 10.569 16.755 3.18 33.878 5.153 50.949 5.462 18.533 0.335 54.615-3.452 54.615-3.452 10.417 1.82 20.371 5.549 30.35 9.006 17.146 5.941 34.655 11.175 50.743 19.497 5.162 2.671 19.403 10.561 14.314 17.702-3.853 5.407-16.943 9.027-22.842 12.35-13.178 7.42-25.843 15.891-36.996 26.064-15.851 14.458-27.547 32.194-34.869 52.17-3.696 10.084-6.361 20.505-8.561 30.993-1.192 5.681-2.239 11.39-3.219 17.11-0.557 3.248-0.551 15.535-2.836 17.575-23.171 20.682-29.987 38.806-58.044 34.293-64.017-10.297-59.479-13.247-73.763-45.839-5.743-13.106-13.527-48.295-15.724-62.383-2.66-17.062-5.12-34.159-7.036-51.32-2.138-19.151-3.606-38.387-3.915-57.655-0.034-2.141-0.361-8.137-0.512-15.32z" />
<glyph unicode="&#xe9ba;" horiz-adv-x="1455" d="M209.999 582.737l-26.757-56.045 136.064-40.965 4.062 37.433-113.37 59.577z" />
<glyph unicode="&#xe9bb;" horiz-adv-x="1455" d="M208.504 453.105c6.776 2.104 10.159-8.103 3.371-10.211-6.776-2.103-10.159 8.104-3.371 10.211z" />
<glyph unicode="&#xe9bc;" horiz-adv-x="1455" d="M262.399 463.884c6.776 2.104 10.159-8.104 3.371-10.211-6.776-2.103-10.159 8.104-3.371 10.211z" />
<glyph unicode="&#xe9bd;" horiz-adv-x="1455" d="M348.63 474.664c6.776 2.103 10.159-8.104 3.371-10.211-6.776-2.104-10.159 8.103-3.371 10.211z" />
<glyph unicode="&#xe9be;" horiz-adv-x="1455" d="M246.914 551.611c81.264 24.428 162.069 0.467 180.481-53.519 12.073-35.396-5.674-74.91-42.232-104.811l18.681-54.774c0.787-2.431-2.191-4.394-3.548-3.441l-50.471 35.439c-11.212-5.652-23.339-10.516-36.233-14.392-81.264-24.428-162.070-0.466-180.482 53.519s32.539 117.552 113.804 141.98z" />
<glyph unicode="&#xe9bf;" horiz-adv-x="1455" d="M183.242 458.354l12.672 2.712 6.229 10.579 2.689-0.328-0.23-3.693 7.434 7.136 7.971 0.187 6.351-9.44-0.224-12.173-9.109-6.008-12.599-0.169-17.201-4.548-3.984 15.744z" />
<glyph unicode="&#xe9c0;" horiz-adv-x="1455" d="M203.423 485.726l-72.546-22.423-15.229 18.586-29.417-49.652 22.701-21.964 106.646 46.178-12.155 29.275z" />
<glyph unicode="&#xe9c1;" horiz-adv-x="1455" d="M1232.597 606.449c1.257 4.089 2.502 8.174 3.747 12.261-2.515 3.131-5.029 6.262-7.544 9.394 0.566 0.756 1.132 1.515 1.71 2.272 1.207-0.516 2.427-1.032 3.633-1.548-1.144 3.070-2.288 6.14-3.432 9.21 1.295 2.386 2.59 4.775 3.898 7.161 4.287 0.737 8.562 1.475 12.849 2.211 4.086-1.545 8.172-3.087 12.258-4.635 0.465-3.406 0.968-6.905 1.421-10.254-1.911-4.291-4.451-6.825-6.198-11.529-1.76-4.705-2.716-11.58-4.3-16.698-5.985 0.649-12.032 1.447-18.042 2.154z" />
<glyph unicode="&#xe9c2;" horiz-adv-x="1455" d="M1225.356 625.853c-6.287-15.9-12.811-31.766-17.774-48.081-3.061-10.102-1.747-34.804-17.784-31.464-18.084 3.768-36.169 7.536-54.263 11.305-3.123 0.652-6.318 1.309-9.513 1.103-18.56-1.189-16.461-23.704-14.641-35.752 1.044-6.929 2.378-13.82 4.012-20.649 0.92-3.8 2.037-7.786 4.994-10.539 3.547-3.294 8.903-4.092 13.886-4.595 20.804-2.094 41.876-1.92 62.649 0.476 10.96 1.264 21.848 3.127 32.56 5.645 11.446 2.694 11.229 4.732 11.663 15.336 1.51 37.378 8.82 74.418 9.213 111.849-8.334 1.791-16.668 3.577-25.002 5.365z" />
<glyph unicode="&#xe9c3;" horiz-adv-x="1455" d="M1232.212 293.093c-26.38 22.418-46.687 85.896-46.687 85.903l-7.93 40.633-32.607 131.577-66.754 31.532c0 0-42.905-48.504-77.12-142.782-10.847-29.884-15.765-68.402-17.43-107.092-2.984-18.014-8.797-35.246-12.329-53.112-1.030-5.193-2.887-14.181 1.752-18.333 5.64-5.047 16.227 0.597 22.184 2.372 20.625 6.146 41.317 12.113 62.134 17.589 23.406 6.156 47.361 12.517 71.576 14.595 18.864 1.619 33.704-4.173 51.692-7.862 10.567-2.166 13.484-6.822 24.167-8.259 26.168-3.525 46.1-2.682 27.352 13.24z" />
<glyph unicode="&#xe9c4;" horiz-adv-x="1455" d="M1451.837 626.925c-10.551 29.933-43.157 45.702-73.041 35.478-0.292 0.955-0.593 1.908-0.934 2.859-12.895 36.559-52.901 55.714-89.359 42.784-19.838-7.036-34.522-22.128-41.718-40.309-15.705 8.821-34.96 11.089-53.261 4.598-32.567-11.551-50.149-46.564-40.561-79.41-1.42-0.384-2.83-0.805-4.24-1.304-30.049-10.661-45.803-43.737-35.174-73.879 8.558-24.248 31.576-39.196 55.897-38.571-0.477-7.336 0.496-14.886 3.092-22.256 10.289-29.169 42.204-44.452 71.291-34.136 2.237 0.792 4.376 1.715 6.438 2.752l19.926-56.495c0.904-2.437 4.386-2.304 4.833-0.742l17.99 62.904c10.279-2.589 21.413-2.289 32.159 1.523 19.488 6.912 32.742 23.568 36.282 42.579 11.047-2.471 22.882-1.977 34.337 2.085 32.48 11.52 49.498 47.265 38.013 79.839-0.506 1.416-1.060 2.792-1.653 4.149 19.595 14.792 28.298 41.133 19.682 65.551z" />
<glyph unicode="&#xe9c5;" horiz-adv-x="1455" d="M1207.242 247.699l-46.884-225.468h-23.995l-6.462 203.101-62.785 40.984 82.667 57.726 40.393-42.612 17.066-33.731z" />
<glyph unicode="&#xe9c6;" horiz-adv-x="1455" d="M1142.568 22.232l0.203-0.51 12.329-29.798 19.056-2.028 11.527 10.333-13.933 22.004h-29.183z" />
<glyph unicode="&#xe9c7;" horiz-adv-x="1455" d="M1005.013 309.484c-7.722-1.173-10.432-5.538-12.192-15.239-2.833-15.589-0.43-31.966 6.791-46.275 0.542-1.080 1.156-2.194 2.199-2.893 0.9-0.607 2.035-0.831 3.13-1.040 13.665-2.611 35.215-6.963 38.385-21.634 2.997-13.894-3.027-32.45-4.081-46.558-2.301-30.925-9.942-129.677-12.243-160.601l27.523-3.792 76.566 239.187 11.476 45.452-33.445 17.172c-19.944-2.557-43.51-9.151-63.546-8.15-11.476 0.573-22.491 4.41-33.987 4.69-2.526 0.061-4.695-0.034-6.577-0.319z" />
<glyph unicode="&#xe9c8;" horiz-adv-x="1455" d="M1013.221 22.232l0.156-0.464 9.107-27.351 20.104-4.522 13.75 7.175-11.883 20.906-31.233 4.256z" />
<glyph unicode="&#xe9c9;" horiz-adv-x="1455" d="M1252.694 546.865c6.252 2.639 18.748 17.684 19.179 26.388 0.996 20.088-15.444 2.707-22.233-1.743-0.555 3.373-1.005 6.652-2.059 9.767-0.967 2.856-17.637-17.878-18.374-21.755-1.752-9.304 2.49-12.463 6.492-19.901 5.601 2.569 11.327 4.855 16.996 7.244z" />
<glyph unicode="&#xe9ca;" horiz-adv-x="1455" d="M1051.849 471.236c16.057-20.708 39.664-38.714 53.609-51.719 4.756-4.429 10.136-9.107 16.625-9.241 6.129-0.126 11.491 3.849 16.313 7.634 42.269 33.174 68.624 73.401 101.183 115.467l-28.903 5.043-80.569-62.489c-14.911 5.878-18.35 28.424-23.702 41.788-2.795 6.969-5.655 14.064-10.439 19.845-7.181 8.666-18.643 13.677-29.841 12.717s-21.769-7.996-26.695-18.113c-10.411-21.383-2.065-42.257 12.419-60.934z" />
<glyph unicode="&#xe9cb;" horiz-adv-x="1455" d="M1110.232 662.922c10.88-5.213 21.991-18.214 20.902-30.025-0.52-5.687-4.146-10.022-4.436-16.13-0.619-12.039-21.221-24.129-9.222-36.062 6.175-6.134 16.066-7.558 25.168-8.62 1.099-0.128 2.258-0.251 3.297 0.113 1.699 0.6 2.578 2.386 2.598 4.040 0.010 1.654-0.649 3.244-1.149 4.834-5.285 16.636 4.076 35.636 5.635 52.407 1.559 16.738-2.258 34.951-17.125 46.266-10.281-2.549-18.334-2.137-23.609-10.512l-2.058-6.313z" />
<glyph unicode="&#xe9cc;" horiz-adv-x="1455" d="M1114.084 584.853c11.649 4.137 20.623 14.62 24.826 25.768s4.234 22.901 2.819 34.043c-4.709 37.077-54.134 28.18-70.368-2.839-14.158-27.033 8.871-69 42.723-56.972z" />
<glyph unicode="&#xe9cd;" horiz-adv-x="1455" d="M1069.485 576.057c-7.657 18.438-3.503 57.010 10.723 70.292 4.944 4.611 10.584 5.448 16.884 5.497 4.312 0.034 4.46-1.693 8.131 0.722 2.806 1.851 5.241 7.433 5.91 10.705 1.134 5.517-0.911 11.366-4.33 15.706-20.007 25.433-48.256 3.691-63.458-15.73-12.526-16.009-22.971-34.392-27.757-54.707-4.479-18.999-5.975-46.921-4.079-66.342 1.793-18.395 11.829-36.228 8.205-54.318-3.299-16.444-16.838-27.9-28.593-39.214-11.746-11.313-23.296-26.468-20.629-43.040 1.645-10.232 8.763-18.868 17.414-23.763 8.642-4.893 18.678-6.432 28.481-6.417 7.852 0.013 15.806 0.958 23.473-0.82 7.676-1.779 15.267-7.065 17.21-15.116 1.069-4.444 0.716-10.025 4.349-12.531 1.701-1.175 3.847-1.274 5.882-1.336 6.207-0.187 13.26-0.017 17.433 4.858 6.458 7.546 2.686 22.683 11.411 26.972 2.555 1.257 5.501 1.062 8.28 1.56 14.245 2.552 19.719 22.619 14.84 37.017-4.869 14.399-16.169 25.084-24.727 37.409-16.708 24.063-27.998 56.213-17.73 84.692 1.496 4.154 3.299 8.328 3.373 12.773 0.149 8.494-5.817 15.487-9.683 22.935-0.353 0.695-0.697 1.428-1.013 2.196z" />
<glyph unicode="&#xe9ce;" horiz-adv-x="1455" d="M720.146 904.607l-350.082 55.364c-1.349 0.213-2.64-0.757-2.881-2.167l-43.775-254.821c-0.242-1.41 0.654-2.726 2.004-2.939l79.127-12.514 41.75-81.693c1.22-2.387 4.907-1.893 5.398 0.723l13.408 71.393 136.863-21.644c41.963-6.636 82.089 23.548 89.625 67.417l30.568 177.942c0.242 1.41-0.654 2.726-2.004 2.939z" />
<glyph unicode="&#xe9cf;" horiz-adv-x="1455" d="M666.824 862.989l-214.109 34.415 1.471 8.7 214.108-34.415-1.47-8.7z" />
<glyph unicode="&#xe9d0;" horiz-adv-x="1455" d="M666.814 798.316l-257.214 44.469 1.482 9.426 257.213-44.469-1.481-9.426z" />
<glyph unicode="&#xe9d1;" horiz-adv-x="1455" d="M656.035 733.642l-257.214 44.468 1.482 9.427 257.213-44.469-1.481-9.426z" />
<glyph unicode="&#xe9d2;" horiz-adv-x="1455" d="M578.214 24.386l-6.93 51.741h32.337v-53.895l-25.407 2.154z" />
<glyph unicode="&#xe9d3;" horiz-adv-x="1455" d="M489.4 22.232l-4.347 43.116h32.337l-6.691-41.166-21.299-1.95z" />
<glyph unicode="&#xe9d4;" horiz-adv-x="1455" d="M489.159 300.938l-25.665-29.183 25.925-217.186h42.429l6.138 188.067 33.298 20.607-2.566 60.799-79.559-23.105z" />
<glyph unicode="&#xe9d5;" horiz-adv-x="1455" d="M592.584 311.996l-41.78 9.636-11.856-57.621 24.702-209.443h46.632l7.372 173.113c0 0 5.57 31.317 32.031 28.908 19.498 0 23.676 22.885 12.533 67.452-40.386-2.41-69.633-12.046-69.633-12.046z" />
<glyph unicode="&#xe9d6;" horiz-adv-x="1455" d="M510.78 607.321c-4.215-12.082 1.885-24.964 7.242-35.975 4.75-9.764 6.402-16.19-5.656-18.825-6.795-1.484-18.85-4.254-24.81 0.711-4.51 3.762-1.975 15.377 0.22 19.991 1.677 3.523 6.114 5.312 7.69 8.877 0.651 1.47 0.745 3.103 0.768 4.698 0.094 6.513-0.85 13.040-2.79 19.286-1.318 4.241-3.103 8.406-3.5 12.815-0.577 6.39 4.159 13.837 6.646 19.709 4.629 10.925 20.741 25.578 34.232 17.003 3.073-1.953 4.862-5.254 6.357-8.474 0.893-1.923 1.741-3.93 1.767-6.033 0.104-8.387-7.92-9.803-13.461-13.795-6.835-4.923-12.015-12.276-14.705-19.987z" />
<glyph unicode="&#xe9d7;" horiz-adv-x="1455" d="M535.877 551.261c-11.692 2.641-20.833 12.057-25.226 22.781-4.393 10.721-4.622 22.612-3.407 34.073 4.042 38.14 53.509 35.692 70.261 6.459 14.599-25.475-7.632-70.993-41.628-63.313z" />
<glyph unicode="&#xe9d8;" horiz-adv-x="1455" d="M571.052 595.527c0.446-6.356-2.454-13.426 0.584-18.762 1.354-2.377 3.623-3.801 5.543-5.591 5.243-4.889 7.961-13.117 6.861-20.774 11.071 0.49 22.143 0.982 33.215 1.472 1.67 0.075 3.421 0.176 4.851 1.172 3.054 2.128 3.215 7.062 3.016 11.162-0.39 8.073-0.961 16.717-5.335 23.049-2.028 2.936-4.75 5.16-6.769 8.104-9.712 14.157-0.211 39.014-12.033 50.861-5.274 5.286-12.925 5.677-19.391 8.755-11.273 5.365-18.681 18.799-30.233 23.312-21.817 8.523-42.953-22.066-30.022-44.417 10.547-18.227 47.915-12.74 49.713-38.341z" />
<glyph unicode="&#xe9d9;" horiz-adv-x="1455" d="M635.958 697.309l-4.515 25.554-4.929-3.874 1.372-19.042-2.708 0.607 5.045-20.806 5.365 2.468 0.37 15.094z" />
<glyph unicode="&#xe9da;" horiz-adv-x="1455" d="M560.505 555.635l89.124 28.68-13.278 103.123 20.929 3.088 43.352-118.363-68.431-86.437-71.695 69.909z" />
<glyph unicode="&#xe9db;" horiz-adv-x="1455" d="M431.158 640.959l2.225 28.009 5.436-1.588 0.391-19.929 2.728 1.896-3.219-23.453-5.752-0.042-1.808 15.107z" />
<glyph unicode="&#xe9dc;" horiz-adv-x="1455" d="M528.168 558.562h-69.847l-8.229 78.069-22.879-1.088-28.392-110.908 95.716-71.246 33.631 105.173z" />
<glyph unicode="&#xe9dd;" horiz-adv-x="1455" d="M453.527 274.197c17.171 3.684 69.813 37.173 84.629 36.844 55.194-1.228 53.967-41.756 114.067-52.81s97.877-14.766 90.64 0.6l0.005 0.006c-24.457 51.53-47.724 103.362-69.031 156.787-10.86 27.229-21.333 54.958-37.141 79.797-11.174 17.558-30.576 47.394-51.326 52.278-0.433 0.103-0.869 0.201-1.308 0.297-21.816 4.793-49.772 2.57-69.487-8.050-3.741-2.016-7.068-4.699-10.371-7.367-9.64-7.787-17.502-12.003-21.659-23.869-3.609-10.303-4.448-21.546-6.437-32.221-4.043-21.693-12.036-19.945-9.682-65.462 3.016-58.345-14.376-86.95-23.084-123.1 0 0-0.89-3.684-1.317-5.443-0.499-4.756 0.866-10.569 11.503-8.286z" />
<glyph unicode="&#xe9de;" horiz-adv-x="1455" d="M496.414 22.232l-22.14-19.107v-13.23l43.116 7.352-3.496 24.984h-17.48z" />
<glyph unicode="&#xe9df;" horiz-adv-x="1455" d="M573.98 22.232l-2.696-19.804 14.822-23.312h13.473l4.041 31.469-4.041 11.647h-25.6z" />
<glyph unicode="&#xe9e0;" horiz-adv-x="1455" d="M553.788 561.050c0 0-49.131 5.985-59.752-63.446-9.442-61.712-1.328-105.345-6.64-116.12-5.311-10.774-23.901-83.797-23.901-83.797l63.736 19.153c0 0 25.229 7.183 119.506-35.913 0 0-22.369 76.539-33.196 118.513-13.278 51.477-13.278 161.61-59.752 161.61z" />
<glyph unicode="&#xe9e1;" horiz-adv-x="1455" d="M755.528 291.705c0 0-6.743-26.934 14.768-33.426 12.305-3.714 12.393-3.714 12.393-3.714l-18.547-221.555h22.151c0 0 63.801 210.3 65.121 213.451 1.329 3.152-8.511 45.244-8.511 45.244h-87.375z" />
<glyph unicode="&#xe9e2;" horiz-adv-x="1455" d="M864.107 287.838l-12.57-42.019 16.138-211.779 21.564-1.030 22.329 203.886c0 0 2.447 19.023 17.072 19.023 24.393 0 19.509 35.785 19.509 35.785l-84.041-3.867z" />
<glyph unicode="&#xe9e3;" horiz-adv-x="1455" d="M791.174 22.232l17.247-21.142-11.497-11.195-25.869 6.222-5.749 26.115h25.869z" />
<glyph unicode="&#xe9e4;" horiz-adv-x="1455" d="M870.073 42.629l-7.757-24.477 10.343-17.478 16.822 2.33 5.172 20.978-2.586 19.808-21.994-1.16z" />
<glyph unicode="&#xe9e5;" horiz-adv-x="1455" d="M980.039 254.99c-8.629 16.346-15.87 79.628-17.795 120.288 0.444 27.938-2.804 55.099-15.445 82.537-12.452 27.009-46.429 98.484-84.436 102.958-30.229 3.557-62.045-16.769-85.584-40.285l0.006-0.012 0.062 0.064c0 0-39.625-39.219-38.393-124.722 0.392-27.219-3.963-50.353-9.288-69.58-11.399-41.168-27.238-64.391-10.434-71.248 4.68-1.91 10.385-3.136 16.769-3.806 27.253-2.863 66.966 4.459 92.931 12.607 32.052 10.060 99.835-5.029 99.835-5.029s11.253-3.746 23.346-6.691c15.936-3.881 33.335-6.374 28.425 2.919z" />
<glyph unicode="&#xe9e6;" horiz-adv-x="1455" d="M862.305 656.676c-22.165 5.26-41.384-3.363-49.915-23.203-12.414-28.869 6.184-61.705 29.58-70.057 0.319-3.221 0.637-6.442 0.956-9.664 0.072-0.66 0.154-1.371 0.637-1.864 0.421-0.435 1.059-0.611 1.676-0.748 6.436-1.445 13.395-0.756 19.368 1.915-1.1 3.192-1.799 6.496-2.118 9.833 9.067 2.974 17.744 10.59 24.642 24.38 13.498 27.001 10.866 60.938-24.827 69.409z" />
<glyph unicode="&#xe9e7;" horiz-adv-x="1455" d="M829.678 588.434c-16.633-2.121-19.875 15.684-20.554 28.585-0.959 18.223-3.063 32.672 11.12 47.106 19.264 19.606 52.584 21.541 72.307 1.334 6.744-6.911 9.907-16.645 11.557-26.231 2.771-16.084 1.595-33.649-7.382-47.196-5.386-8.132-16.87-15.565-15.968-1.031 0.665 10.77 10.317 19.084 7.911 30.627-0.428 2.058-1.312 4.117-2.944 5.409-3.509 2.768-8.795 1.022-12.833 2.879-8.011 3.679-10.909 18.542-22.721 12.49-5.979-3.063-18.658-18.85-21.165-25.172-2.701-6.816-0.761-14.548 1.591-21.499 1.719-5.082 0.947-7.064-0.92-7.302z" />
<glyph unicode="&#xe9e8;" horiz-adv-x="1455" d="M803.419 531.31c0.009-9.703 0.859-19.461-0.544-29.074-1.11-7.616-3.621-15.006-4.676-22.629-1.742-12.593 0.629-25.666 6.712-36.997 9.538 18.865 16.287 38.983 19.989 59.589 3.604 20.057 4.323 40.462 5.034 60.794 0.307 8.787-0.581 46.743-14.282 22.612-9.248-16.285-12.244-36.050-12.232-54.295z" />
<glyph unicode="&#xe9e9;" horiz-adv-x="1455" d="M914.382 506.36c-1.639 9.553-4.283 19.056-4.247 28.695 0.036 7.637 1.771 15.227 1.735 22.864-0.048 12.617-5.060 25.195-14.164 35.596-8.123-19.763-12.74-40.411-13.65-61.162-0.897-20.198 1.675-40.38 4.259-60.49 1.113-8.691 8.541-45.954 20.72-20.49 8.207 17.186 8.434 37.021 5.347 54.986z" />
<glyph unicode="&#xe9ea;" horiz-adv-x="1455" d="M939.922 513.419l-204.77 25.919c-18.954 2.399-36.303-10.721-38.75-29.304l-17.040-129.413c-2.437-18.507 10.829-35.47 29.692-37.966l32.882-4.351 30.722-56.355c0.898-1.646 3.418-1.212 3.69 0.635l7.422 50.426 130.354-16.195c18.925-2.351 36.219 10.762 38.665 29.314l17.029 129.299c2.445 18.583-10.94 35.593-29.895 37.992z" />
<glyph unicode="&#xe9eb;" horiz-adv-x="1455" d="M923.622 441.142l-11.946-4.984-9.843 6.452-2.14-1.927 1.78-3.417-9.391 2.414-6.863-4.599-1.347-12.896 5.415-11.587 10.332-0.325 10.793 7.391 16.577 5.93-3.367 17.547z" />
<glyph unicode="&#xe9ec;" horiz-adv-x="1455" d="M916.211 430.156c17.895 2.763 33.386 8.986 51.376 11.822 3.218 0.509 6.579 0.956 9.761 0.316 6.77-1.353 10.73-7.056 12.835-12.458 8.601-22.005-22.357-18.695-39.199-18.82-2.333-0.018-34.008-0.162-33.984-0.743l-0.789 19.882z" />
<glyph unicode="&#xe9ed;" horiz-adv-x="1455" d="M765.743 507.284l8.481-10.84 11.9-1.147 1.044-2.708-3.201-1.452 9.612-3.85 4.064-7.507-4.785-10.318-10.291-5.293-9.491 5.956-6.314 11.922-12.234 14.322 11.217 10.915z" />
<glyph unicode="&#xe9ee;" horiz-adv-x="1455" d="M765.305 501.997c-10.089 10.186-16.871 22.211-26.982 32.499-1.814 1.845-3.742 3.695-6.119 4.566-5.043 1.847-10.5-1.179-14.621-4.765-16.783-14.606 4.816-25.472 15.576-32.987 1.494-1.044 21.783-15.108 21.471-15.583l10.675 16.271z" />
<glyph unicode="&#xe9ef;" glyph-name="ic_papelera" horiz-adv-x="768" d="M554.667 490.667h-42.667v-426.667h42.667v426.667zM426.667 490.667h-42.667v-426.667h42.667v426.667zM256 490.667h-42.667v-426.667h42.667v426.667zM51.2 857.6h204.8v51.2c0 28.28 22.92 51.2 51.2 51.2h153.6c28.28 0 51.2-22.92 51.2-51.2v-51.2h204.8c28.28 0 51.2-22.92 51.2-51.2v-102.4c0-28.28-22.92-51.2-51.2-51.2v-665.6c0-28.28-22.92-51.2-51.2-51.2h-563.2c-28.28 0-51.2 22.92-51.2 51.2v665.6c-28.28 0-51.2 22.92-51.2 51.2v102.4c0 28.28 22.92 51.2 51.2 51.2zM460.8 908.8h-153.6v-51.2h153.6v51.2zM102.4-12.8h563.2v665.6h-563.2v-665.6zM51.2 704h665.6v102.4h-665.6v-102.4z" />
</font>
</defs>
</svg>
